<svg xmlns="http://www.w3.org/2000/svg" viewBox="0 0 449.83 536.92"><defs><style>.cls-1{fill:#fff;}</style></defs><title>1-1_copy-japanese</title><g id="レイヤー_2" data-name="レイヤー 2"><g id="上のバー"><path class="cls-1" d="M59.61,10.78a3.9,3.9,0,0,0-.66.11C70.06,26,91.62,46.41,113.17,52.13c.44.11.55.55.55,1.1,0,1-.44,2.31-1,2.31-1.21,0-7.59.55-10.23,2.42a1.86,1.86,0,0,1-1.1.33c-3.41,0-26.84-17.16-45.31-44.43C34.64,47.29,5.39,65.22,2.86,65.22A3.16,3.16,0,0,1,0,62.58a1.16,1.16,0,0,1,.55-1C23.21,48.17,44,21.89,50.48,9.46a22.85,22.85,0,0,0,2-6c.11-.66.22-1,.55-1,1.32,0,10.78,3.74,10.78,6.71,0,1-1.1,1.65-3.19,1.65ZM42.67,93.49c-9,0-21.56.77-26.51,1.32-2.42.22-6.93-5.06-6.93-6.93a.58.58,0,0,1,.66-.66H10c3.85.55,14.41,1.21,24,1.54.22-5.28.33-11,.33-16.17,0-13.86-.88-17.71-1.1-18.37a5.44,5.44,0,0,1-.33-1.65c0-.44.22-.66,1-.66,4.62,0,10.89,1.87,10.89,3.63,0,1-1.21,2-3.08,2.64-1.54.55-1.76,6.82-1.76,30.8H53.34c.11-8.69.33-21.12.33-31.57,0-11.66-.22-16.94-1.1-21.56a9.39,9.39,0,0,1-.44-1.65c0-.55.33-.66,1.21-.66,3.85,0,11,1.21,11,3.19,0,1-1.21,2.09-3.08,2.75-1.43.44-1.54,2.31-1.87,21.78h7.92a4,4,0,0,0,3.85-1.87c3.74-4.51,4.62-5.5,5.72-5.5,2.86,0,9.68,6.93,9.68,9.79,0,1.1-.77,1.76-2.86,1.76H59.28c0,4.07-.11,8.36-.11,12.43s.11,7.81.11,11.11H79.85c2.53,0,3.3-.55,4.51-2a55.6,55.6,0,0,1,4.07-4.51c1-.66,1.54-1.1,2.2-1.1,3,0,10.67,7.48,10.67,10.23,0,1.1-.88,1.87-3.41,1.87Z"/><path class="cls-1" d="M175.64,68.19C186.86,78.31,205.45,86.34,225.79,87c.66,0,.88.66.88,1.43a2.21,2.21,0,0,1-1.32,2.2c-1.1.22-8.25,1.87-10.56,3.85a2.32,2.32,0,0,1-1.43.55c-2.75,0-24.2-7.15-39.37-23.1,0,8.36.22,17.49.55,24.2.11,2.09-2.09,3.19-3.85,3.19-1.54,0-3-.77-3-2.53v-.33c.55-6.27.88-15.18,1.1-23.65C152,91.29,119.88,98.33,119.55,98.33a2.28,2.28,0,0,1-2.2-2.2,1.33,1.33,0,0,1,.88-1.32c18-5.72,36.08-14.85,47.84-26.62h-4.4c-8.69,0-19.8.55-24.75,1-2.2.22-6.38-4.29-6.38-6.16a.52.52,0,0,1,.55-.55h.22a289.84,289.84,0,0,0,31.24,1.65H169v-8h-6a125.65,125.65,0,0,0-17.38,1.1c-2.31.22-5.83-4.18-5.83-5.94a.4.4,0,0,1,.44-.44h.22a161.11,161.11,0,0,0,23.43,1.32H169c0-.55-.11-1.1-.11-1.43a35.88,35.88,0,0,0-.33-6.16h-8.25c-8.69,0-14.63.55-20,.88-3.08.22-6.38-5.17-6.38-6.16,0-.33.11-.55.55-.55h.22a240.29,240.29,0,0,0,26.62,1.76,9.61,9.61,0,0,1-1.32-2.2,22.43,22.43,0,0,0-6.82-7.92.44.44,0,0,1-.22-.44c0-.77,1.32-1.87,2.31-2.09H153a136.51,136.51,0,0,0-22.11,1.65c-2,.44-6.38-4.4-6.38-6.49,0-.44.22-.66.77-.66h.11c13.75,1.1,20.13,1.32,28.16,1.32h8c.11-2.31.11-5.72.11-8.8,0-7.37-.11-8.8-1-13.42,0-.22-.11-.55-.11-.77s.11-.66.77-.66h.44c7.37,1.32,9,1.65,9,3,0,.88-1,1.76-2.31,2.53a2.8,2.8,0,0,0-1.76,2.75c0,1.21-.11,10.67-.11,15.4h9.24V8.36A39.88,39.88,0,0,0,175,1.43c0-.22-.11-.55-.11-.88S175,0,175.64,0c.11,0,9.35,1,9.35,3.08,0,.77-.88,1.65-2.31,2.42A2.87,2.87,0,0,0,181,8.25c-.11,1.21-.11,10.67-.11,15.4h3C190.38,14.3,193,10.45,194,6c.22-.55.44-.88.88-.88,1.43,0,8.36,4.84,8.36,7,0,.88-.88,1.43-2.09,1.43-.33,0-.66-.11-1-.11a4.94,4.94,0,0,0-1.21-.11,2,2,0,0,0-1.76.88c-1.65,1.87-5.5,6.49-8.25,9.35h12.21a3.61,3.61,0,0,0,3.19-1.54c.11-.11,4.07-5.61,6-5.61,2.53,0,9.35,6.27,9.35,9.46,0,1.1-.77,1.87-2.75,1.87H184.44c1.1.44,6.71,3.19,6.71,5.06,0,.77-.88,1.32-3,1.32h-1.1c-1,0-1.32.55-2,1.21l-4.95,5.06h10.23c1.76,0,2.42-.66,3.52-1.76,4.18-4.18,4.51-4.4,5.28-4.4,2.86,0,9.13,5.61,9.13,8.36,0,1.1-.88,1.87-3.41,1.87H177a1.12,1.12,0,0,1,.55.88c0,.55-.77,1.21-2.2,1.76-1,.44-1.1.88-1.1,1.87a15.88,15.88,0,0,1-.11,3.08h11.44c1.76,0,2-.44,3.08-1.43s2.09-2.31,3.3-3.3c.66-.55,1-.88,1.54-.88,1.32,0,8.69,4.29,8.69,7.81,0,1.1-.88,1.76-3.41,1.76H174.1c-.11,2.42-.11,5.06-.11,8h21.45c1.87,0,2.31-.55,3.52-1.65s2.53-3,3.74-4a2.65,2.65,0,0,1,1.87-.88c2.31,0,9.46,5.17,9.46,8.69,0,1.1-.88,1.87-3.52,1.87ZM150.13,20.46a31.25,31.25,0,0,0-8.47-10.34.83.83,0,0,1-.44-.77c0-1.1,1.54-2.31,2.64-2.31.55,0,12.54,5.83,12.54,12,0,2.2-1.43,4-3.08,4C152.21,23,151.12,22.33,150.13,20.46Zm5.5,7.37c.88.33,11.11,5.72,11.11,10.67a3.8,3.8,0,0,1-.55,2h8.69a55.38,55.38,0,0,0,7.26-12.65Z"/><path class="cls-1" d="M290.68,49.71c1.43-.55,13.53-4.4,17.71-4.4,2.53,0,3.3,1.32,3.3,2.64,0,3.52-3.85,5.06-8.8,5.61-3.85.44-8.58,1.1-11.33,1.65-7.48,1.54-26.51,9.35-26.51,19.91,0,9.35,15.4,11.11,22.88,11.11a72.18,72.18,0,0,0,14.19-1.43,14.53,14.53,0,0,0,5.06-2.09,13.28,13.28,0,0,1,6.16-1.65c3.63,0,4.95,1.76,4.95,3.3,0,5.61-15.73,7.81-26.95,7.81-22,0-31.24-8.36-31.24-16.61,0-11.55,17.16-20,23.65-22.88-4.18-1.54-6.82-5.94-6.82-13.09,0-5.72,1.76-11.33,2.64-17a5.38,5.38,0,0,0,.11-1.32c0-4.95-4.73-6.71-8.58-8.69-1-.55-1.43-1.1-1.43-1.65,0-1.32,2.09-2.42,4.51-2.42,4.07,0,12.43,6.6,12.43,10.12,0,1.54-.77,3.19-1.32,5.72-1.21,5.39-3,10.89-3.08,16.39s1.76,9,7.7,9Z"/><path class="cls-1" d="M30.36,230.34c0,6.93-7,10.78-10.56,10.78a2,2,0,0,1-1.76-1c-1.65-2.09-6.16-2.75-9.35-3.41-.55-.11-.77-.77-.77-1.54,0-1.21.55-2.64,1.43-2.64h.11c2,.33,5.5,1.32,8.58,1.32s6-1,6.16-4.84l.22-27.83L11.66,207c-.88.44-1.1,2.64-2.31,2.64-2,0-6-6-6-7,0-.33.22-.44.55-.55,4.73-.77,6.49-1.21,20.57-6.6,0-5.94-.11-11.88-.11-17.38-3.85.22-9.13.88-12.32,1.21-2.31.33-5.83-5.06-5.83-6.6a.4.4,0,0,1,.44-.44h.11c4.07.55,12.1,1.43,17.6,1.54,0-5.39-.11-10.23-.11-14a108.62,108.62,0,0,0-.66-11.11c0-.22-.11-.44-.11-.66,0-.88.44-.88,1.1-.88,0,0,5.5.44,8.58,1.87.88.44,1.54,1.1,1.54,1.76,0,.88-.88,1.87-3.3,2.86-1.21.55-1.54.66-1.54,20.24h1c1.76,0,2.2-.44,3.19-1.65s2.09-3.19,2.86-4a2.27,2.27,0,0,1,1.54-.77c1.87,0,7.48,5.17,7.48,8.69,0,1-.77,1.76-2.64,1.76H29.7v15.73c4.07-1.76,8.47-3.63,13.09-6.16a1.2,1.2,0,0,1,.55-.11A2.05,2.05,0,0,1,45,188.65c5.28.44,17.38.88,22.22.88H78.64c1.32,0,1.87-.77,2.75-1.54a3.67,3.67,0,0,1,2.31-1.21c1.1,0,6.93,3.85,6.93,5.83,0,.88-.66,1.65-2.31,2.2s-2.53.66-3,1.76a79.08,79.08,0,0,1-13.2,23.1c8.47,7.48,21.34,13.42,40.14,14.3.66,0,.88.66.88,1.32,0,1-.55,2.2-1.32,2.31a26.78,26.78,0,0,0-9.68,4,3.2,3.2,0,0,1-1.54.33s-17.71-2.2-32.45-18c-17.6,17.38-42.78,20.68-43,20.68-1.1,0-2.31-1.76-2.31-3a1.22,1.22,0,0,1,1-1.32c18.26-3.74,31.35-11.33,40.58-20.79A59.89,59.89,0,0,1,55,201.63a10.87,10.87,0,0,0-1,1.65,79.56,79.56,0,0,0-4.07,7.92c-.33,1.1-.22,3.63-1.87,3.63S41.57,211,41.57,210c0-.22.11-.33.55-.66,5.28-3.41,10.45-10.67,10.45-12.32,0-.66-.22-1.1-.22-1.76V195a1.39,1.39,0,0,1,.11-.66,30.53,30.53,0,0,0-4.07.44h-.11c-1.1,0-3-1.76-4.18-3.52-4.73,2.86-9.57,5.61-14.41,8,.11,11.55.33,22.66.66,30.47ZM99.1,161.81c0,1-.33,7.48-.33,8.36,0,1.54.33,2.09,2,3.08,1.54.77,2.31,1.65,2.31,3,0,2.53-3.74,5.94-17.6,5.94-6.6,0-11.66-.66-11.66-9L74,158.63c0-1.54-.55-2.09-2-2.09H62.25c-.77.33-1.1.66-1.1,1.21v2.2c0,21.67-18.92,27.17-18.92,27.17a3,3,0,0,1-2.64-2.64,1.21,1.21,0,0,1,.66-1.1c10.67-5.83,15.07-12.54,15.07-23a31.36,31.36,0,0,0-1.54-10.45v-.44c0-.33.11-.77.88-.77,1.21,0,4.4,1.21,8,3.74h9c1.43,0,2.2-1.21,2.86-2a2.83,2.83,0,0,1,2.09-1.1c1.32,0,7.7,3.41,7.7,6.16,0,.88-.88,1.65-2.75,2.53-2.2.77-2.2,1.21-2.2,9.46,0,7.59.22,9,6.6,9,5.72,0,7-.33,8-4.95.44-2.31.66-7,1.1-10.12,0-.77.88-1.21,1.76-1.21,1.1,0,2.2.55,2.2,1.43Zm-32.78,32c-2.09,0-4.95.11-7.7.22a4.15,4.15,0,0,1,.11,1.21c0,.66-.33,1.1-.33,2.09,0,.22.11.44.11.77A43.38,43.38,0,0,0,68,215.49c7.15-9,11.33-19.8,11.33-21.23,0-.33-.22-.44-.77-.44Z"/><path class="cls-1" d="M166.4,236.27a7.57,7.57,0,0,1-2.75-.66,2.58,2.58,0,0,0-1.21-.22,5.78,5.78,0,0,0-1.87.44c-17.6,7.37-38.83,9.79-39.38,9.79-1.54,0-2.53-1.65-2.53-3a1.09,1.09,0,0,1,.88-1.21c20.9-3.19,38.17-9.79,41.35-13.86a.79.79,0,0,1,.66-.44c1,0,6.71,5.5,6.71,7.7C168.27,235.73,167.61,236.27,166.4,236.27Zm3-75.23a104.86,104.86,0,0,1-12.54,11.33,3.07,3.07,0,0,1,1.65,2.64,1.26,1.26,0,0,1-.66,1.21c-11.11,5.06-19,7-26.73,9.57-.33.11-.88,1.87-1.32,2.42a1.33,1.33,0,0,1-1,.66c-1.76,0-6-6.6-6-7.92,0-.55.55-.66,1-.66,2.09,0,16.5-2.42,29.26-7-.77-.44-1.43-1.1-1.43-1.76a1,1,0,0,1,.44-.88c17-14.63,19.36-21.89,20.68-26.07.22-.55.55-.77.88-.77s9.24,2.86,9.24,5.39c0,.88-1.1,1.76-4.18,1.76h-.33a2.11,2.11,0,0,0-2,1.21c-.88,1.43-2,3-3.19,4.62h27.06c1.1,0,2-.88,3-2,.77-.77,1.32-1.32,2.2-1.32,1.21,0,9.46,4.07,9.46,6.82,0,1.43-1.43,2.75-5.17,3.08s-7.15,4.84-10.78,8.58a3,3,0,0,1-1.87.66c-1.43,0-2.86-.88-2.86-1.87a1.19,1.19,0,0,1,.33-.77c2.53-3.19,5.5-7,5.5-8.36,0-.33-.22-.55-.77-.55Zm-18.92,5.83a7.45,7.45,0,0,1-4.62-2c-3.3-2.53-12.54-6.38-16.83-7.48a1.29,1.29,0,0,1-1-1.32,2.83,2.83,0,0,1,2.42-2.75c.66,0,23,2.53,23,10.67A2.8,2.8,0,0,1,150.46,166.87Zm4,56.86v1.54c0,1.65-2.09,2.64-4,2.64-1.54,0-2.86-.66-2.86-2.09v-.33a128,128,0,0,0,1.54-20.68c0-5.5-.22-10.23-.33-11.33a117,117,0,0,1-17.38,3.19,2.28,2.28,0,0,1-2.31-2.42,1.6,1.6,0,0,1,1.43-1.76A123.2,123.2,0,0,0,148.48,189a9.74,9.74,0,0,0-.22-1.87v-.44c0-.33.11-.44.44-.44a2.73,2.73,0,0,1,.88.11c.77.33,1.76.66,3.08,1.32C157.49,186,175,179.85,175,166.54a8.86,8.86,0,0,0-.11-1.76c0-.66.33-.88,1.43-.88,2.42,0,9.24.88,9.24,3,0,.77-.88,1.54-3,1.87a3.3,3.3,0,0,0-1.1.44c5.17,11.22,24.2,16.61,44,16.94.77,0,1,.55,1,1.32s-.44,2-1,2.09a19.63,19.63,0,0,0-8.91,3.3c-.44.33-.66.77-1.43.77-2.64,0-27.28-5.39-35.53-19.47-2.42,4.95-7.92,10.78-19,15.4h24.86c2.09,0,2.09-.66,3.3-1.54.77-.55,1.21-1,2-1,1.1,0,7.7,2.86,7.7,4.84,0,.77-.88,1.65-3,2.42-1.76.44-1.87,1.76-1.87,9.68,0,5.94.44,12.65,1.1,20.79v.11c0,1.32-2.2,2.31-4.07,2.31-1.43,0-2.64-.55-2.64-1.87v-.11a5.79,5.79,0,0,0,.11-1.43Zm34-20.35h-34c-.11,2.31-.11,4.29-.11,6.16h34.1Zm-34.1,9.9v6.82h33.88c.11-2.09.11-4.51.11-6.82Zm34.1-18.7c0-.66-.22-1.21-1.87-1.21H156.06c-.11.11-.22.22-.33.22a2.25,2.25,0,0,0-1.32,2.2v3.85h34Zm21.67,49.16a9.91,9.91,0,0,1-5.06-1.87c-7.15-4.62-18.26-7.7-27.39-9.35a1.32,1.32,0,0,1-1.1-1.43c0-1.21.88-2.64,2-2.64,4.62,0,21.23,2.86,29.92,6.6,3.41,1.43,4.84,3.85,4.84,5.72A2.89,2.89,0,0,1,210.07,243.75Z"/><path class="cls-1" d="M292.88,181a78.74,78.74,0,0,0,8.36,19.47c5.06-2.75,16.06-9.68,19.36-13.75.33-.44.55-.55.77-.55s.44.11.88.44c1.54,1.43,5.5,5.72,5.5,7.92,0,1-.66,1.54-1.76,1.54a6.62,6.62,0,0,1-3.08-.88,1.64,1.64,0,0,0-1-.22,4.1,4.1,0,0,0-2,.77c-4.62,2.53-12,5.94-16.61,8,8,11.77,20.68,23.1,40.14,26.4.44.11.55.55.55,1.1,0,1-.55,2.31-1.1,2.31-2.75.22-8.25,1.76-10.56,3.41a2.62,2.62,0,0,1-1.32.44,4.69,4.69,0,0,1-1.21-.22c-22.11-10.12-36.62-37.73-40.69-54.33l-1,.22a3,3,0,0,0-2.09.77,79.41,79.41,0,0,1-7,5.83c10.67,6.6,18.59,21.67,18.59,35.09,0,14.41-6.38,18.15-15.84,19.25-.33,0-.66.11-.88.11-.77,0-.88-.33-1.76-.88-2.53-1.76-7.92-2.31-11.88-3.08a1.69,1.69,0,0,1-1.32-1.87c0-1.32.88-3,2.2-3,.11,0,.33.11.44.11a50.94,50.94,0,0,0,12.43,2c5.5,0,10.78-2.09,10.78-13.75a36.67,36.67,0,0,0-1.87-11.55c-2.64.33-3.41.55-4.18,1.54-10.45,10.67-23.21,22.11-50.15,30.91-.11,0-.33.11-.44.11-1.32,0-2.42-1.65-2.42-2.86a1.11,1.11,0,0,1,.77-1.21c33.44-11.11,49.71-32.12,50.15-33.88.11-.55.33-.77.77-.77a14.87,14.87,0,0,1,3.52,1.21,65.29,65.29,0,0,0-3.41-6,6.67,6.67,0,0,1-2.86.88,2.55,2.55,0,0,0-2,.77c-17.49,15.29-36.62,22.44-38.05,22.44s-2.42-1.87-2.42-3.08c0-.55.11-.88.55-1.1,23.87-9,36.84-22.33,37.06-24.31a.85.85,0,0,1,.88-.77,25.45,25.45,0,0,1,3.85,1.43,28.45,28.45,0,0,0-5.94-5.06c-15.73,11-28.82,16.17-30.14,16.17-1.1,0-2.2-1.76-2.2-3a1.26,1.26,0,0,1,.66-1.21c20-7.7,36.63-22.55,37-23.32a143.2,143.2,0,0,0-18.81,1.21c-1.43.22-5.94-3.74-5.94-6.27,0-.44.22-.66.77-.66H257c12.65,1.1,18.26,1.43,26,1.43h16.94a3.62,3.62,0,0,0,3.19-1.54c2.64-3.63,4.18-4.84,4.84-4.84,1.21,0,4.29,2.31,5.61,3.41,4.07-6.38,4.51-7.15,4.51-7.48s-.55-.44-1.21-.44h-59.5c-3.41,11.11-9.68,16.17-12.87,16.17a3.51,3.51,0,0,1-3.41-3.74,5.49,5.49,0,0,1,3-4.62c5.5-3.08,9.46-10.78,10.23-18,.11-.88,1.1-1.21,2.09-1.21,1.32,0,2.75.55,2.75,1.54a47.28,47.28,0,0,1-.66,5.5h26.18c0-8,0-8.58-1.21-14.63,0-.22-.11-.55-.11-.77,0-.44.11-.66.88-.66s11.11.77,11.11,3.19c0,1.1-1.43,2.31-3.52,3.19-.88.33-1.1.55-1.21,3.08-.11,1.1-.11,3.85-.22,6.6h27.17c1.87,0,2.09-.66,3.19-1.76.88-.88,1.43-1.32,2.2-1.32,1.43,0,9.9,4.07,9.9,7.59,0,1.54-1.65,2.86-5.83,3s-7.81,4.84-10.56,7.7c-.11,0-.11.11-.22.11a5.22,5.22,0,0,1,1.1,2.64c0,1-.77,1.65-2.86,1.65Z"/><path class="cls-1" d="M402.86,172.81a7.71,7.71,0,0,1,2.53,5.61c0,5.72-15.84,31.24-24.75,41.68-2,2.42-3.63,4-5.61,4-3.19,0-12.54-7.15-12.54-19.8,0-17.27,18.26-35.53,43.66-35.53,22.55,0,36.51,14.41,36.51,30,0,10.23-5.94,20.57-17.71,26.95-10.67,5.61-34.65,10.12-34.65,4.18,0-1.54,2.2-3.19,5.72-3.19a15,15,0,0,1,2.09.22,18.28,18.28,0,0,0,2.64.22c10,0,35.09-7.26,35.09-28.49,0-14.19-11.77-25.85-31-25.85Zm-34.65,30.25c0,8.47,5.17,13.53,7.15,13.53,3.08,0,24.42-32.67,24.42-40.8a4.28,4.28,0,0,0-.77-2.53C380.21,175.56,368.22,190.85,368.22,203.06Z"/><path class="cls-1" d="M39.81,350.69c0,8.47-1.21,37.17-19.8,37.94a2.87,2.87,0,0,1-2.42-.88c-1.21-1.87-4.07-3.52-8.91-4.95a1.61,1.61,0,0,1-1-1.65c0-1.21.77-2.53,1.87-2.53H9.9c4.73,1.32,8.25,2.2,11.11,2.2,3.63,0,6.16-1.65,8.36-6.16,3.74-7.59,4.51-16.39,4.51-24.42,0-1.76-.11-3.52-.11-5.17,0-1.21-.22-1.65-1.87-1.65H17.38c-.11,1.1-.22,2.42-.44,3.85-.22,1.87-2.42,3-4.4,3-1.54,0-2.86-.66-2.86-2.09a1.87,1.87,0,0,1,.11-.77c1.76-6.93,4.4-16.94,4.4-28.16a16.33,16.33,0,0,0-.11-2.31c0-.55,0-1.32.66-1.32,1.32,0,7.37,4.18,7.37,4.18H33.88c0-5.72,0-12.21-.11-15.4,0-.66-.11-1.76-1.76-1.76H28.27c-4,0-6.82.66-10.89,1.1-2.09.33-6.27-4.84-6.27-6.27a.5.5,0,0,1,.55-.44h.22c7.59,1,10.34,1.43,16.39,1.43h2.86c2.2,0,2-1.1,3.19-2.42.66-.55,1-.88,1.43-.88,1.21,0,8.14,3.63,8.14,5.94,0,.88-.77,1.76-2.86,2.75-.77.44-1.54.11-1.65,3.74,0,2.53.44,12.32.88,17.38.11,1.87-1.87,3.19-3.85,3.19a2.42,2.42,0,0,1-2.64-2.64V324H21.56c-.11,0-.22.11-.33.11-1,.33-1.54.88-1.54,1.54-.88,5.94-1.21,9.35-1.76,13.42H31.79c1.43,0,1.87-.77,2.64-1.65s1.43-1.32,2.2-1.32c2.31,0,8.47,4.4,8.47,6.38q0,1.48-3,2.64c-1.54.66-2.31,1.32-2.31,3.74ZM88.1,363.11c0-.66.11-1.32.11-1.87h-13c.11,5.83.22,11.33.22,15.07,5.72-.55,11.22-1.21,15.51-1.87a48.76,48.76,0,0,0-6.71-5.06,1.34,1.34,0,0,1-.66-1.1,2.59,2.59,0,0,1,2.42-2.2c.88,0,20.9,10.12,20.9,17.71,0,2.09-1.32,3.63-3.08,3.63-1.54,0-3.3-1.1-5-4a38,38,0,0,0-4.29-5.5c-10.12,2.2-35.75,6.16-46.52,7.48-1,.11-1.32,2.53-2.75,2.53-2.64,0-6.16-7.59-6.16-8.8,0-.44.22-.55.55-.55H40c1.32.11,2.75.22,4.29.22,5.72,0,13.86-.77,25.41-1.87.11-3.85.11-9.57.11-15.73H57.63c0,1.65.11,3.19.11,4.51.11,1.65-1.54,3.3-3.85,3.3a2.39,2.39,0,0,1-2.64-2.53v-.44c.55-4.51.77-13.31.77-19.47a64.82,64.82,0,0,0-.88-12.43v-.33c0-.44.11-.66.44-.66a27.88,27.88,0,0,1,9.35,4.51h8.8c0-2.42-.11-4.4-.11-5.5a53.1,53.1,0,0,0-.77-6.38,9.93,9.93,0,0,1-.44-1.76c0-.55.33-.66,1.21-.66.55,0,10.12.44,10.12,3.3,0,1.1-1.32,2.2-3,3-1.43.66-1.43,2.2-1.43,8H85.46c2.2,0,1.65-.44,3.3-2.31a2.26,2.26,0,0,1,1.76-1c.88,0,7.81,3.41,7.81,5.61,0,.88-.88,1.65-2.86,2.64-1.1.55-1.76,1.21-1.76,3.63,0,4.18.66,13.53.77,16.17a4,4,0,0,1-3.85,3.85c-1.32,0-2.53-.88-2.53-3ZM44.32,316.92a24.91,24.91,0,0,0,4.62.33c2.86,0,6.6-.22,10.78-.55,1.43-3.74,5.94-16.06,6.16-22.44.11-1.1-.11-1.54.77-1.54,2.75,0,9.68,3.3,9.68,5.39,0,1-1.43,1.76-3.3,2-1.21.11-1.65.44-2.53,2.31-1.32,3.08-4,9.68-6.16,13.86,8-.77,16.72-1.87,23.43-3a44.7,44.7,0,0,0-8.47-6.49,1,1,0,0,1-.44-.88,2.81,2.81,0,0,1,2.42-2.64c1.32,0,14.74,7.81,18.48,13.2a7.17,7.17,0,0,1,1.32,4.18c0,2.31-1.32,4.07-2.86,4.07-1.21,0-2.53-.88-3.74-3.08a25.21,25.21,0,0,0-3.3-4.84c-12.21,2.64-26.95,4.73-39.49,6.71-.88.11-1.32,2.42-2.53,2.42-2.2,0-5.61-7.26-5.61-8.69,0-.22.11-.33.44-.33Zm25.52,25H59.39l-.77.66a2.7,2.7,0,0,0-1.1,2.2v12.32H69.84Zm18.48,10.23c0-3.74,0-6.49-.11-8.47,0-.88-.22-1.76-1.76-1.76H75.23v15.18H88.32Z"/><path class="cls-1" d="M141.22,342.11c0,22.88,12.21,26.51,13,26.51s1.65-.88,2.53-2.64c2.86-5.61,5.94-12.43,10.12-19.91a2.34,2.34,0,0,1,2.2-1.32,2.28,2.28,0,0,1,2.31,2.09,3.25,3.25,0,0,1-.44,1.21c-4.51,6.82-8.69,19.58-8.69,21.89,0,1.32.77,1.87,1.43,3.41a4.1,4.1,0,0,1,.44,1.76c0,1.65-1.43,2.75-4.07,2.75-11.55,0-22.77-13.42-24.31-29.81-.44-4.51-.44-8.8-.44-12.65,0-1.32.11-2.64.11-3.85,0-3.3-.55-6.27-3.85-8.58a3.07,3.07,0,0,1-1.54-2.42,2.44,2.44,0,0,1,2.53-2.2c2.42,0,9.13,6.38,9.13,13,0,1.21-.22,2.53-.22,4.4S141.22,339.47,141.22,342.11Zm72,9c0,2.86-.88,6.71-3.63,6.71a6.2,6.2,0,0,1-3-1.21,4.89,4.89,0,0,0-2.75-.55,15.5,15.5,0,0,0-2.2.11c-2.09.33-4.4.88-6.38,1.21-.22,0-.44.11-.66.11-1.32,0-2-.77-2-1.65a2.07,2.07,0,0,1,1.43-1.76c1.54-.44,6.38-1.54,9.68-2.53,2-.66,2.64-1.65,2.64-2.86,0-4.18-2.42-10-9.57-16.06a13.51,13.51,0,0,0-4.4-2.53c-1.54-.66-2.2-1.65-2.2-2.42a2.4,2.4,0,0,1,2.64-2.09,5,5,0,0,1,2.75.88c4.95,3.3,17.6,11.66,17.6,24.42Z"/><path class="cls-1" d="M252.74,360.14c-1,0-1.65.66-2.09,1.76-6,13.2-14.63,23.1-16.83,23.1-1.21,0-2.64-1.1-2.64-2.09a1,1,0,0,1,.33-.66c9.79-9.79,15.18-23.54,15.51-28.49.11-.66.22-.88.55-.88,1.43,0,8.25,3.08,8.25,5.39,0,1.1-1.21,1.87-2.86,1.87Zm4.73,25.74c.11-5.72.33-16.5.33-25.74,0-10.56-.22-13.53-.55-16.17-5.39.88-10.67,1.65-13.75,2.2-.66.11-1.43,2.09-2.53,2.09-1.65,0-3.52-5.39-3.74-7.37,0-.11-.11-.22-.11-.33,0-.44.44-.44.88-.44a29,29,0,0,0,3.41.11c.22,0,4.62,0,10.56-.55,2.2-4,13.2-24.64,14.19-32.78.22-.77.11-1.32.55-1.32,1.87,0,9,3.3,9,5.5,0,1.1-1.1,1.65-2.75,1.76-1,0-1.76.22-2.64,1.76-3.19,6.49-9.24,17.49-13.53,24.64,4.62-.44,9.46-1.1,13.75-1.76a30,30,0,0,0-4.62-5.28.81.81,0,0,1-.22-.66,2.68,2.68,0,0,1,2.31-2.31c.55,0,11.22,7,11.22,13.75,0,2.31-1.43,4-2.86,4-1.1,0-2.31-.88-3-3.19a18.53,18.53,0,0,0-.88-2.64l-7.59,1.54c.55.22.77.44.77.77s-.55,1-1.43,1.43a2.37,2.37,0,0,0-1.32,2c-.11,3.52-.11,7.37-.11,11.44,0,9.35.22,19.36.66,27.39a3.38,3.38,0,0,1-3.41,3,2.39,2.39,0,0,1-2.64-2.53Zm3.41-84.14c-2.31,6.49-6.71,16.61-8.91,21.23a10,10,0,0,1,1.87,1.87,6.58,6.58,0,0,1,1.54,4.18c0,2-1,3.52-2.42,3.52-.88,0-1.87-.66-2.86-2.2a27.76,27.76,0,0,0-10-9.35.89.89,0,0,1-.44-.88c0-1,.88-2.31,1.87-2.31a30.42,30.42,0,0,1,7,3c6.49-17,7-24.09,7.15-26.29.11-.88.11-1.1.66-1.1.11,0,9.13,1.87,9.13,4.62,0,1-1,1.76-2.86,2C261.65,300,261.21,300.64,260.88,301.74Zm14.19,71.38c-1.87-5.83-5.5-13.31-9.35-17.38a1.19,1.19,0,0,1-.33-.77,2.81,2.81,0,0,1,2.53-2.31c2.2,0,13.31,13.64,13.31,19.47,0,2.64-1.43,4.51-3,4.51C277.15,376.64,275.94,375.65,275.06,373.12Zm20.79-62c-.66,0-.88.44-1.21,1-10.34,13.31-17.27,17.82-18.59,17.82a2.7,2.7,0,0,1-2.31-2.53,1.12,1.12,0,0,1,.55-1.1c8-5.61,16.06-17,16.94-21.12.11-.66.33-1,.77-1,1.32,0,7.59,3.3,7.59,5.61,0,1-1.1,1.43-2.42,1.43a3.74,3.74,0,0,1-1.1-.11ZM308.28,388c0,1.87-2.09,3.08-4,3.08-1.54,0-3-.77-3-2.64v-.11c.44-10.34.66-22.11.88-33.55h-3.08a157.3,157.3,0,0,0-19,1.21c-1.87.22-5.83-4.51-5.83-6.49,0-.33.11-.44.44-.44h.11c4.29.55,16.5,1.43,25.19,1.43h2.2c.11-5.61.11-11.11.11-16.39a104.27,104.27,0,0,0-13.53,1.32c-2.2.33-6.27-5.06-6.27-6.6,0-.33.11-.44.44-.44h.11c4.07.55,13.53,1.43,19.25,1.54,0-10.23-.11-19-.22-24.53a73.23,73.23,0,0,0-.66-10.12,11.67,11.67,0,0,1-.22-1.43c0-.66.33-1,1.1-1,1,0,10.12.88,10.12,3.52,0,1-1.32,2-3.3,2.64-1,.33-1.21,1.32-1.21,2.86-.22,5.39-.22,15.73-.22,28h3.85a4.13,4.13,0,0,0,3.74-1.76c1.54-1.87,3.85-4.4,5.06-4.4,2.64,0,8.58,6.27,8.58,8.58,0,1.1-.77,1.76-2.86,1.76H307.73v16.39h13.42a4.1,4.1,0,0,0,3.85-1.76c4.4-4.84,4.84-5.28,5.83-5.28,3,0,9.13,6.27,9.13,9.46,0,1.1-.77,1.87-3,1.87H307.73c.11,11.66.33,23.43.55,33.11Zm21-66.43c-3.52-5.06-9.79-9.13-17-13a1.44,1.44,0,0,1-.77-1.32,2.72,2.72,0,0,1,2.31-2.64c.88,0,15.07,6,20.35,11.55a6.38,6.38,0,0,1,2,4.51c0,2-1.21,3.63-2.86,3.63C332.15,324.29,330.72,323.52,329.29,321.54Z"/><path class="cls-1" d="M401.87,364.54c0-1.87,1.43-3.63,1.54-5.61,0-.77.11-1.65.11-2.53-12,9.79-13,12.87-13,15.4,0,5.61,8.58,7.81,15.18,7.81,5.61,0,7.81-.77,11.66-2.75a12.86,12.86,0,0,1,6-1.65c3.52,0,4.51,1.87,4.51,2.86,0,4.29-11.77,6.93-20.57,6.93-13.2,0-22-5.94-22-12.32,0-6.71,7.7-13.64,18.26-21.56,0-2-.11-3.63-.11-4.73,0-6-2.09-9.35-5.17-9.35-4.62,0-14.3,9.46-17.38,18.59-1.54,5.39-5.17,5.39-5.5,5.39-1.87,0-3-1.87-3-4.29a8.39,8.39,0,0,1,2.53-5.83c6.16-6,11.66-15.62,16.94-27.5a36.92,36.92,0,0,1-11.66,2.09c-10.78,0-12.65-8.25-12.65-9.68,0-1,.44-2,1.54-2a4.17,4.17,0,0,1,2,.66c5.39,3.08,8.36,5.83,13.64,5.83,2.42,0,4.73-.44,9.35-2.09,3.52-7.92,3.85-9.68,3.85-10.67,0-2.2-2-3.41-6-4-1.21-.11-2.09-.66-2.09-1.43s1.32-3.3,4.84-3.3c2.2,0,7.92,2.75,8,2.86a3.61,3.61,0,0,1,1.87,3.19c0,1.65-1.1,3.41-2,5.17v.11c1.1.11,2.09.22,3.08.22a30.46,30.46,0,0,0,4.29-.33h.44c1.87,0,3.41.77,3.41,2.09,0,2.09-3.41,4.62-16.72,9.46-2.75,5.61-5.94,11.77-8.8,16.83-.11.33-.33.66-.33.77h.11a1.89,1.89,0,0,0,.44-.33c2.2-2.2,6.16-5.94,10.89-5.94,5.28,0,9.24,4.73,9.24,13.2v1.1c8.58-6.27,18.26-12.54,27.06-17.71.88-.55,1.32-1.1,1.32-1.43s-.44-.66-1.43-.66a18.24,18.24,0,0,0-4.29.88,1.2,1.2,0,0,1-.55.11,1.59,1.59,0,0,1-1.54-1.65c0-2,4.84-3.52,9-3.52,5.06,0,11.55,2.09,11.55,6.16,0,1.54-1.43,2.31-3.19,3s-2.86.77-5.28,1.65C431,337.93,418.92,345,408.69,352.45c0,4.95-.11,11.11-.11,12.87-.22,3.52-1.87,5.5-3.52,5.5s-3.19-2.09-3.19-5.83Zm-2.09-48.28c.88-.33,5.06-1.87,5.06-2.42s-3.19-1.21-3.3-1.21Z"/><path class="cls-1" d="M41.46,530c-8.91,0-22.77.88-27.72,1.43-2.64.22-6.82-5.28-6.82-7,0-.33.11-.55.55-.55h.11c5.28.66,24.42,1.76,34.87,1.76H53.12c.22-7.48.33-15.51.44-23.65H50.92c-4,0-17.16.77-21.23,1.32-2.09.22-5.94-4.73-5.94-6.49a.52.52,0,0,1,.55-.55h.11c4.51.55,19.47,1.54,25.19,1.54h4.07c0-6.93.11-13.86.11-20.35H30.69c-5.61,9.9-13.86,21-16.28,21-1.43,0-2.86-1.21-2.86-2.31a1.25,1.25,0,0,1,.33-.88c10-10.67,21.56-35.09,22.77-44.21.11-.77.11-1.1.66-1.1,2.09,0,10.56,3.41,10.56,5.61,0,1.1-1.43,1.76-3.74,2-1.32.22-2.09,1.43-2.64,2.64-1.76,3.85-3.85,8.25-6.27,12.76H53.78c-.11-9-.22-17-.44-23.1a29.41,29.41,0,0,0-.88-6.82c-.11-.77-.33-1.32-.33-1.65,0-.55.33-.66,1.21-.66,1.21,0,11.22.66,11.22,3.19,0,1-1.21,2.09-3.08,2.75-1.43.44-1.65,2.64-2,26.29H75.67A4,4,0,0,0,79.52,471c3.08-3.85,4.62-5.61,6.16-5.61,3.85,0,9.79,7.81,9.79,10.12,0,1.1-.77,1.87-3,1.87h-33c-.11,6.6-.11,13.42-.11,20.35H69.73A3.91,3.91,0,0,0,73.47,496c4.18-5.17,4.95-5.5,5.83-5.5,2.53,0,9.57,6.49,9.57,9.68,0,1.1-.77,1.76-2.86,1.76H59.39l.22,23.65H86a4.73,4.73,0,0,0,4.4-2c1.21-1.32,3.08-3.74,4.18-4.51.88-.66,1.43-1.1,2.2-1.1,3.08,0,10.67,7.26,10.67,10.12,0,1.1-1,1.87-3.41,1.87Z"/><path class="cls-1" d="M196.21,503A139.8,139.8,0,0,1,215.9,513.6a7.21,7.21,0,0,1,3.41,5.72c0,2-1,3.52-2.75,3.52-1.32,0-2.86-.77-4.73-2.64a74.2,74.2,0,0,0-18.48-13.31C181,522.95,166,529.55,162.22,529.55c-1.76,0-2.64-1-2.64-2.09,0-1.43,1.43-3.19,4.07-3.63,2-.33,12-2.31,24.53-19.47a107.69,107.69,0,0,0-30.25-8.25C153.75,502.05,143.2,516,134.62,516c-4,0-6.16-3-6.16-6.6,0-8.36,11.77-17,26.07-17H155C168.05,473.57,171.9,461,171.9,460.7s0-.44-.22-.44-.33.11-.55.22c-8.8,5.39-13,5.5-14.08,5.5-.44,0-7.59-.33-7.59-6.49,0-1.76.55-2.42,1.54-2.42a8.29,8.29,0,0,1,2.64.77A17.54,17.54,0,0,0,161,459.6a17.74,17.74,0,0,0,8.25-2.31c1.43-.77,1.76-1.54,2.75-2.53a3.07,3.07,0,0,1,2-.66c.44,0,7.92,1.21,7.92,3.85,0,1.1-1.1,2.09-2.31,3.08a8.23,8.23,0,0,0-2.09,2.64c-3.19,5.28-6.93,12.54-11.88,20.57-1.76,2.86-3.52,5.72-5.39,8.58a126.55,126.55,0,0,1,30.58,7.92c4-5.72,4.95-7.26,4.95-8.69,0-2.2-2.31-3.41-5.61-3.41-1.65-.11-2.42-.88-2.42-1.76,0-1.76,3.3-2.86,5.39-2.86a5.74,5.74,0,0,1,2.53.55c8,5.06,8.25,5.28,8.25,6.82,0,1.76-2.09,3.3-3.41,5.28Zm-61.59,4.29a2.49,2.49,0,0,0,2.53,2.75c2.75,0,7.26-3.41,15.51-14.3C141.55,496,134.62,503.48,134.62,507.33Z"/><path class="cls-1" d="M319.28,534.06c.11-2.31.11-4.95.11-7.81H254.06l.22,7.59c.11,2.2-2.09,3.08-3.74,3.08a2.8,2.8,0,0,1-3.08-2.75v-.22c.44-7.81.88-17.6.88-24.86,0-1.54-.11-3-.11-4.29a36,36,0,0,0-.66-6.6,8.07,8.07,0,0,1-.44-1.76c0-.44.33-.66,1.1-.66,1.32,0,10.45.88,10.45,3.41,0,1.1-1.32,2.2-2.86,2.86s-1.76,1.76-1.76,14.41v5.28h29.59c.22-12.65.55-26.62.55-39.38H260.55c.11,1.54.11,3,.11,4.4.11,2-2.09,3.08-3.74,3.08a2.59,2.59,0,0,1-2.86-2.64v-.33c.33-7.7.77-15.95.77-22.66a48.45,48.45,0,0,0-.88-10.67,8.32,8.32,0,0,1-.33-1.87c0-.44.22-.66,1-.66,3.3,0,10.56,1.21,10.56,3.41,0,1.1-1.32,2.2-2.86,2.86s-1.87,1.32-1.87,13.31c0,2.31.11,4.84.11,7.26H284.3c0-7.15-.22-31.24-1.43-36.62a8.06,8.06,0,0,1-.44-1.76c0-.44.33-.55,1.21-.55,3.3,0,11.44.77,11.44,3.41,0,1-1.21,2.09-3.08,2.75-1.32.66-2,1.54-2,32.78H312.9c0-16.06-.22-19.91-1.21-24.09a9.9,9.9,0,0,1-.44-1.76c0-.66.44-.88,1.76-.88,1.65,0,10.23.77,10.23,3.08,0,1-1.43,2.2-3.08,3-1.21.55-1.54.66-1.54,6.16,0,6.27.44,15.73.77,23.21.11,2.2-2.31,3.19-3.74,3.19a2.62,2.62,0,0,1-2.86-2.75v-4.62H290c0,12.76.11,26.62.33,39.38H319.5c0-16.72-.44-20.13-1.21-23.21a9.84,9.84,0,0,1-.44-1.76c0-.66.44-.88,1.76-.88.88,0,10.23.55,10.23,3.08,0,1-1.43,2.2-3.08,3-1.32.55-1.54,1.43-1.54,6.49,0,6.93.55,17.93.88,25.3.11,1.65-1.21,3.19-3.74,3.19-1.65,0-3.08-.77-3.08-2.75Z"/><path class="cls-1" d="M381.64,525.7c12.43,0,27.83-12.65,29.26-25.63a8.94,8.94,0,0,1-8.69,6.16,12.65,12.65,0,0,1-12.65-12.76c0-5.28,3.3-10.12,11.77-10.12a18.2,18.2,0,0,1,6,.88c0-3.08.11-6.16.11-8.14,0-1.65,0-3.19.11-4.73-14.41,1.76-28.82,5.06-32.67,6.49a23.13,23.13,0,0,1-7.48,1.65,7,7,0,0,1-5.72-2.64c-2.31-2.64-5.28-5.94-5.28-9.79,0-.22,0-3.19,2-3.19a2.44,2.44,0,0,1,1.76.88c3.19,3.41,5.72,8.58,10.56,8.58a8.48,8.48,0,0,0,1.65-.22c9.79-2.2,22.88-4.51,35.2-5.94v-1.65c0-9.9,0-12.65-8.36-14-1.21-.22-2.75-.88-2.75-2.09s2-3.3,4.95-3.3c2.09,0,8.8,3,10.45,3.74,1.87.88,2.31,2,2.31,3.3a20.51,20.51,0,0,1-.55,3.3,98.87,98.87,0,0,0-1.1,10.12c5.28-.55,10.34-1,14.74-1.1.44,0,.88-.22.88-.55a.8.8,0,0,0-.44-.66c-5.28-2.86-5.28-2.86-5.28-3.85a1.68,1.68,0,0,1,1.87-1.65,4.32,4.32,0,0,1,1.54.33c4.4,1.76,8.8,4.4,13.31,5.5,9.13,2,9.79,4.51,9.79,5.72a3.22,3.22,0,0,1-3.41,3,4.5,4.5,0,0,1-1.21-.11,67.78,67.78,0,0,0-20-2.86c-3.74,0-7.81.22-12,.55-.11,1.65-.22,3.52-.22,5.39L411.77,487a16.64,16.64,0,0,1,4.84,11.66c0,11.88-11.22,27.61-33.87,32.56-5.5,1.21-7.59-.22-7.59-1.76s2.42-3.74,5.94-3.74Zm19.91-38.5c-5.06,0-7.15,3-7.15,5.94a7.79,7.79,0,0,0,7.7,7.7c4.18,0,5.06-3.08,5.06-11.77A8.75,8.75,0,0,0,401.54,487.2Z"/></g></g></svg>