<svg xmlns="http://www.w3.org/2000/svg" viewBox="0 0 893.5 240.46"><defs><style>.cls-1{fill:#fff;}</style></defs><title>アセット 1</title><g id="レイヤー_2" data-name="レイヤー 2"><g id="レイヤー1"><path class="cls-1" d="M97,12.29a3.68,3.68,0,0,0-.62.1C106.89,26.66,127.31,46,147.72,51.45c.42.1.52.52.52,1,0,.94-.42,2.19-.94,2.19-1.15,0-7.19.52-9.69,2.29a1.76,1.76,0,0,1-1,.31c-3.23,0-25.41-16.25-42.91-42.08-20.31,31.66-48,48.64-50.41,48.64a3,3,0,0,1-2.71-2.5,1.09,1.09,0,0,1,.52-.94C62.52,47.7,82.21,22.81,88.35,11a21.64,21.64,0,0,0,1.88-5.73c.1-.62.21-.94.52-.94C92,4.37,101,7.92,101,10.73c0,.94-1,1.56-3,1.56ZM81,90.62c-8.54,0-20.41.73-25.1,1.25-2.29.21-6.56-4.79-6.56-6.56a.55.55,0,0,1,.63-.62H50c3.65.52,13.64,1.15,22.71,1.46.21-5,.31-10.42.31-15.31,0-13.12-.83-16.77-1-17.39a5.14,5.14,0,0,1-.31-1.56c0-.42.21-.62.94-.62,4.37,0,10.31,1.77,10.31,3.44,0,.94-1.15,1.88-2.92,2.5-1.46.52-1.67,6.46-1.67,29.16H91.06c.1-8.23.31-20,.31-29.89,0-11-.21-16-1-20.41a8.88,8.88,0,0,1-.42-1.56c0-.52.31-.62,1.15-.62,3.65,0,10.42,1.15,10.42,3,0,.94-1.15,2-2.92,2.6-1.35.42-1.46,2.19-1.77,20.62h7.5a3.83,3.83,0,0,0,3.65-1.77c3.54-4.27,4.37-5.21,5.42-5.21,2.71,0,9.17,6.56,9.17,9.27,0,1-.73,1.67-2.71,1.67H96.69c0,3.85-.1,7.92-.1,11.77s.1,7.4.1,10.52h19.48c2.4,0,3.12-.52,4.27-1.87a52.67,52.67,0,0,1,3.85-4.27c.94-.62,1.46-1,2.08-1,2.81,0,10.1,7.08,10.1,9.69,0,1-.83,1.77-3.23,1.77Z"/><path class="cls-1" d="M219.82,66.66c10.62,9.58,28.23,17.19,47.5,17.81.63,0,.83.63.83,1.35a2.09,2.09,0,0,1-1.25,2.08c-1,.21-7.81,1.77-10,3.65a2.2,2.2,0,0,1-1.35.52c-2.6,0-22.91-6.77-37.29-21.87,0,7.92.21,16.56.52,22.91.1,2-2,3-3.65,3-1.46,0-2.81-.73-2.81-2.4v-.31c.52-5.94.83-14.37,1-22.39C197.42,88.53,167,95.2,166.7,95.2a2.16,2.16,0,0,1-2.08-2.08,1.26,1.26,0,0,1,.83-1.25c17.08-5.42,34.16-14.06,45.31-25.21h-4.17c-8.23,0-18.75.52-23.44.94-2.08.21-6-4.06-6-5.83a.49.49,0,0,1,.52-.52h.21a274.56,274.56,0,0,0,29.58,1.56h6.15V55.2h-5.73a118.93,118.93,0,0,0-16.46,1c-2.19.21-5.52-4-5.52-5.62a.38.38,0,0,1,.42-.42h.21a152.57,152.57,0,0,0,22.19,1.25h4.9c0-.52-.1-1-.1-1.35a34,34,0,0,0-.31-5.83h-7.81c-8.23,0-13.85.52-19,.83-2.92.21-6-4.9-6-5.83,0-.31.1-.52.52-.52h.21a227.66,227.66,0,0,0,25.21,1.67A9.11,9.11,0,0,1,205,38.33a21.24,21.24,0,0,0-6.46-7.5.42.42,0,0,1-.21-.42c0-.73,1.25-1.77,2.19-2h-2.19A129.24,129.24,0,0,0,177.43,30c-1.87.42-6-4.17-6-6.15,0-.42.21-.62.73-.62h.1c13,1,19.06,1.25,26.66,1.25h7.6c.1-2.19.1-5.42.1-8.33,0-7-.1-8.33-.94-12.71,0-.21-.1-.52-.1-.73s.1-.62.73-.62h.42c7,1.25,8.54,1.56,8.54,2.81,0,.83-.94,1.67-2.19,2.4a2.65,2.65,0,0,0-1.67,2.6c0,1.15-.1,10.1-.1,14.58H220V10a37.73,37.73,0,0,0-.83-6.56c0-.21-.1-.52-.1-.83s.1-.52.73-.52c.1,0,8.85.94,8.85,2.92,0,.73-.83,1.56-2.19,2.29a2.72,2.72,0,0,0-1.56,2.6c-.1,1.15-.1,10.1-.1,14.58h2.81c6.15-8.85,8.65-12.5,9.58-16.67.21-.52.42-.83.83-.83,1.35,0,7.92,4.58,7.92,6.67,0,.83-.83,1.35-2,1.35-.31,0-.62-.1-.94-.1a4.67,4.67,0,0,0-1.15-.1,1.89,1.89,0,0,0-1.67.83c-1.56,1.77-5.21,6.15-7.81,8.85H244A3.42,3.42,0,0,0,247,23c.1-.1,3.85-5.31,5.73-5.31,2.4,0,8.85,5.94,8.85,9,0,1-.73,1.77-2.6,1.77H228.15c1,.42,6.35,3,6.35,4.79,0,.73-.83,1.25-2.81,1.25h-1c-.94,0-1.25.52-1.87,1.15l-4.69,4.79h9.69c1.67,0,2.29-.62,3.33-1.67,4-4,4.27-4.17,5-4.17,2.71,0,8.65,5.31,8.65,7.92,0,1-.83,1.77-3.23,1.77H221.07a1.06,1.06,0,0,1,.52.83c0,.52-.73,1.15-2.08,1.67-.94.42-1,.83-1,1.77a15,15,0,0,1-.1,2.92h10.83c1.67,0,1.87-.42,2.92-1.35s2-2.19,3.12-3.12c.63-.52.94-.83,1.46-.83,1.25,0,8.23,4.06,8.23,7.4,0,1-.83,1.67-3.23,1.67H218.36c-.1,2.29-.1,4.79-.1,7.6h20.31c1.77,0,2.19-.52,3.33-1.56s2.4-2.81,3.54-3.75a2.5,2.5,0,0,1,1.77-.83c2.19,0,9,4.9,9,8.23,0,1-.83,1.77-3.33,1.77Zm-24.16-45.2a29.59,29.59,0,0,0-8-9.79.79.79,0,0,1-.42-.73,2.78,2.78,0,0,1,2.5-2.19c.52,0,11.87,5.52,11.87,11.35,0,2.08-1.35,3.75-2.92,3.75C197.63,23.85,196.59,23.23,195.65,21.46Zm5.21,7c.83.31,10.52,5.42,10.52,10.1a3.6,3.6,0,0,1-.52,1.88h8.23a52.44,52.44,0,0,0,6.87-12Z"/><path class="cls-1" d="M330.65,49.16C332,48.64,343.46,45,347.42,45c2.4,0,3.12,1.25,3.12,2.5,0,3.33-3.65,4.79-8.33,5.31-3.65.42-8.12,1-10.73,1.56-7.08,1.46-25.1,8.85-25.1,18.85,0,8.85,14.58,10.52,21.66,10.52a68.34,68.34,0,0,0,13.44-1.35,13.75,13.75,0,0,0,4.79-2,12.57,12.57,0,0,1,5.83-1.56c3.44,0,4.69,1.67,4.69,3.12,0,5.31-14.89,7.4-25.52,7.4-20.83,0-29.58-7.92-29.58-15.73,0-10.94,16.25-19,22.39-21.66-4-1.46-6.46-5.62-6.46-12.39,0-5.42,1.67-10.73,2.5-16.14a5.08,5.08,0,0,0,.1-1.25c0-4.69-4.48-6.35-8.12-8.23-.94-.52-1.35-1-1.35-1.56,0-1.25,2-2.29,4.27-2.29,3.85,0,11.77,6.25,11.77,9.58,0,1.46-.73,3-1.25,5.42-1.15,5.1-2.81,10.31-2.92,15.52s1.67,8.54,7.29,8.54Z"/><path class="cls-1" d="M414.95,82c0,6.56-6.67,10.21-10,10.21a1.89,1.89,0,0,1-1.67-.94c-1.56-2-5.83-2.6-8.85-3.23-.52-.1-.73-.73-.73-1.46,0-1.15.52-2.5,1.35-2.5h.1c1.87.31,5.21,1.25,8.12,1.25s5.73-.94,5.83-4.58l.21-26.35-12.08,5.52c-.83.42-1,2.5-2.19,2.5-1.87,0-5.73-5.73-5.73-6.67,0-.31.21-.42.52-.52,4.48-.73,6.15-1.15,19.48-6.25,0-5.62-.1-11.25-.1-16.46-3.65.21-8.65.83-11.67,1.15-2.19.31-5.52-4.79-5.52-6.25a.38.38,0,0,1,.42-.42h.1c3.85.52,11.46,1.35,16.67,1.46,0-5.1-.1-9.69-.1-13.23a102.82,102.82,0,0,0-.62-10.52c0-.21-.1-.42-.1-.62,0-.83.42-.83,1-.83,0,0,5.21.42,8.12,1.77.83.42,1.46,1,1.46,1.67,0,.83-.83,1.77-3.12,2.71-1.15.52-1.46.63-1.46,19.16h.94c1.67,0,2.08-.42,3-1.56s2-3,2.71-3.75a2.15,2.15,0,0,1,1.46-.73c1.77,0,7.08,4.9,7.08,8.23,0,.94-.73,1.67-2.5,1.67H414.32V47.29c3.85-1.67,8-3.44,12.39-5.83a1.13,1.13,0,0,1,.52-.1,1.94,1.94,0,0,1,1.56,1.15c5,.42,16.46.83,21,.83h10.83c1.25,0,1.77-.73,2.6-1.46a3.48,3.48,0,0,1,2.19-1.15c1,0,6.56,3.65,6.56,5.52,0,.83-.62,1.56-2.19,2.08S467.44,49,467,50a74.91,74.91,0,0,1-12.5,21.87c8,7.08,20.21,12.71,38,13.54.62,0,.83.62.83,1.25,0,.94-.52,2.08-1.25,2.19A25.36,25.36,0,0,0,483,92.6a3,3,0,0,1-1.46.31s-16.77-2.08-30.73-17.08c-16.67,16.46-40.52,19.58-40.73,19.58-1,0-2.19-1.67-2.19-2.81a1.15,1.15,0,0,1,.94-1.25c17.29-3.54,29.68-10.73,38.43-19.69a56.71,56.71,0,0,1-9-16.87,10.28,10.28,0,0,0-.94,1.56,75.25,75.25,0,0,0-3.85,7.5c-.31,1-.21,3.44-1.77,3.44s-6.15-3.65-6.15-4.58c0-.21.1-.31.52-.62,5-3.23,9.89-10.1,9.89-11.67,0-.62-.21-1-.21-1.67v-.21a1.32,1.32,0,0,1,.1-.62,29,29,0,0,0-3.85.42h-.1c-1,0-2.81-1.67-4-3.33-4.48,2.71-9.06,5.31-13.64,7.6.1,10.94.31,21.46.63,28.85ZM480,17.08c0,.94-.31,7.08-.31,7.92,0,1.46.31,2,1.87,2.92,1.46.73,2.19,1.56,2.19,2.81,0,2.4-3.54,5.62-16.67,5.62-6.25,0-11-.62-11-8.54l.21-13.75c0-1.46-.52-2-1.87-2h-9.27c-.73.31-1,.62-1,1.15v2.08A26.37,26.37,0,0,1,426.2,41a2.87,2.87,0,0,1-2.5-2.5,1.15,1.15,0,0,1,.63-1c10.1-5.52,14.27-11.87,14.27-21.77a29.7,29.7,0,0,0-1.46-9.89V5.42c0-.31.1-.73.83-.73,1.15,0,4.17,1.15,7.6,3.54h8.54c1.35,0,2.08-1.15,2.71-1.87a2.68,2.68,0,0,1,2-1c1.25,0,7.29,3.23,7.29,5.83,0,.83-.83,1.56-2.6,2.4-2.08.73-2.08,1.15-2.08,9,0,7.19.21,8.54,6.25,8.54,5.42,0,6.67-.31,7.6-4.69.42-2.19.63-6.67,1-9.58,0-.73.83-1.15,1.67-1.15,1,0,2.08.52,2.08,1.35ZM449,47.39c-2,0-4.69.1-7.29.21a3.91,3.91,0,0,1,.1,1.15c0,.62-.31,1-.31,2,0,.21.1.42.1.73a41.08,41.08,0,0,0,9,16.46c6.77-8.54,10.73-18.75,10.73-20.1,0-.31-.21-.42-.73-.42Z"/><path class="cls-1" d="M561.08,87.6a7.17,7.17,0,0,1-2.6-.62,2.44,2.44,0,0,0-1.15-.21,5.48,5.48,0,0,0-1.77.42c-16.67,7-36.77,9.27-37.29,9.27-1.46,0-2.4-1.56-2.4-2.81a1,1,0,0,1,.83-1.15c19.79-3,36.14-9.27,39.16-13.12a.75.75,0,0,1,.62-.42c.94,0,6.35,5.21,6.35,7.29C562.85,87.07,562.22,87.6,561.08,87.6Zm2.81-71.24A99.33,99.33,0,0,1,552,27.08a2.9,2.9,0,0,1,1.56,2.5,1.2,1.2,0,0,1-.62,1.15c-10.52,4.79-18,6.67-25.31,9.06-.31.1-.83,1.77-1.25,2.29a1.26,1.26,0,0,1-.94.62c-1.67,0-5.73-6.25-5.73-7.5,0-.52.52-.62.94-.62,2,0,15.62-2.29,27.71-6.67-.73-.42-1.35-1-1.35-1.67a1,1,0,0,1,.42-.83C563.58,11.56,565.77,4.69,567,.73c.21-.52.52-.73.83-.73s8.75,2.71,8.75,5.1c0,.83-1,1.67-4,1.67h-.31a2,2,0,0,0-1.87,1.15c-.83,1.35-1.87,2.81-3,4.37h25.62c1,0,1.87-.83,2.81-1.87.73-.73,1.25-1.25,2.08-1.25,1.15,0,9,3.85,9,6.46,0,1.35-1.35,2.6-4.9,2.92s-6.77,4.58-10.21,8.12a2.83,2.83,0,0,1-1.77.63c-1.35,0-2.71-.83-2.71-1.77a1.13,1.13,0,0,1,.31-.73c2.4-3,5.21-6.67,5.21-7.92,0-.31-.21-.52-.73-.52ZM546,21.87A7.05,7.05,0,0,1,541.6,20c-3.12-2.4-11.87-6-15.94-7.08a1.23,1.23,0,0,1-.94-1.25A2.68,2.68,0,0,1,527,9.06c.63,0,21.77,2.4,21.77,10.1A2.65,2.65,0,0,1,546,21.87Zm3.75,53.85v1.46c0,1.56-2,2.5-3.75,2.5-1.46,0-2.71-.62-2.71-2v-.31a121.22,121.22,0,0,0,1.46-19.58c0-5.21-.21-9.69-.31-10.73a110.82,110.82,0,0,1-16.46,3,2.16,2.16,0,0,1-2.19-2.29,1.52,1.52,0,0,1,1.35-1.67,116.68,116.68,0,0,0,17-3.33,9.19,9.19,0,0,0-.21-1.77v-.42c0-.31.1-.42.42-.42a2.59,2.59,0,0,1,.83.1c.73.31,1.67.63,2.92,1.25,4.58-1.56,21.14-7.4,21.14-20a8.41,8.41,0,0,0-.1-1.67c0-.62.31-.83,1.35-.83,2.29,0,8.75.83,8.75,2.81,0,.73-.83,1.46-2.81,1.77a3.12,3.12,0,0,0-1,.42c4.9,10.62,22.91,15.73,41.66,16,.73,0,.94.52.94,1.25s-.42,1.88-.94,2a18.59,18.59,0,0,0-8.44,3.12c-.42.31-.62.73-1.35.73-2.5,0-25.83-5.1-33.64-18.44-2.29,4.69-7.5,10.21-18,14.58H579.1c2,0,2-.62,3.12-1.46.73-.52,1.15-.94,1.87-.94,1,0,7.29,2.71,7.29,4.58,0,.73-.83,1.56-2.81,2.29-1.67.42-1.77,1.67-1.77,9.17,0,5.62.42,12,1,19.69v.1C587.85,78,585.76,79,584,79c-1.35,0-2.5-.52-2.5-1.77v-.1a5.5,5.5,0,0,0,.1-1.35Zm32.18-19.27H549.73c-.1,2.19-.1,4.06-.1,5.83h32.29Zm-32.29,9.37v6.46H581.7c.1-2,.1-4.27.1-6.46Zm32.29-17.71c0-.62-.21-1.15-1.77-1.15H551.29c-.1.1-.21.21-.31.21a2.13,2.13,0,0,0-1.25,2.08v3.65h32.18Zm20.52,46.56a9.39,9.39,0,0,1-4.79-1.77c-6.77-4.37-17.29-7.29-25.93-8.85a1.25,1.25,0,0,1-1-1.35c0-1.15.83-2.5,1.88-2.5,4.37,0,20.1,2.71,28.33,6.25,3.23,1.35,4.58,3.65,4.58,5.42A2.74,2.74,0,0,1,602.43,94.68Z"/><path class="cls-1" d="M692.94,35.2a74.56,74.56,0,0,0,7.92,18.44c4.79-2.6,15.21-9.17,18.33-13,.31-.42.52-.52.73-.52s.42.1.83.42c1.46,1.35,5.21,5.42,5.21,7.5,0,.94-.62,1.46-1.67,1.46a6.27,6.27,0,0,1-2.92-.83,1.55,1.55,0,0,0-.94-.21,3.88,3.88,0,0,0-1.87.73c-4.37,2.4-11.35,5.62-15.73,7.6,7.6,11.14,19.58,21.87,38,25,.42.1.52.52.52,1,0,.94-.52,2.19-1,2.19-2.6.21-7.81,1.67-10,3.23a2.49,2.49,0,0,1-1.25.42,4.44,4.44,0,0,1-1.15-.21C707,78.85,693.25,52.7,689.4,37l-.94.21a2.85,2.85,0,0,0-2,.73,75.15,75.15,0,0,1-6.67,5.52c10.1,6.25,17.6,20.52,17.6,33.23,0,13.64-6,17.19-15,18.23-.31,0-.62.1-.83.1-.73,0-.83-.31-1.67-.83-2.4-1.67-7.5-2.19-11.25-2.92a1.6,1.6,0,0,1-1.25-1.77c0-1.25.83-2.81,2.08-2.81.1,0,.31.1.42.1a48.24,48.24,0,0,0,11.77,1.87c5.21,0,10.21-2,10.21-13a34.74,34.74,0,0,0-1.77-10.94c-2.5.31-3.23.52-4,1.46-9.9,10.1-22,20.94-47.5,29.27-.1,0-.31.1-.42.1-1.25,0-2.29-1.56-2.29-2.71a1.05,1.05,0,0,1,.73-1.15c31.66-10.52,47.08-30.41,47.5-32.08.1-.52.31-.73.73-.73A14.1,14.1,0,0,1,688.25,60,62,62,0,0,0,685,54.27a6.32,6.32,0,0,1-2.71.83,2.41,2.41,0,0,0-1.87.73c-16.56,14.48-34.68,21.25-36,21.25s-2.29-1.77-2.29-2.92c0-.52.1-.83.52-1,22.6-8.54,34.89-21.14,35.1-23a.81.81,0,0,1,.83-.73,24.11,24.11,0,0,1,3.65,1.35,26.94,26.94,0,0,0-5.62-4.79C661.69,56.35,649.3,61.24,648,61.24c-1,0-2.08-1.67-2.08-2.81a1.2,1.2,0,0,1,.63-1.15c19-7.29,34.68-21.35,35-22.08a135.6,135.6,0,0,0-17.81,1.15c-1.35.21-5.62-3.54-5.62-5.94,0-.42.21-.62.73-.62h.1c12,1,17.29,1.35,24.58,1.35h16a3.42,3.42,0,0,0,3-1.46c2.5-3.44,4-4.58,4.58-4.58,1.15,0,4.06,2.19,5.31,3.23,3.85-6,4.27-6.77,4.27-7.08s-.52-.42-1.15-.42H659.3c-3.23,10.52-9.17,15.31-12.19,15.31a3.32,3.32,0,0,1-3.23-3.54,5.2,5.2,0,0,1,2.81-4.37c5.21-2.92,9-10.21,9.69-17.08.1-.83,1-1.15,2-1.15,1.25,0,2.6.52,2.6,1.46a44.65,44.65,0,0,1-.62,5.21h24.79c0-7.6,0-8.12-1.15-13.85,0-.21-.1-.52-.1-.73,0-.42.1-.62.83-.62s10.52.73,10.52,3c0,1-1.35,2.19-3.33,3-.83.31-1,.52-1.15,2.92-.1,1-.1,3.65-.21,6.25h25.73c1.77,0,2-.62,3-1.67.83-.83,1.35-1.25,2.08-1.25,1.35,0,9.37,3.85,9.37,7.19,0,1.46-1.56,2.71-5.52,2.81s-7.4,4.58-10,7.29c-.1,0-.1.1-.21.1a5,5,0,0,1,1,2.5c0,.94-.73,1.56-2.71,1.56Z"/><path class="cls-1" d="M802,27.5a7.3,7.3,0,0,1,2.4,5.31c0,5.42-15,29.58-23.44,39.48-1.87,2.29-3.44,3.75-5.31,3.75-3,0-11.87-6.77-11.87-18.75,0-16.35,17.29-33.64,41.35-33.64,21.35,0,34.58,13.64,34.58,28.43,0,9.69-5.62,19.48-16.77,25.52-10.1,5.31-32.81,9.58-32.81,4,0-1.46,2.08-3,5.42-3a14.22,14.22,0,0,1,2,.21A17.31,17.31,0,0,0,800,79c9.48,0,33.23-6.87,33.23-27,0-13.44-11.14-24.48-29.37-24.48ZM769.21,56.14c0,8,4.9,12.81,6.77,12.81C778.9,69,799.1,38,799.1,30.31a4.05,4.05,0,0,0-.73-2.4C780.56,30.1,769.21,44.58,769.21,56.14Z"/><path class="cls-1" d="M30.41,202.23c0,8-1.15,35.21-18.75,35.93a2.72,2.72,0,0,1-2.29-.83c-1.15-1.77-3.85-3.33-8.44-4.69A1.52,1.52,0,0,1,0,231.08c0-1.15.73-2.4,1.77-2.4h.31c4.48,1.25,7.81,2.08,10.52,2.08,3.44,0,5.83-1.56,7.92-5.83,3.54-7.19,4.27-15.52,4.27-23.12,0-1.67-.1-3.33-.1-4.9,0-1.15-.21-1.56-1.77-1.56H9.17c-.1,1-.21,2.29-.42,3.65-.21,1.77-2.29,2.81-4.17,2.81-1.46,0-2.71-.62-2.71-2a1.77,1.77,0,0,1,.1-.73c1.67-6.56,4.17-16,4.17-26.66a15.37,15.37,0,0,0-.1-2.19c0-.52,0-1.25.63-1.25,1.25,0,7,4,7,4H24.79c0-5.42,0-11.56-.1-14.58,0-.62-.1-1.67-1.67-1.67H19.48c-3.75,0-6.46.63-10.31,1-2,.31-5.94-4.58-5.94-5.94a.48.48,0,0,1,.52-.42H4c7.19.94,9.79,1.35,15.52,1.35h2.71c2.08,0,1.88-1,3-2.29.62-.52.94-.83,1.35-.83,1.15,0,7.71,3.44,7.71,5.62,0,.83-.73,1.67-2.71,2.6-.73.42-1.46.1-1.56,3.54,0,2.4.42,11.67.83,16.46.1,1.77-1.77,3-3.65,3a2.29,2.29,0,0,1-2.5-2.5v-1.46H13.12c-.1,0-.21.1-.31.1-.94.31-1.46.83-1.46,1.46-.83,5.62-1.15,8.85-1.67,12.71H22.81c1.35,0,1.77-.73,2.5-1.56s1.35-1.25,2.08-1.25c2.19,0,8,4.17,8,6q0,1.41-2.81,2.5c-1.46.63-2.19,1.25-2.19,3.54ZM76.14,214c0-.62.1-1.25.1-1.77H64c.1,5.52.21,10.73.21,14.27,5.42-.52,10.62-1.15,14.69-1.77a46.16,46.16,0,0,0-6.35-4.79,1.27,1.27,0,0,1-.62-1,2.45,2.45,0,0,1,2.29-2.08c.83,0,19.79,9.58,19.79,16.77,0,2-1.25,3.44-2.92,3.44-1.46,0-3.12-1-4.69-3.75a36,36,0,0,0-4.06-5.21c-9.58,2.08-33.85,5.83-44.06,7.08-.94.1-1.25,2.4-2.6,2.4-2.5,0-5.83-7.19-5.83-8.33,0-.42.21-.52.52-.52h.31c1.25.1,2.6.21,4.06.21,5.42,0,13.12-.73,24.06-1.77.1-3.65.1-9.06.1-14.89H47.29c0,1.56.1,3,.1,4.27.1,1.56-1.46,3.12-3.65,3.12a2.27,2.27,0,0,1-2.5-2.4v-.42c.52-4.27.73-12.6.73-18.44a61.4,61.4,0,0,0-.83-11.77v-.31c0-.42.1-.62.42-.62a26.4,26.4,0,0,1,8.85,4.27h8.33c0-2.29-.1-4.17-.1-5.21a50.32,50.32,0,0,0-.73-6,9.36,9.36,0,0,1-.42-1.67c0-.52.31-.62,1.15-.62.52,0,9.58.42,9.58,3.12,0,1-1.25,2.08-2.81,2.81-1.35.63-1.35,2.08-1.35,7.6h9.58c2.08,0,1.56-.42,3.12-2.19a2.14,2.14,0,0,1,1.67-.94c.83,0,7.4,3.23,7.4,5.31,0,.83-.83,1.56-2.71,2.5-1,.52-1.67,1.15-1.67,3.44,0,4,.63,12.81.73,15.31A3.82,3.82,0,0,1,78.53,217c-1.25,0-2.4-.83-2.4-2.81ZM34.68,170.25a23.57,23.57,0,0,0,4.37.31c2.71,0,6.25-.21,10.21-.52,1.35-3.54,5.62-15.21,5.83-21.25.1-1-.1-1.46.73-1.46,2.6,0,9.17,3.12,9.17,5.1,0,.94-1.35,1.67-3.12,1.87-1.15.1-1.56.42-2.4,2.19-1.25,2.92-3.75,9.17-5.83,13.12,7.6-.73,15.83-1.77,22.19-2.81a42.33,42.33,0,0,0-8-6.15,1,1,0,0,1-.42-.83,2.66,2.66,0,0,1,2.29-2.5c1.25,0,14,7.4,17.5,12.5a6.79,6.79,0,0,1,1.25,4c0,2.19-1.25,3.85-2.71,3.85-1.15,0-2.4-.83-3.54-2.92a23.88,23.88,0,0,0-3.12-4.58c-11.56,2.5-25.52,4.48-37.39,6.35-.83.1-1.25,2.29-2.4,2.29-2.08,0-5.31-6.87-5.31-8.23,0-.21.1-.31.42-.31ZM58.85,193.9H49l-.73.63a2.56,2.56,0,0,0-1,2.08v11.67H58.85Zm17.5,9.69c0-3.54,0-6.15-.1-8,0-.83-.21-1.67-1.67-1.67H64v14.37H76.35Z"/><path class="cls-1" d="M133.26,194.11c0,21.66,11.56,25.1,12.29,25.1s1.56-.83,2.4-2.5c2.71-5.31,5.62-11.77,9.58-18.85a2.21,2.21,0,0,1,2.08-1.25,2.16,2.16,0,0,1,2.19,2,3.09,3.09,0,0,1-.42,1.15c-4.27,6.46-8.23,18.54-8.23,20.73,0,1.25.73,1.77,1.35,3.23a3.89,3.89,0,0,1,.42,1.67c0,1.56-1.35,2.6-3.85,2.6-10.94,0-21.56-12.71-23-28.23-.42-4.27-.42-8.33-.42-12,0-1.25.1-2.5.1-3.65,0-3.12-.52-5.94-3.65-8.12a2.9,2.9,0,0,1-1.46-2.29,2.31,2.31,0,0,1,2.4-2.08c2.29,0,8.65,6,8.65,12.29,0,1.15-.21,2.4-.21,4.17S133.26,191.61,133.26,194.11Zm68.22,8.54c0,2.71-.83,6.35-3.44,6.35a5.88,5.88,0,0,1-2.81-1.15,4.64,4.64,0,0,0-2.6-.52,14.66,14.66,0,0,0-2.08.1c-2,.31-4.17.83-6,1.15-.21,0-.42.1-.62.1-1.25,0-1.87-.73-1.87-1.56a2,2,0,0,1,1.35-1.67c1.46-.42,6-1.46,9.17-2.4,1.88-.62,2.5-1.56,2.5-2.71,0-4-2.29-9.48-9.06-15.21a12.79,12.79,0,0,0-4.17-2.4c-1.46-.62-2.08-1.56-2.08-2.29a2.27,2.27,0,0,1,2.5-2,4.73,4.73,0,0,1,2.6.83c4.69,3.12,16.67,11,16.67,23.12Z"/><path class="cls-1" d="M247.51,211.19c-.94,0-1.56.63-2,1.67-5.73,12.5-13.85,21.87-15.94,21.87-1.15,0-2.5-1-2.5-2a.9.9,0,0,1,.31-.62c9.27-9.27,14.37-22.29,14.69-27,.1-.62.21-.83.52-.83,1.35,0,7.81,2.92,7.81,5.1,0,1-1.15,1.77-2.71,1.77ZM252,235.56c.1-5.42.31-15.62.31-24.37,0-10-.21-12.81-.52-15.31-5.1.83-10.1,1.56-13,2.08-.62.1-1.35,2-2.4,2-1.56,0-3.33-5.1-3.54-7,0-.1-.1-.21-.1-.31,0-.42.42-.42.83-.42a27.41,27.41,0,0,0,3.23.1c.21,0,4.37,0,10-.52,2.08-3.75,12.5-23.33,13.44-31,.21-.73.1-1.25.52-1.25,1.77,0,8.54,3.12,8.54,5.21,0,1-1,1.56-2.6,1.67-.94,0-1.67.21-2.5,1.67-3,6.15-8.75,16.56-12.81,23.33,4.37-.42,9-1,13-1.67a28.43,28.43,0,0,0-4.37-5,.77.77,0,0,1-.21-.62,2.54,2.54,0,0,1,2.19-2.19c.52,0,10.62,6.67,10.62,13,0,2.19-1.35,3.75-2.71,3.75-1,0-2.19-.83-2.81-3a17.57,17.57,0,0,0-.83-2.5l-7.19,1.46c.52.21.73.42.73.73s-.52.94-1.35,1.35a2.24,2.24,0,0,0-1.25,1.87c-.1,3.33-.1,7-.1,10.83,0,8.85.21,18.33.62,25.93a3.2,3.2,0,0,1-3.23,2.81,2.27,2.27,0,0,1-2.5-2.4Zm3.23-79.68c-2.19,6.15-6.35,15.73-8.44,20.1a9.47,9.47,0,0,1,1.77,1.77,6.23,6.23,0,0,1,1.46,4c0,1.87-.94,3.33-2.29,3.33-.83,0-1.77-.62-2.71-2.08a26.29,26.29,0,0,0-9.48-8.85.85.85,0,0,1-.42-.83c0-.94.83-2.19,1.77-2.19a28.8,28.8,0,0,1,6.67,2.81c6.15-16.14,6.67-22.81,6.77-24.89.1-.83.1-1,.63-1,.1,0,8.65,1.77,8.65,4.37,0,.94-.94,1.67-2.71,1.87C255.95,154.21,255.53,154.84,255.22,155.88Zm13.44,67.6c-1.77-5.52-5.21-12.6-8.85-16.46a1.13,1.13,0,0,1-.31-.73,2.66,2.66,0,0,1,2.4-2.19c2.08,0,12.6,12.92,12.6,18.44,0,2.5-1.35,4.27-2.81,4.27C270.63,226.81,269.49,225.87,268.66,223.48Zm19.69-58.74c-.62,0-.83.42-1.15.94-9.79,12.6-16.35,16.87-17.6,16.87a2.56,2.56,0,0,1-2.19-2.4,1.06,1.06,0,0,1,.52-1c7.6-5.31,15.21-16.14,16-20,.1-.62.31-.94.73-.94,1.25,0,7.19,3.12,7.19,5.31,0,.94-1,1.35-2.29,1.35a3.54,3.54,0,0,1-1-.1Zm11.77,72.81c0,1.77-2,2.92-3.75,2.92-1.46,0-2.81-.73-2.81-2.5v-.1c.42-9.79.62-20.94.83-31.77h-2.92a149,149,0,0,0-18,1.15c-1.77.21-5.52-4.27-5.52-6.15,0-.31.1-.42.42-.42h.1c4.06.52,15.62,1.35,23.85,1.35h2.08c.1-5.31.1-10.52.1-15.52a98.71,98.71,0,0,0-12.81,1.25c-2.08.31-5.94-4.79-5.94-6.25,0-.31.1-.42.42-.42h.1c3.85.52,12.81,1.35,18.23,1.46,0-9.69-.1-18-.21-23.23a69.41,69.41,0,0,0-.62-9.58,11,11,0,0,1-.21-1.35c0-.62.31-.94,1-.94.94,0,9.58.83,9.58,3.33,0,.94-1.25,1.87-3.12,2.5-.94.31-1.15,1.25-1.15,2.71-.21,5.1-.21,14.89-.21,26.56h3.65a3.91,3.91,0,0,0,3.54-1.67c1.46-1.77,3.65-4.17,4.79-4.17,2.5,0,8.12,5.94,8.12,8.12,0,1-.73,1.67-2.71,1.67H299.59V202H312.3a3.88,3.88,0,0,0,3.65-1.67c4.17-4.58,4.58-5,5.52-5,2.81,0,8.65,5.94,8.65,9,0,1-.73,1.77-2.81,1.77H299.59c.1,11,.31,22.19.52,31.35ZM320,174.63c-3.33-4.79-9.27-8.65-16.14-12.29a1.36,1.36,0,0,1-.73-1.25,2.58,2.58,0,0,1,2.19-2.5c.83,0,14.27,5.73,19.27,10.94a6,6,0,0,1,1.87,4.27c0,1.87-1.15,3.44-2.71,3.44C322.71,177.23,321.36,176.5,320,174.63Z"/><path class="cls-1" d="M394,215.35c0-1.77,1.35-3.44,1.46-5.31,0-.73.1-1.56.1-2.4-11.35,9.27-12.29,12.19-12.29,14.58,0,5.31,8.12,7.4,14.37,7.4,5.31,0,7.4-.73,11-2.6a12.18,12.18,0,0,1,5.73-1.56c3.33,0,4.27,1.77,4.27,2.71,0,4.06-11.14,6.56-19.48,6.56-12.5,0-20.83-5.62-20.83-11.67,0-6.35,7.29-12.92,17.29-20.41,0-1.87-.1-3.44-.1-4.48,0-5.73-2-8.85-4.9-8.85-4.37,0-13.54,9-16.46,17.6-1.46,5.1-4.9,5.1-5.21,5.1-1.77,0-2.81-1.77-2.81-4.06a8,8,0,0,1,2.4-5.52c5.83-5.73,11-14.79,16-26a35,35,0,0,1-11,2c-10.21,0-12-7.81-12-9.17,0-.94.42-1.87,1.46-1.87a4,4,0,0,1,1.87.63c5.1,2.92,7.92,5.52,12.92,5.52,2.29,0,4.48-.42,8.85-2,3.33-7.5,3.65-9.17,3.65-10.1,0-2.08-1.87-3.23-5.73-3.75-1.15-.1-2-.62-2-1.35s1.25-3.12,4.58-3.12c2.08,0,7.5,2.6,7.6,2.71a3.42,3.42,0,0,1,1.77,3c0,1.56-1,3.23-1.87,4.9v.1c1,.1,2,.21,2.92.21a28.86,28.86,0,0,0,4.06-.31h.42c1.77,0,3.23.73,3.23,2,0,2-3.23,4.37-15.83,9-2.6,5.31-5.62,11.14-8.33,15.94-.1.31-.31.63-.31.73h.1a1.79,1.79,0,0,0,.42-.31c2.08-2.08,5.83-5.62,10.31-5.62,5,0,8.75,4.48,8.75,12.5v1c8.12-5.94,17.29-11.87,25.62-16.77.83-.52,1.25-1,1.25-1.35s-.42-.62-1.35-.62a17.26,17.26,0,0,0-4.06.83,1.13,1.13,0,0,1-.52.1,1.51,1.51,0,0,1-1.46-1.56c0-1.87,4.58-3.33,8.54-3.33,4.79,0,10.94,2,10.94,5.83,0,1.46-1.35,2.19-3,2.81s-2.71.73-5,1.56c-9.79,3.65-21.25,10.31-30.93,17.39,0,4.69-.1,10.52-.1,12.19-.21,3.33-1.77,5.21-3.33,5.21s-3-2-3-5.52Zm-2-45.72c.83-.31,4.79-1.77,4.79-2.29s-3-1.15-3.12-1.15Z"/><path class="cls-1" d="M493.29,233.79c-8.44,0-21.56.83-26.25,1.35-2.5.21-6.46-5-6.46-6.67,0-.31.1-.52.52-.52h.1c5,.62,23.12,1.67,33,1.67h10.1c.21-7.08.31-14.69.42-22.39h-2.5c-3.75,0-16.25.73-20.1,1.25-2,.21-5.62-4.48-5.62-6.15a.49.49,0,0,1,.52-.52h.1c4.27.52,18.44,1.46,23.85,1.46h3.85c0-6.56.1-13.12.1-19.27H483.09c-5.31,9.37-13.12,19.89-15.42,19.89-1.35,0-2.71-1.15-2.71-2.19a1.18,1.18,0,0,1,.31-.83c9.48-10.1,20.41-33.23,21.56-41.87.1-.73.1-1,.63-1,2,0,10,3.23,10,5.31,0,1-1.35,1.67-3.54,1.87-1.25.21-2,1.35-2.5,2.5-1.67,3.65-3.65,7.81-5.94,12.08H505c-.1-8.54-.21-16.14-.42-21.87a27.84,27.84,0,0,0-.83-6.46c-.1-.73-.31-1.25-.31-1.56,0-.52.31-.62,1.15-.62,1.15,0,10.62.63,10.62,3,0,.94-1.15,2-2.92,2.6-1.35.42-1.56,2.5-1.87,24.89h15.31a3.75,3.75,0,0,0,3.65-1.77c2.92-3.65,4.37-5.31,5.83-5.31,3.65,0,9.27,7.4,9.27,9.58,0,1-.73,1.77-2.81,1.77H510.38c-.1,6.25-.1,12.71-.1,19.27h9.79a3.7,3.7,0,0,0,3.54-1.67c4-4.9,4.69-5.21,5.52-5.21,2.4,0,9.06,6.15,9.06,9.17,0,1-.73,1.67-2.71,1.67H510.27l.21,22.39h25a4.48,4.48,0,0,0,4.17-1.87,40.61,40.61,0,0,1,4-4.27c.83-.62,1.35-1,2.08-1,2.92,0,10.1,6.87,10.1,9.58,0,1-.94,1.77-3.23,1.77Z"/><path class="cls-1" d="M645.11,208.27a132.4,132.4,0,0,1,18.64,10,6.82,6.82,0,0,1,3.23,5.42c0,1.87-.94,3.33-2.6,3.33-1.25,0-2.71-.73-4.48-2.5a70.27,70.27,0,0,0-17.5-12.6c-11.67,15.21-25.94,21.46-29.48,21.46-1.67,0-2.5-.94-2.5-2,0-1.35,1.35-3,3.85-3.44,1.87-.31,11.35-2.19,23.23-18.44a102,102,0,0,0-28.64-7.81c-4,5.62-14,18.85-22.08,18.85-3.75,0-5.83-2.81-5.83-6.25,0-7.92,11.14-16.14,24.69-16.14h.42c12.39-17.81,16-29.68,16-30s0-.42-.21-.42-.31.1-.52.21c-8.33,5.1-12.29,5.21-13.33,5.21-.42,0-7.19-.31-7.19-6.15,0-1.67.52-2.29,1.46-2.29a7.85,7.85,0,0,1,2.5.73,16.61,16.61,0,0,0,7,1.67,16.8,16.8,0,0,0,7.81-2.19,9.66,9.66,0,0,0,2.6-2.4,2.91,2.91,0,0,1,1.87-.62c.42,0,7.5,1.15,7.5,3.65,0,1-1,2-2.19,2.92a7.8,7.8,0,0,0-2,2.5c-3,5-6.56,11.87-11.25,19.48-1.67,2.71-3.33,5.42-5.1,8.12a119.84,119.84,0,0,1,29,7.5c3.75-5.42,4.69-6.87,4.69-8.23,0-2.08-2.19-3.23-5.31-3.23-1.56-.1-2.29-.83-2.29-1.67,0-1.67,3.12-2.71,5.1-2.71a5.43,5.43,0,0,1,2.4.52c7.6,4.79,7.81,5,7.81,6.46,0,1.67-2,3.12-3.23,5Zm-58.33,4.06a2.35,2.35,0,0,0,2.4,2.6c2.6,0,6.87-3.23,14.69-13.54C593.34,201.6,586.78,208.69,586.78,212.33Z"/><path class="cls-1" d="M768.53,237.64c.1-2.19.1-4.69.1-7.4H706.77l.21,7.19c.1,2.08-2,2.92-3.54,2.92a2.65,2.65,0,0,1-2.92-2.6v-.21c.42-7.4.83-16.67.83-23.54,0-1.46-.1-2.81-.1-4.06a34.12,34.12,0,0,0-.62-6.25,7.63,7.63,0,0,1-.42-1.67c0-.42.31-.62,1-.62,1.25,0,9.89.83,9.89,3.23,0,1-1.25,2.08-2.71,2.71S706.77,209,706.77,221v5h28c.21-12,.52-25.21.52-37.29H712.91c.1,1.46.1,2.81.1,4.17.1,1.87-2,2.92-3.54,2.92a2.45,2.45,0,0,1-2.71-2.5V193c.31-7.29.73-15.1.73-21.46a45.88,45.88,0,0,0-.83-10.1,7.87,7.87,0,0,1-.31-1.77c0-.42.21-.62.94-.62,3.12,0,10,1.15,10,3.23,0,1-1.25,2.08-2.71,2.71s-1.77,1.25-1.77,12.6c0,2.19.1,4.58.1,6.87h22.5c0-6.77-.21-29.58-1.35-34.68a7.63,7.63,0,0,1-.42-1.67c0-.42.31-.52,1.15-.52,3.12,0,10.83.73,10.83,3.23,0,.94-1.15,2-2.92,2.6-1.25.63-1.87,1.46-1.87,31h21.66c0-15.21-.21-18.85-1.15-22.81a9.38,9.38,0,0,1-.42-1.67c0-.62.42-.83,1.67-.83,1.56,0,9.69.73,9.69,2.92,0,.94-1.35,2.08-2.92,2.81-1.15.52-1.46.63-1.46,5.83,0,5.94.42,14.89.73,22,.1,2.08-2.19,3-3.54,3a2.48,2.48,0,0,1-2.71-2.6v-4.37H740.83c0,12.08.1,25.21.31,37.29h27.6c0-15.83-.42-19.06-1.15-22a9.36,9.36,0,0,1-.42-1.67c0-.62.42-.83,1.67-.83.83,0,9.69.52,9.69,2.92,0,.94-1.35,2.08-2.92,2.81-1.25.52-1.46,1.35-1.46,6.15,0,6.56.52,17,.83,24,.1,1.56-1.15,3-3.54,3-1.56,0-2.92-.73-2.92-2.6Z"/><path class="cls-1" d="M829.75,229.73c11.77,0,26.35-12,27.71-24.27a8.46,8.46,0,0,1-8.23,5.83,12,12,0,0,1-12-12.08c0-5,3.12-9.58,11.14-9.58a17.23,17.23,0,0,1,5.73.83c0-2.92.1-5.83.1-7.71,0-1.56,0-3,.1-4.48-13.64,1.67-27.29,4.79-30.93,6.15a21.91,21.91,0,0,1-7.08,1.56,6.59,6.59,0,0,1-5.42-2.5c-2.19-2.5-5-5.62-5-9.27,0-.21,0-3,1.88-3a2.31,2.31,0,0,1,1.67.83c3,3.23,5.42,8.12,10,8.12a8.05,8.05,0,0,0,1.56-.21c9.27-2.08,21.66-4.27,33.33-5.62v-1.56c0-9.37,0-12-7.92-13.23-1.15-.21-2.6-.83-2.6-2s1.87-3.12,4.69-3.12c2,0,8.33,2.81,9.89,3.54a3.15,3.15,0,0,1,2.19,3.12,19.49,19.49,0,0,1-.52,3.12,93.34,93.34,0,0,0-1,9.58c5-.52,9.79-.94,14-1,.42,0,.83-.21.83-.52a.75.75,0,0,0-.42-.62c-5-2.71-5-2.71-5-3.65a1.59,1.59,0,0,1,1.77-1.56,4.09,4.09,0,0,1,1.46.31c4.17,1.67,8.33,4.17,12.6,5.21,8.65,1.88,9.27,4.27,9.27,5.42a3,3,0,0,1-3.23,2.81,4.27,4.27,0,0,1-1.15-.1,64.19,64.19,0,0,0-19-2.71c-3.54,0-7.4.21-11.35.52-.1,1.56-.21,3.33-.21,5.1l-.31,10.1a15.76,15.76,0,0,1,4.58,11c0,11.25-10.62,26.14-32.08,30.83-5.21,1.15-7.19-.21-7.19-1.67s2.29-3.54,5.62-3.54Zm18.85-36.45c-4.79,0-6.77,2.81-6.77,5.62a7.38,7.38,0,0,0,7.29,7.29c4,0,4.79-2.92,4.79-11.14A8.29,8.29,0,0,0,848.61,193.27Z"/></g></g></svg>