<?xml version="1.0" encoding="utf-8"?>
<!-- Generator: Adobe Illustrator 23.0.6, SVG Export Plug-In . SVG Version: 6.00 Build 0)  -->
<svg version="1.1" id="レイヤー_1" xmlns="http://www.w3.org/2000/svg" xmlns:xlink="http://www.w3.org/1999/xlink" x="0px"
	 y="0px" viewBox="0 0 419.2 65.8" style="enable-background:new 0 0 419.2 65.8;" xml:space="preserve">
<style type="text/css">
	.st0{fill:#FFFFFF;}
</style>
<title>copy-english</title>
<g>
	<path class="st0" d="M14.9,16.8c0.9-0.7,1.5-1.7,1.7-3h5.2c-0.2,1.7-0.8,3.3-1.7,4.6c-0.9,1.4-2.1,2.4-3.6,3.1s-3.1,1.1-5,1.1
		c-2,0-3.9-0.5-5.5-1.4c-1.7-0.9-2.9-2.2-3.9-3.8C1.2,15.9,0.8,14,0.8,12c0-2,0.5-3.8,1.4-5.5c0.9-1.6,2.2-2.9,3.9-3.8
		c1.6-0.9,3.5-1.4,5.5-1.4c1.8,0,3.5,0.4,5,1.1c1.5,0.7,2.7,1.8,3.6,3.1c0.9,1.4,1.5,2.9,1.7,4.6h-5.2c-0.3-1.3-0.9-2.3-1.7-3
		s-2-1.1-3.3-1.1c-1.1,0-2.1,0.3-2.9,0.8C7.8,7.4,7.1,8.1,6.6,9c-0.5,0.9-0.7,1.9-0.7,3c0,1.1,0.2,2.1,0.7,3c0.5,0.9,1.1,1.6,2,2.1
		c0.8,0.5,1.8,0.8,2.9,0.8C12.9,17.9,14,17.5,14.9,16.8z"/>
	<path class="st0" d="M33.9,12.6c-0.8,0.3-1.5,0.8-2.1,1.3v8.3H27V7.7h4.9v1.6c1.4-1.2,3.1-1.8,5-1.8V12
		C35.7,12.1,34.7,12.3,33.9,12.6z"/>
	<path class="st0" d="M55.5,16.3L55.5,16.3l-10.3,0.1c0.2,0.7,0.6,1.3,1.1,1.7c0.5,0.4,1.3,0.6,2.1,0.6c0.5,0,0.9-0.1,1.3-0.3
		c0.4-0.2,0.7-0.4,0.9-0.8h4.8c-0.3,1.5-1.2,2.7-2.4,3.6c-1.3,0.9-2.8,1.3-4.6,1.3c-1.6,0-2.9-0.3-4.2-1c-1.2-0.6-2.1-1.6-2.8-2.7
		c-0.7-1.2-1-2.5-1-3.9c0-1.5,0.3-2.8,1-3.9c0.6-1.1,1.5-2,2.7-2.7s2.5-1,4.1-1c1.4,0,2.7,0.3,3.8,0.9c1.1,0.6,2,1.5,2.7,2.6
		c0.6,1.1,1,2.4,1,3.8C55.6,15.4,55.6,15.9,55.5,16.3z M46.2,11.7c-0.5,0.4-0.9,1-1.1,1.8h5.9c-0.1-0.8-0.5-1.4-1-1.8
		c-0.5-0.4-1.1-0.6-1.9-0.6C47.4,11.1,46.7,11.3,46.2,11.7z"/>
	<path class="st0" d="M71.1,22.2v-0.8c-1.2,0.7-2.5,1.1-4,1.1c-1.3,0-2.5-0.3-3.6-1c-1.1-0.7-2-1.6-2.6-2.7c-0.7-1.2-1-2.4-1-3.8
		c0-1.4,0.3-2.7,1-3.9c0.6-1.2,1.5-2.1,2.6-2.7c1.1-0.7,2.3-1,3.6-1c1.5,0,2.8,0.4,4,1.1V7.7H76v14.5H71.1z M71.1,17.2v-4.5
		c-0.8-0.9-1.8-1.4-3-1.4c-1,0-1.8,0.4-2.4,1c-0.7,0.7-1,1.6-1,2.6s0.3,1.9,1,2.6c0.6,0.7,1.5,1,2.4,1
		C69.3,18.5,70.3,18.1,71.1,17.2z"/>
	<path class="st0" d="M90.9,22.5c-0.6,0.1-1.3,0.2-2.1,0.2c-1.2,0-2.2-0.3-3.1-0.8s-1.6-1.3-2.1-2.3c-0.5-1-0.7-2.1-0.7-3.4v-4.3
		h-2.8V7.7h2.8v-5h4.9v5h5v4.2h-5V16c0,0.7,0.2,1.3,0.6,1.6c0.4,0.4,1,0.6,1.7,0.6c0.5,0,1.3-0.1,2.6-0.4l0.5,4.1
		C92.3,22.2,91.5,22.4,90.9,22.5z"/>
	<path class="st0" d="M98.4,4.6c-0.5-0.5-0.8-1.2-0.8-2c0-0.8,0.3-1.4,0.8-2c0.6-0.5,1.2-0.8,2-0.8c0.8,0,1.5,0.3,2,0.8
		c0.6,0.5,0.8,1.2,0.8,2c0,0.8-0.3,1.4-0.8,2s-1.2,0.8-2,0.8C99.6,5.4,98.9,5.1,98.4,4.6z M98,22.2V7.7h4.9v14.5H98z"/>
	<path class="st0" d="M120.6,8c0.9,0.5,1.7,1.3,2.2,2.3c0.5,1,0.8,2.2,0.8,3.6v8.3h-4.9v-7.5c0-1-0.2-1.8-0.7-2.3
		c-0.5-0.5-1.1-0.8-1.9-0.8c-0.5,0-0.9,0.1-1.4,0.4s-0.9,0.6-1.3,1.1v9.1h-4.9V7.7h4.9v1c1.2-1,2.5-1.4,4-1.4
		C118.6,7.2,119.7,7.5,120.6,8z"/>
	<path class="st0" d="M143.1,25.8c-0.7,1.1-1.6,1.9-2.8,2.5c-1.2,0.6-2.5,0.9-4,0.9c-1.5,0-2.8-0.3-3.9-0.8
		c-1.2-0.5-2.1-1.3-2.8-2.2c-0.7-1-1.1-2.1-1.2-3.3h4.8c0.1,0.7,0.4,1.2,1,1.6s1.2,0.6,2.1,0.6c0.9,0,1.6-0.3,2.1-0.8
		s0.8-1.3,0.8-2.2v-1.4c-1.2,0.7-2.5,1-4,1c-1.3,0-2.5-0.3-3.6-0.9c-1.1-0.6-2-1.5-2.6-2.6c-0.7-1.1-1-2.3-1-3.6
		c0-1.4,0.3-2.7,1-3.9c0.6-1.1,1.5-2,2.6-2.7c1.1-0.6,2.3-0.9,3.6-0.9c1.5,0,2.8,0.4,4,1.1V7.7h4.9V22
		C144.1,23.5,143.8,24.7,143.1,25.8z M139.2,16.5v-4c-0.8-0.9-1.8-1.4-3-1.4c-1,0-1.8,0.3-2.5,1c-0.6,0.7-1,1.5-1,2.5
		c0,0.5,0.2,1.1,0.5,1.5c0.3,0.5,0.7,0.9,1.2,1.2c0.5,0.3,1.1,0.5,1.7,0.5C137.4,17.8,138.4,17.4,139.2,16.5z"/>
	<path class="st0" d="M166.6,22.2v-0.8c-1.2,0.7-2.5,1.1-4,1.1c-1.3,0-2.5-0.3-3.6-1c-1.1-0.7-2-1.6-2.6-2.7c-0.7-1.2-1-2.4-1-3.8
		c0-1.4,0.3-2.7,1-3.9c0.6-1.2,1.5-2.1,2.6-2.7c1.1-0.7,2.3-1,3.6-1c1.5,0,2.8,0.4,4,1.1V7.7h4.9v14.5H166.6z M166.6,17.2v-4.5
		c-0.8-0.9-1.8-1.4-3-1.4c-1,0-1.8,0.4-2.4,1c-0.7,0.7-1,1.6-1,2.6s0.3,1.9,1,2.6c0.6,0.7,1.5,1,2.4,1
		C164.8,18.5,165.8,18.1,166.6,17.2z"/>
	<path class="st0" d="M203.5,13.5c0.6,0.9,1,1.9,1,3.1c0,1.7-0.7,3.1-2,4.1c-1.3,1-3.1,1.5-5.4,1.5h-10.7V1.8h10.1
		c2.2,0,3.9,0.5,5.2,1.5s1.9,2.3,1.9,4c0,1-0.3,1.9-0.8,2.7c-0.5,0.9-1.2,1.4-2.1,1.7C202,12,202.9,12.6,203.5,13.5z M195.8,10.1
		c0.9,0,1.7-0.2,2.2-0.6c0.5-0.4,0.8-0.9,0.8-1.6c0-0.6-0.2-1.1-0.7-1.5c-0.5-0.3-1.2-0.5-2.2-0.5h-4.2v4.2H195.8z M198.8,17.4
		c0.5-0.4,0.8-0.9,0.8-1.5c0-0.6-0.3-1.1-0.8-1.4c-0.5-0.3-1.2-0.5-2.2-0.5h-5v4h5C197.5,18,198.3,17.8,198.8,17.4z"/>
	<path class="st0" d="M220.4,8.3c1.2,0.6,2.1,1.6,2.8,2.7c0.7,1.2,1,2.5,1,3.9c0,1.5-0.3,2.8-1,4c-0.7,1.2-1.6,2.1-2.8,2.8
		c-1.2,0.7-2.5,1-4,1s-2.8-0.3-4-1c-1.2-0.7-2.1-1.6-2.8-2.8c-0.7-1.2-1-2.5-1-4c0-1.4,0.3-2.7,1-3.9c0.7-1.2,1.6-2.1,2.8-2.7
		s2.5-1,4-1S219.2,7.7,220.4,8.3z M218.7,17.5c0.6-0.7,0.9-1.5,0.9-2.5c0-1-0.3-1.8-0.9-2.4s-1.4-1-2.4-1c-1,0-1.8,0.3-2.4,1
		c-0.6,0.7-0.9,1.5-0.9,2.4c0,1,0.3,1.8,0.9,2.5c0.6,0.7,1.4,1,2.4,1C217.3,18.5,218.1,18.1,218.7,17.5z"/>
	<path class="st0" d="M241,8c0.9,0.5,1.7,1.3,2.2,2.3c0.5,1,0.8,2.2,0.8,3.6v8.3H239v-7.5c0-1-0.2-1.8-0.7-2.3
		c-0.5-0.5-1.1-0.8-1.9-0.8c-0.5,0-0.9,0.1-1.4,0.4s-0.9,0.6-1.3,1.1v9.1h-4.9V7.7h4.9v1c1.2-1,2.5-1.4,4-1.4
		C238.9,7.2,240,7.5,241,8z"/>
	<path class="st0" d="M259.7,22.2v-0.8c-1.2,0.7-2.5,1.1-4,1.1c-1.3,0-2.5-0.3-3.6-1c-1.1-0.7-2-1.6-2.6-2.7c-0.7-1.2-1-2.4-1-3.9
		c0-1.4,0.3-2.7,1-3.8c0.6-1.2,1.5-2.1,2.6-2.7c1.1-0.7,2.3-1,3.6-1c1.5,0,2.8,0.4,4,1.1V0.9h4.9v21.3H259.7z M259.7,17.2v-4.5
		c-0.8-0.9-1.8-1.4-3-1.4c-1,0-1.8,0.4-2.4,1c-0.7,0.7-1,1.6-1,2.6c0,1,0.3,1.9,1,2.6c0.6,0.7,1.5,1.1,2.4,1.1
		C257.9,18.6,258.9,18.1,259.7,17.2z"/>
	<path class="st0" d="M297.2,13.5c0.6,0.9,1,1.9,1,3.1c0,1.7-0.7,3.1-2,4.1c-1.3,1-3.1,1.5-5.4,1.5h-10.7V1.8h10.1
		c2.2,0,3.9,0.5,5.2,1.5s1.9,2.3,1.9,4c0,1-0.3,1.9-0.8,2.7c-0.5,0.9-1.2,1.4-2.1,1.7C295.7,12,296.6,12.6,297.2,13.5z M289.5,10.1
		c0.9,0,1.7-0.2,2.2-0.6c0.5-0.4,0.8-0.9,0.8-1.6c0-0.6-0.2-1.1-0.7-1.5c-0.5-0.3-1.2-0.5-2.2-0.5h-4.2v4.2H289.5z M292.5,17.4
		c0.5-0.4,0.8-0.9,0.8-1.5c0-0.6-0.3-1.1-0.8-1.4c-0.5-0.3-1.2-0.5-2.2-0.5h-5v4h5C291.2,18,292,17.8,292.5,17.4z"/>
	<path class="st0" d="M317.2,16.3L317.2,16.3l-10.3,0.1c0.2,0.7,0.6,1.3,1.1,1.7c0.5,0.4,1.3,0.6,2.1,0.6c0.5,0,0.9-0.1,1.3-0.3
		c0.4-0.2,0.7-0.4,0.9-0.8h4.8c-0.3,1.5-1.2,2.7-2.4,3.6c-1.3,0.9-2.8,1.3-4.6,1.3c-1.6,0-2.9-0.3-4.2-1c-1.2-0.6-2.1-1.6-2.8-2.7
		c-0.7-1.2-1-2.5-1-3.9c0-1.5,0.3-2.8,1-3.9c0.6-1.1,1.5-2,2.7-2.7s2.5-1,4.1-1c1.4,0,2.7,0.3,3.8,0.9c1.1,0.6,2,1.5,2.7,2.6
		c0.6,1.1,1,2.4,1,3.8C317.3,15.4,317.3,15.9,317.2,16.3z M307.9,11.7c-0.5,0.4-0.9,1-1.1,1.8h5.9c-0.1-0.8-0.5-1.4-1-1.8
		c-0.5-0.4-1.1-0.6-1.9-0.6C309,11.1,308.4,11.3,307.9,11.7z"/>
	<path class="st0" d="M331.6,22.5c-0.6,0.1-1.3,0.2-2.1,0.2c-1.2,0-2.2-0.3-3.1-0.8s-1.6-1.3-2.1-2.3c-0.5-1-0.7-2.1-0.7-3.4v-4.3
		h-2.8V7.7h2.8v-5h4.9v5h5v4.2h-5V16c0,0.7,0.2,1.3,0.6,1.6c0.4,0.4,1,0.6,1.7,0.6c0.5,0,1.3-0.1,2.6-0.4l0.5,4.1
		C333,22.2,332.2,22.4,331.6,22.5z"/>
	<path class="st0" d="M350.7,22.2l-2.3-7.5l-2.3,7.5h-4.4l-5-14.5h5.1l2.3,7.8l2.5-7.8h3.8l2.5,7.7l2.3-7.7h5.1l-5,14.5H350.7z"/>
	<path class="st0" d="M377.9,16.3L377.9,16.3l-10.3,0.1c0.2,0.7,0.6,1.3,1.1,1.7c0.5,0.4,1.3,0.6,2.1,0.6c0.5,0,0.9-0.1,1.3-0.3
		c0.4-0.2,0.7-0.4,0.9-0.8h4.8c-0.3,1.5-1.2,2.7-2.4,3.6c-1.3,0.9-2.8,1.3-4.6,1.3c-1.6,0-2.9-0.3-4.2-1c-1.2-0.6-2.1-1.6-2.8-2.7
		c-0.7-1.2-1-2.5-1-3.9c0-1.5,0.3-2.8,1-3.9c0.6-1.1,1.5-2,2.7-2.7s2.5-1,4.1-1c1.4,0,2.7,0.3,3.8,0.9c1.1,0.6,2,1.5,2.7,2.6
		c0.6,1.1,1,2.4,1,3.8C378,15.4,378,15.9,377.9,16.3z M368.6,11.7c-0.5,0.4-0.9,1-1.1,1.8h5.9c-0.1-0.8-0.5-1.4-1-1.8
		c-0.5-0.4-1.1-0.6-1.9-0.6C369.8,11.1,369.1,11.3,368.6,11.7z"/>
	<path class="st0" d="M397.4,16.3L397.4,16.3L387,16.4c0.2,0.7,0.6,1.3,1.1,1.7c0.5,0.4,1.3,0.6,2.1,0.6c0.5,0,0.9-0.1,1.3-0.3
		c0.4-0.2,0.7-0.4,0.9-0.8h4.8c-0.3,1.5-1.2,2.7-2.4,3.6c-1.3,0.9-2.8,1.3-4.6,1.3c-1.6,0-2.9-0.3-4.2-1c-1.2-0.6-2.1-1.6-2.8-2.7
		c-0.7-1.2-1-2.5-1-3.9c0-1.5,0.3-2.8,1-3.9c0.6-1.1,1.5-2,2.7-2.7s2.5-1,4.1-1c1.4,0,2.7,0.3,3.8,0.9c1.1,0.6,2,1.5,2.7,2.6
		c0.6,1.1,1,2.4,1,3.8C397.5,15.4,397.4,15.9,397.4,16.3z M388,11.7c-0.5,0.4-0.9,1-1.1,1.8h5.9c-0.1-0.8-0.5-1.4-1-1.8
		c-0.5-0.4-1.1-0.6-1.9-0.6C389.2,11.1,388.6,11.3,388,11.7z"/>
	<path class="st0" d="M414.2,8c0.9,0.5,1.7,1.3,2.2,2.3c0.5,1,0.8,2.2,0.8,3.6v8.3h-4.9v-7.5c0-1-0.2-1.8-0.7-2.3
		c-0.5-0.5-1.1-0.8-1.9-0.8c-0.5,0-0.9,0.1-1.4,0.4s-0.9,0.6-1.3,1.1v9.1h-4.9V7.7h4.9v1c1.2-1,2.5-1.4,4-1.4
		C412.2,7.2,413.3,7.5,414.2,8z"/>
	<path class="st0" d="M1.2,58.2V37.8h5.1v20.4H1.2z"/>
	<path class="st0" d="M24.1,44c0.9,0.5,1.7,1.3,2.2,2.3c0.5,1,0.8,2.2,0.8,3.6v8.3h-4.9v-7.5c0-1-0.2-1.8-0.7-2.3
		c-0.5-0.5-1.1-0.8-1.9-0.8c-0.5,0-0.9,0.1-1.4,0.4s-0.9,0.6-1.3,1.1v9.1H12V43.7h4.9v1c1.2-1,2.5-1.4,4-1.4
		C22.1,43.2,23.2,43.5,24.1,44z"/>
	<path class="st0" d="M36.6,58.2l-6.3-14.5h5.1l3.5,8.4l3.5-8.4h5.1l-6.3,14.5H36.6z"/>
	<path class="st0" d="M64.9,52.3L64.9,52.3l-10.3,0.1c0.2,0.7,0.6,1.3,1.1,1.7c0.5,0.4,1.3,0.6,2.1,0.6c0.5,0,0.9-0.1,1.3-0.3
		c0.4-0.2,0.7-0.4,0.9-0.8h4.8c-0.3,1.5-1.2,2.7-2.4,3.6c-1.3,0.9-2.8,1.3-4.6,1.3c-1.6,0-2.9-0.3-4.2-1c-1.2-0.7-2.1-1.6-2.8-2.7
		c-0.7-1.2-1-2.5-1-3.9s0.3-2.8,1-3.9c0.6-1.1,1.5-2,2.7-2.7c1.2-0.6,2.5-1,4.1-1c1.4,0,2.7,0.3,3.8,0.9c1.1,0.6,2,1.5,2.7,2.6
		c0.6,1.1,1,2.4,1,3.8C65,51.4,65,51.9,64.9,52.3z M55.6,47.7c-0.5,0.4-0.9,1-1.1,1.8h5.9c-0.1-0.8-0.5-1.4-1-1.8
		c-0.5-0.4-1.1-0.6-1.9-0.6C56.8,47.1,56.1,47.3,55.6,47.7z"/>
	<path class="st0" d="M74.1,54.6c0.5,0.3,1.1,0.4,1.9,0.4c0.6,0,1.1-0.1,1.5-0.3S78,54.4,78,54c0-0.2-0.1-0.5-0.4-0.6
		c-0.2-0.2-0.6-0.3-1.1-0.4l-2.9-0.5c-1.3-0.2-2.4-0.7-3.1-1.4c-0.8-0.7-1.1-1.7-1.1-3c0-1.5,0.6-2.7,1.8-3.6
		c1.2-0.9,2.8-1.3,4.7-1.3c1.8,0,3.4,0.4,4.7,1.2c1.3,0.8,2,2.1,2.1,3.8h-4.3c0-0.5-0.3-0.9-0.7-1.2c-0.5-0.3-1-0.4-1.7-0.4
		c-0.6,0-1.1,0.1-1.4,0.3c-0.3,0.2-0.5,0.5-0.5,0.8c0,0.6,0.5,1,1.5,1.1l2.7,0.5c3,0.6,4.5,2,4.5,4.4c0,1.6-0.6,2.8-1.9,3.7
		c-1.3,0.8-2.9,1.3-4.9,1.3c-2,0-3.7-0.5-5-1.4c-1.3-0.9-2-2.3-2.2-4.1l4.3,0C73.3,53.9,73.6,54.3,74.1,54.6z"/>
	<path class="st0" d="M97.1,58.5c-0.6,0.1-1.3,0.2-2.1,0.2c-1.2,0-2.2-0.3-3.1-0.8s-1.6-1.3-2.1-2.3c-0.5-1-0.7-2.1-0.7-3.4v-4.3
		h-2.8v-4.2h2.8v-5H94v5h5v4.2h-5V52c0,0.7,0.2,1.3,0.6,1.6s1,0.6,1.7,0.6c0.5,0,1.3-0.1,2.6-0.4l0.5,4.1
		C98.5,58.2,97.7,58.4,97.1,58.5z"/>
	<path class="st0" d="M114.9,44.3c1.2,0.7,2.1,1.6,2.8,2.7c0.7,1.2,1,2.5,1,3.9c0,1.5-0.3,2.8-1,4c-0.7,1.2-1.6,2.1-2.8,2.8
		c-1.2,0.7-2.5,1-4,1s-2.8-0.3-4-1s-2.1-1.6-2.8-2.8c-0.7-1.2-1-2.5-1-4c0-1.4,0.3-2.7,1-3.9c0.7-1.2,1.6-2.1,2.8-2.7
		c1.2-0.6,2.5-1,4-1S113.7,43.7,114.9,44.3z M113.2,53.5c0.6-0.7,0.9-1.5,0.9-2.5c0-1-0.3-1.8-0.9-2.4c-0.6-0.7-1.4-1-2.4-1
		c-1,0-1.8,0.3-2.4,1c-0.6,0.7-0.9,1.5-0.9,2.4c0,1,0.3,1.8,0.9,2.5c0.6,0.7,1.4,1,2.4,1C111.8,54.5,112.6,54.1,113.2,53.5z"/>
	<path class="st0" d="M130.3,48.6c-0.8,0.3-1.5,0.8-2.1,1.3v8.3h-4.9V43.7h4.9v1.6c1.4-1.2,3.1-1.8,5-1.8V48
		C132.1,48.1,131.1,48.3,130.3,48.6z"/>
	<path class="st0" d="M141.7,54.6c0.5,0.3,1.1,0.4,1.9,0.4c0.6,0,1.1-0.1,1.5-0.3s0.6-0.4,0.6-0.8c0-0.2-0.1-0.5-0.4-0.6
		c-0.2-0.2-0.6-0.3-1.1-0.4l-2.9-0.5c-1.3-0.2-2.4-0.7-3.1-1.4c-0.8-0.7-1.1-1.7-1.1-3c0-1.5,0.6-2.7,1.8-3.6
		c1.2-0.9,2.8-1.3,4.7-1.3c1.8,0,3.4,0.4,4.7,1.2c1.3,0.8,2,2.1,2.1,3.8H146c0-0.5-0.3-0.9-0.7-1.2c-0.5-0.3-1-0.4-1.7-0.4
		c-0.6,0-1.1,0.1-1.4,0.3c-0.3,0.2-0.5,0.5-0.5,0.8c0,0.6,0.5,1,1.5,1.1l2.7,0.5c3,0.6,4.5,2,4.5,4.4c0,1.6-0.6,2.8-1.9,3.7
		c-1.3,0.8-2.9,1.3-4.9,1.3c-2,0-3.7-0.5-5-1.4c-1.3-0.9-2-2.3-2.2-4.1l4.3,0C140.9,53.9,141.2,54.3,141.7,54.6z"/>
	<path class="st0" d="M175.8,58.2v-0.8c-1.2,0.7-2.5,1.1-4,1.1c-1.3,0-2.5-0.3-3.6-1c-1.1-0.7-2-1.6-2.6-2.7c-0.7-1.2-1-2.4-1-3.8
		c0-1.4,0.3-2.7,1-3.9c0.6-1.2,1.5-2.1,2.6-2.7c1.1-0.7,2.3-1,3.6-1c1.5,0,2.8,0.4,4,1.1v-0.8h4.9v14.5H175.8z M175.8,53.2v-4.5
		c-0.8-0.9-1.8-1.4-3-1.4c-1,0-1.8,0.3-2.4,1c-0.7,0.7-1,1.6-1,2.6c0,1,0.3,1.9,1,2.6c0.6,0.7,1.5,1,2.4,1
		C174.1,54.5,175.1,54.1,175.8,53.2z"/>
	<path class="st0" d="M198.4,44c0.9,0.5,1.7,1.3,2.2,2.3c0.5,1,0.8,2.2,0.8,3.6v8.3h-4.9v-7.5c0-1-0.2-1.8-0.7-2.3
		c-0.5-0.5-1.1-0.8-1.9-0.8c-0.5,0-0.9,0.1-1.4,0.4s-0.9,0.6-1.3,1.1v9.1h-4.9V43.7h4.9v1c1.2-1,2.5-1.4,4-1.4
		C196.4,43.2,197.4,43.5,198.4,44z"/>
	<path class="st0" d="M217.1,58.2v-0.8c-1.2,0.7-2.5,1.1-4,1.1c-1.3,0-2.5-0.3-3.6-1c-1.1-0.7-2-1.6-2.6-2.7c-0.7-1.2-1-2.5-1-3.9
		c0-1.4,0.3-2.7,1-3.8c0.6-1.2,1.5-2.1,2.6-2.7c1.1-0.7,2.3-1,3.6-1c1.5,0,2.8,0.4,4,1.1v-7.6h4.9v21.3H217.1z M217.1,53.2v-4.5
		c-0.8-0.9-1.8-1.4-3-1.4c-1,0-1.8,0.4-2.4,1.1c-0.7,0.7-1,1.5-1,2.5c0,1,0.3,1.9,1,2.6c0.6,0.7,1.5,1,2.4,1
		C215.3,54.6,216.3,54.1,217.1,53.2z"/>
	<path class="st0" d="M250.1,52.8c0.9-0.7,1.5-1.7,1.7-3h5.2c-0.2,1.7-0.8,3.3-1.7,4.6c-0.9,1.4-2.1,2.4-3.6,3.1
		c-1.5,0.7-3.1,1.1-5,1.1c-2,0-3.9-0.5-5.5-1.4c-1.7-0.9-2.9-2.2-3.9-3.8c-0.9-1.6-1.4-3.4-1.4-5.5c0-2,0.5-3.8,1.4-5.5
		c0.9-1.6,2.2-2.9,3.9-3.8c1.6-0.9,3.5-1.4,5.5-1.4c1.8,0,3.5,0.4,5,1.1c1.5,0.7,2.7,1.8,3.6,3.1c0.9,1.4,1.5,2.9,1.7,4.6h-5.2
		c-0.3-1.3-0.9-2.3-1.7-3c-0.9-0.7-2-1.1-3.3-1.1c-1.1,0-2.1,0.3-2.9,0.8c-0.9,0.5-1.5,1.2-2,2.1c-0.5,0.9-0.7,1.9-0.7,3
		s0.2,2.1,0.7,3c0.5,0.9,1.1,1.6,2,2.1c0.8,0.5,1.8,0.8,2.9,0.8C248.1,53.9,249.2,53.5,250.1,52.8z"/>
	<path class="st0" d="M273.2,44.3c1.2,0.7,2.1,1.6,2.8,2.7c0.7,1.2,1,2.5,1,3.9c0,1.5-0.3,2.8-1,4c-0.7,1.2-1.6,2.1-2.8,2.8
		c-1.2,0.7-2.5,1-4,1s-2.8-0.3-4-1s-2.1-1.6-2.8-2.8c-0.7-1.2-1-2.5-1-4c0-1.4,0.3-2.7,1-3.9c0.7-1.2,1.6-2.1,2.8-2.7
		c1.2-0.6,2.5-1,4-1S272,43.7,273.2,44.3z M271.5,53.5c0.6-0.7,0.9-1.5,0.9-2.5c0-1-0.3-1.8-0.9-2.4c-0.6-0.7-1.4-1-2.4-1
		c-1,0-1.8,0.3-2.4,1c-0.6,0.7-0.9,1.5-0.9,2.4c0,1,0.3,1.8,0.9,2.5c0.6,0.7,1.4,1,2.4,1C270.1,54.5,270.9,54.1,271.5,53.5z"/>
	<path class="st0" d="M302.9,44c0.9,0.5,1.6,1.3,2.2,2.3c0.5,1,0.8,2.2,0.8,3.6v8.3h-4.9v-7.5c0-1-0.2-1.8-0.7-2.3s-1.1-0.8-1.9-0.8
		c-0.8,0-1.6,0.4-2.2,1.2c0,0.5,0.1,0.8,0.1,1.1v8.3h-4.9v-7.5c0-1-0.2-1.8-0.7-2.3s-1.1-0.8-1.9-0.8c-0.8,0-1.5,0.4-2.2,1.3v9.3
		h-4.9V43.7h4.9v0.9c0.5-0.4,1.1-0.8,1.6-1c0.6-0.2,1.2-0.3,2-0.3c0.9,0,1.8,0.2,2.5,0.5c0.8,0.3,1.4,0.8,2,1.5
		c0.8-0.7,1.6-1.2,2.4-1.5c0.8-0.3,1.7-0.5,2.8-0.5C300.9,43.2,302,43.5,302.9,44z"/>
	<path class="st0" d="M323.7,44.3c1.1,0.7,2,1.6,2.6,2.7c0.6,1.2,1,2.5,1,3.9c0,1.4-0.3,2.7-1,3.8c-0.7,1.2-1.5,2.1-2.6,2.7
		c-1.1,0.7-2.3,1-3.6,1c-1.5,0-2.8-0.4-4-1.1V65h-4.9V43.7h4.9v0.8c1.2-0.7,2.5-1.1,4-1.1C321.4,43.3,322.6,43.7,323.7,44.3z
		 M321.6,53.5c0.6-0.7,1-1.5,1-2.6c0-1-0.3-1.9-1-2.6c-0.7-0.7-1.5-1-2.4-1c-1.2,0-2.2,0.5-3,1.4v4.5c0.8,0.9,1.8,1.3,3,1.3
		C320.1,54.5,320.9,54.2,321.6,53.5z"/>
	<path class="st0" d="M342.8,58.2v-0.8c-1.2,0.7-2.5,1.1-4,1.1c-1.3,0-2.5-0.3-3.6-1c-1.1-0.7-2-1.6-2.6-2.7c-0.7-1.2-1-2.4-1-3.8
		c0-1.4,0.3-2.7,1-3.9c0.6-1.2,1.5-2.1,2.6-2.7c1.1-0.7,2.3-1,3.6-1c1.5,0,2.8,0.4,4,1.1v-0.8h4.9v14.5H342.8z M342.8,53.2v-4.5
		c-0.8-0.9-1.8-1.4-3-1.4c-1,0-1.8,0.3-2.4,1c-0.7,0.7-1,1.6-1,2.6c0,1,0.3,1.9,1,2.6c0.6,0.7,1.5,1,2.4,1
		C341,54.5,342,54.1,342.8,53.2z"/>
	<path class="st0" d="M365.3,44c0.9,0.5,1.7,1.3,2.2,2.3c0.5,1,0.8,2.2,0.8,3.6v8.3h-4.9v-7.5c0-1-0.2-1.8-0.7-2.3
		c-0.5-0.5-1.1-0.8-1.9-0.8c-0.5,0-0.9,0.1-1.4,0.4s-0.9,0.6-1.3,1.1v9.1h-4.9V43.7h4.9v1c1.2-1,2.5-1.4,4-1.4
		C363.3,43.2,364.4,43.5,365.3,44z"/>
	<path class="st0" d="M374.1,40.6c-0.5-0.5-0.8-1.2-0.8-2s0.3-1.4,0.8-2c0.6-0.5,1.2-0.8,2-0.8c0.8,0,1.5,0.3,2,0.8s0.8,1.2,0.8,2
		s-0.3,1.4-0.8,2c-0.6,0.5-1.2,0.8-2,0.8C375.3,41.4,374.7,41.1,374.1,40.6z M373.7,58.2V43.7h4.9v14.5H373.7z"/>
	<path class="st0" d="M398.6,52.3L398.6,52.3l-10.3,0.1c0.2,0.7,0.6,1.3,1.1,1.7c0.5,0.4,1.3,0.6,2.1,0.6c0.5,0,0.9-0.1,1.3-0.3
		c0.4-0.2,0.7-0.4,0.9-0.8h4.8c-0.3,1.5-1.2,2.7-2.4,3.6c-1.3,0.9-2.8,1.3-4.6,1.3c-1.6,0-2.9-0.3-4.2-1c-1.2-0.7-2.1-1.6-2.8-2.7
		c-0.7-1.2-1-2.5-1-3.9s0.3-2.8,1-3.9c0.6-1.1,1.5-2,2.7-2.7c1.2-0.6,2.5-1,4.1-1c1.4,0,2.7,0.3,3.8,0.9c1.1,0.6,2,1.5,2.7,2.6
		c0.6,1.1,1,2.4,1,3.8C398.7,51.4,398.6,51.9,398.6,52.3z M389.2,47.7c-0.5,0.4-0.9,1-1.1,1.8h5.9c-0.1-0.8-0.5-1.4-1-1.8
		c-0.5-0.4-1.1-0.6-1.9-0.6C390.4,47.1,389.8,47.3,389.2,47.7z"/>
	<path class="st0" d="M407.7,54.6c0.5,0.3,1.1,0.4,1.9,0.4c0.6,0,1.1-0.1,1.5-0.3s0.6-0.4,0.6-0.8c0-0.2-0.1-0.5-0.4-0.6
		c-0.2-0.2-0.6-0.3-1.1-0.4l-2.9-0.5c-1.3-0.2-2.4-0.7-3.1-1.4c-0.8-0.7-1.1-1.7-1.1-3c0-1.5,0.6-2.7,1.8-3.6
		c1.2-0.9,2.8-1.3,4.7-1.3c1.8,0,3.4,0.4,4.7,1.2c1.3,0.8,2,2.1,2.1,3.8h-4.3c0-0.5-0.3-0.9-0.7-1.2c-0.5-0.3-1-0.4-1.7-0.4
		c-0.6,0-1.1,0.1-1.4,0.3c-0.3,0.2-0.5,0.5-0.5,0.8c0,0.6,0.5,1,1.5,1.1l2.7,0.5c3,0.6,4.5,2,4.5,4.4c0,1.6-0.6,2.8-1.9,3.7
		c-1.3,0.8-2.9,1.3-4.9,1.3c-2,0-3.7-0.5-5-1.4c-1.3-0.9-2-2.3-2.2-4.1l4.3,0C406.9,53.9,407.2,54.3,407.7,54.6z"/>
</g>
</svg>
