<svg xmlns="http://www.w3.org/2000/svg" viewBox="0 0 419.23 65.85"><defs><style>.cls-1{fill:#fff;}</style></defs><title>copy-english</title><g id="レイヤー_2" data-name="レイヤー 2"><g id="上のバー"><path class="cls-1" d="M20.57,5.71,16.14,8.25a5.66,5.66,0,0,0-5-2.8C7.75,5.45,5.27,8,5.27,11.59c0,3.94,2.71,6.15,5.84,6.15A6,6,0,0,0,16.23,15l4.15,2.94a10.73,10.73,0,0,1-9.22,4.69C4.62,22.58,0,18,0,11.59S4.62.61,11.16.61A10.55,10.55,0,0,1,20.57,5.71Z"/><path class="cls-1" d="M35.53,7.16l-.44,4.72a8,8,0,0,0-2.38-.39A2.41,2.41,0,0,0,30,14.17v8H25.27V7.34h4.54V9.05a4.39,4.39,0,0,1,4.06-2.12A6.18,6.18,0,0,1,35.53,7.16Z"/><path class="cls-1" d="M54.31,14.76a10.14,10.14,0,0,1-.09,1.47H44.15a3,3,0,0,0,3.18,2.38,4.94,4.94,0,0,0,3.24-1.3l3.06,2.85a9,9,0,0,1-6.54,2.44c-4.66,0-7.83-3.1-7.83-7.73s3.1-7.92,7.61-7.92S54.29,10.11,54.31,14.76ZM44.17,13.23h5.4a2.74,2.74,0,0,0-5.4,0Z"/><path class="cls-1" d="M74.45,22.19H69.86v-1.6a5.1,5.1,0,0,1-4.27,2c-4,0-6.9-3.45-6.9-7.84s2.94-7.81,6.92-7.81a5.1,5.1,0,0,1,4.25,2V7.34h4.59ZM63.57,14.76a3.18,3.18,0,1,0,6.34,0,3.18,3.18,0,1,0-6.34,0Z"/><path class="cls-1" d="M91.76,11.53H86.69v4.34c0,1.71.91,2.29,2.1,2.29a5.51,5.51,0,0,0,2.57-.92L93,20.93a8.47,8.47,0,0,1-5.27,1.65c-4,0-5.78-2.38-5.78-6.1V11.53H79.18V7.34H82V3h4.74V7.34h5.07Z"/><path class="cls-1" d="M111.61,14.76a10.14,10.14,0,0,1-.09,1.47H101.46a3,3,0,0,0,3.18,2.38,4.94,4.94,0,0,0,3.24-1.3l3.06,2.85a9,9,0,0,1-6.54,2.44c-4.66,0-7.83-3.1-7.83-7.73s3.1-7.92,7.61-7.92S111.6,10.11,111.61,14.76Zm-10.14-1.53h5.4a2.74,2.74,0,0,0-5.4,0Z"/><path class="cls-1" d="M142.71,5.69h-6.27v16.5h-5.06V5.69H125.1V1h17.6Z"/><path class="cls-1" d="M152,8.9a4.8,4.8,0,0,1,4.22-2,5.13,5.13,0,0,1,5.27,5.51v9.75h-4.74V14.12c0-1.76-.88-2.74-2.35-2.74-1.32,0-2.41.89-2.41,2.82v8h-4.74V.38H152Z"/><path class="cls-1" d="M181.61,14.76a10.14,10.14,0,0,1-.09,1.47H171.46a3,3,0,0,0,3.18,2.38,4.94,4.94,0,0,0,3.24-1.3l3.06,2.85a9,9,0,0,1-6.54,2.44c-4.66,0-7.83-3.1-7.83-7.73s3.1-7.92,7.61-7.92S181.6,10.11,181.61,14.76Zm-10.14-1.53h5.4a2.74,2.74,0,0,0-5.4,0Z"/><path class="cls-1" d="M205.76,1c5.36,0,8.14,2.1,8.14,6A4.84,4.84,0,0,1,211,11.47a5,5,0,0,1,3.36,4.65c0,3.89-2.68,6.07-8.05,6.07h-9.64V1ZM201.7,5.25V9.43h3.94c1.82,0,3-.53,3-2.1s-1.18-2.07-3-2.07Zm0,8.4V18H206c2,0,3.09-.58,3.09-2.16S208,13.65,206,13.65Z"/><path class="cls-1" d="M235.14,14.76a8.06,8.06,0,0,1-16.12,0,8.06,8.06,0,0,1,16.12,0Zm-11.28,0a3.22,3.22,0,1,0,6.43,0,3.22,3.22,0,1,0-6.43,0Z"/><path class="cls-1" d="M254.52,12.44v9.75h-4.74V14.12c0-1.76-.88-2.74-2.35-2.74-1.32,0-2.41.89-2.41,2.82v8h-4.74V7.34h4.54V9.2a4.76,4.76,0,0,1,4.42-2.27A5.13,5.13,0,0,1,254.52,12.44Z"/><path class="cls-1" d="M270.64,8.76V.39h4.72v21.8h-4.57v-1.6a5.1,5.1,0,0,1-4.27,2c-4,0-6.9-3.45-6.9-7.84s2.94-7.81,6.92-7.81A5.08,5.08,0,0,1,270.64,8.76Zm-6.15,6a3.18,3.18,0,1,0,6.34,0,3.18,3.18,0,1,0-6.34,0Z"/><path class="cls-1" d="M306.24,14.76a8.06,8.06,0,0,1-16.12,0,8.06,8.06,0,0,1,16.12,0Zm-11.28,0a3.22,3.22,0,1,0,6.43,0,3.22,3.22,0,1,0-6.43,0Z"/><path class="cls-1" d="M321.59,11.53h-4.16V22.19h-4.74V11.53h-2.56V7.34h2.56V6.19c0-4,2.2-6.19,5.66-6.19a7.9,7.9,0,0,1,5,1.57l-2.06,3.5A4.86,4.86,0,0,0,319,4.42c-1,0-1.56.59-1.56,1.88v1h4.16Z"/><path class="cls-1" d="M5.93,59.79H.88V38.6H5.93Z"/><path class="cls-1" d="M26.51,50v9.75H21.78V51.72C21.78,50,20.9,49,19.43,49,18.11,49,17,49.88,17,51.8v8H12.29V44.94h4.54V46.8a4.76,4.76,0,0,1,4.42-2.27A5.13,5.13,0,0,1,26.51,50Z"/><path class="cls-1" d="M41.39,59.79H36L30.23,44.94H35.4l3.32,9.69,3.34-9.69h5Z"/><path class="cls-1" d="M65.09,52.36A10.14,10.14,0,0,1,65,53.83H54.93a3,3,0,0,0,3.18,2.38,4.94,4.94,0,0,0,3.24-1.3l3.06,2.85a9,9,0,0,1-6.54,2.44c-4.66,0-7.83-3.1-7.83-7.73s3.1-7.92,7.61-7.92S65.07,47.71,65.09,52.36ZM54.95,50.83h5.4a2.74,2.74,0,0,0-5.4,0Z"/><path class="cls-1" d="M81.31,49.51a14.13,14.13,0,0,0-4.89-1.15c-1.24,0-1.73.36-1.73.91s.94.79,2.39,1l1.09.17c3.18.48,4.86,2,4.86,4.51,0,3.25-2.54,5.21-6.87,5.21a13.22,13.22,0,0,1-6.86-1.56L71,54.95a10,10,0,0,0,5.24,1.39c1.47,0,2.07-.33,2.07-1s-.67-.8-2.35-1.06l-.86-.12c-3.57-.53-5.24-2-5.24-4.68,0-3.16,2.38-5,6.42-5a15.62,15.62,0,0,1,6.39,1.27Z"/><path class="cls-1" d="M99.51,49.13H94.44v4.34c0,1.71.91,2.29,2.1,2.29a5.51,5.51,0,0,0,2.57-.92l1.63,3.69a8.47,8.47,0,0,1-5.27,1.65c-4,0-5.78-2.38-5.78-6.1V49.13H86.94V44.94h2.77V40.61h4.74v4.33h5.07Z"/><path class="cls-1" d="M120.35,52.36a8.06,8.06,0,1,1-8.07-7.83A7.73,7.73,0,0,1,120.35,52.36Zm-11.28,0A3.22,3.22,0,1,0,112.29,49,3.2,3.2,0,0,0,109.08,52.36Z"/><path class="cls-1" d="M135.77,44.76l-.44,4.72a8,8,0,0,0-2.38-.39,2.41,2.41,0,0,0-2.71,2.68v8H125.5V44.94H130v1.71a4.39,4.39,0,0,1,4.06-2.12A6.18,6.18,0,0,1,135.77,44.76Z"/><path class="cls-1" d="M151.42,49.51a14.13,14.13,0,0,0-4.89-1.15c-1.24,0-1.72.36-1.72.91s.94.79,2.39,1l1.09.17c3.18.48,4.86,2,4.86,4.51,0,3.25-2.54,5.21-6.87,5.21a13.21,13.21,0,0,1-6.86-1.56l1.65-3.66a10,10,0,0,0,5.24,1.39c1.47,0,2.07-.33,2.07-1s-.67-.8-2.35-1.06l-.86-.12c-3.57-.53-5.24-2-5.24-4.68,0-3.16,2.38-5,6.42-5a15.63,15.63,0,0,1,6.39,1.27Z"/><path class="cls-1" d="M182.85,59.79h-4.59v-1.6a5.1,5.1,0,0,1-4.27,2c-4,0-6.9-3.45-6.9-7.84S170,44.53,174,44.53a5.1,5.1,0,0,1,4.25,2v-1.6h4.59ZM172,52.36A3.18,3.18,0,1,0,175.13,49,3.17,3.17,0,0,0,172,52.36Z"/><path class="cls-1" d="M203.05,50v9.75h-4.74V51.72c0-1.76-.88-2.74-2.35-2.74-1.32,0-2.41.89-2.41,2.82v8h-4.74V44.94h4.54V46.8a4.76,4.76,0,0,1,4.42-2.27A5.13,5.13,0,0,1,203.05,50Z"/><path class="cls-1" d="M219.16,46.36V38h4.72v21.8h-4.57v-1.6a5.1,5.1,0,0,1-4.27,2c-4,0-6.9-3.45-6.9-7.84s2.94-7.81,6.92-7.81A5.08,5.08,0,0,1,219.16,46.36Zm-6.15,6A3.18,3.18,0,1,0,216.18,49,3.17,3.17,0,0,0,213,52.36Z"/><path class="cls-1" d="M259.38,43.31l-4.43,2.54a5.66,5.66,0,0,0-5-2.8c-3.35,0-5.83,2.51-5.83,6.15,0,3.94,2.71,6.15,5.84,6.15A6,6,0,0,0,255,52.56l4.15,2.94A10.73,10.73,0,0,1,250,60.18c-6.54,0-11.16-4.57-11.16-11s4.62-11,11.16-11A10.55,10.55,0,0,1,259.38,43.31Z"/><path class="cls-1" d="M279.61,52.36a8.06,8.06,0,1,1-8.07-7.83A7.73,7.73,0,0,1,279.61,52.36Zm-11.28,0A3.22,3.22,0,1,0,271.54,49,3.2,3.2,0,0,0,268.33,52.36Z"/><path class="cls-1" d="M308.49,50v9.75h-4.74V51.72c0-1.76-.88-2.74-2.36-2.74-1.3,0-2.41.89-2.41,2.82v8h-4.74V51.72c0-1.76-.88-2.74-2.35-2.74-1.32,0-2.41.89-2.41,2.82v8h-4.74V44.94h4.54V46.8a4.76,4.76,0,0,1,4.42-2.27A5,5,0,0,1,298.24,47a5.09,5.09,0,0,1,4.71-2.48C306.34,44.53,308.49,46.62,308.49,50Z"/><path class="cls-1" d="M330.17,52.34c0,4.39-3,7.84-6.92,7.84a5.08,5.08,0,0,1-4.1-1.8v7.46h-4.72V44.94H319v1.6a5.08,5.08,0,0,1,4.25-2C327.22,44.53,330.17,48,330.17,52.34Zm-11.22,0A3.18,3.18,0,1,0,322.12,49,3.17,3.17,0,0,0,319,52.36Z"/><path class="cls-1" d="M350.33,59.79h-4.59v-1.6a5.1,5.1,0,0,1-4.27,2c-4,0-6.9-3.45-6.9-7.84s2.94-7.81,6.92-7.81a5.1,5.1,0,0,1,4.25,2v-1.6h4.59Zm-10.88-7.43A3.18,3.18,0,1,0,342.61,49,3.17,3.17,0,0,0,339.44,52.36Z"/><path class="cls-1" d="M370.53,50v9.75h-4.74V51.72c0-1.76-.88-2.74-2.35-2.74-1.32,0-2.41.89-2.41,2.82v8H356.3V44.94h4.54V46.8a4.76,4.76,0,0,1,4.42-2.27A5.13,5.13,0,0,1,370.53,50Z"/><path class="cls-1" d="M381.58,40.37a2.83,2.83,0,1,1-2.83-2.85A2.79,2.79,0,0,1,381.58,40.37Zm-.44,19.42H376.4V44.94h4.74Z"/><path class="cls-1" d="M401.28,52.36a10.14,10.14,0,0,1-.09,1.47H391.12a3,3,0,0,0,3.18,2.38,4.94,4.94,0,0,0,3.24-1.3l3.06,2.85a9,9,0,0,1-6.54,2.44c-4.66,0-7.83-3.1-7.83-7.73s3.1-7.92,7.61-7.92S401.26,47.71,401.28,52.36Zm-10.14-1.53h5.4a2.74,2.74,0,0,0-5.4,0Z"/><path class="cls-1" d="M417.5,49.51a14.13,14.13,0,0,0-4.89-1.15c-1.24,0-1.73.36-1.73.91s.94.79,2.39,1l1.09.17c3.18.48,4.86,2,4.86,4.51,0,3.25-2.54,5.21-6.87,5.21a13.22,13.22,0,0,1-6.86-1.56l1.65-3.66a10,10,0,0,0,5.24,1.39c1.47,0,2.07-.33,2.07-1s-.67-.8-2.35-1.06l-.86-.12c-3.57-.53-5.24-2-5.24-4.68,0-3.16,2.38-5,6.42-5a15.62,15.62,0,0,1,6.39,1.27Z"/></g></g></svg>