<svg xmlns="http://www.w3.org/2000/svg" viewBox="0 0 412.38 65.24"><defs><style>.cls-1{fill:#fff;}</style></defs><title>1-2_copy-english</title><g id="レイヤー_2" data-name="レイヤー 2"><g id="上のバー"><path class="cls-1" d="M8.89,1c5.23,0,7.95,2.05,7.95,5.85A4.72,4.72,0,0,1,14,11.27a4.9,4.9,0,0,1,3.28,4.53c0,3.8-2.61,5.92-7.86,5.92H0V1Zm-4,4.15V9.28H8.77c1.77,0,2.92-.52,2.92-2.05s-1.15-2-2.92-2Zm0,8.2v4.19H9.16c1.91,0,3-.56,3-2.11s-1.11-2.08-3-2.08Z"/><path class="cls-1" d="M33,7.06l-.43,4.61a7.76,7.76,0,0,0-2.32-.38,2.35,2.35,0,0,0-2.64,2.61v7.83H23V7.24h4.43V8.91a4.28,4.28,0,0,1,4-2.07A6,6,0,0,1,33,7.06Z"/><path class="cls-1" d="M42.79,2.78a2.76,2.76,0,0,1-5.52,0,2.76,2.76,0,1,1,5.52,0Zm-.43,19H37.73V7.24h4.62Z"/><path class="cls-1" d="M62.35,12.22v9.51H57.73V13.85c0-1.71-.86-2.67-2.29-2.67s-2.35.87-2.35,2.75v7.8H48.46V7.24H52.9V9.05a4.65,4.65,0,0,1,4.31-2.22A5,5,0,0,1,62.35,12.22Z"/><path class="cls-1" d="M78.4,8.74V7.24h4.48v13.1c0,4.76-3.12,7.59-7.86,7.59a11.74,11.74,0,0,1-6.62-1.85L70,22.41a7.78,7.78,0,0,0,4.65,1.48c1.88,0,3.65-1,3.65-3.34v-.9a4.79,4.79,0,0,1-4,1.83c-3.88,0-6.72-3.21-6.72-7.31s2.84-7.33,6.72-7.33A4.81,4.81,0,0,1,78.4,8.74Zm-6,5.42a3,3,0,0,0,3,3.1,2.92,2.92,0,0,0,3-3.1,2.92,2.92,0,0,0-3-3.1A3,3,0,0,0,72.41,14.17Z"/><path class="cls-1" d="M120.45,21.73h-5.26l-1.57-4.34h-8.21l-1.57,4.34H98.69L106.63,1h5.89ZM107,12.92h5l-2.51-7Z"/><path class="cls-1" d="M140.47,14.46c0,4.28-2.88,7.65-6.75,7.65a4.94,4.94,0,0,1-4.15-1.93v1.55h-4.46V.46h4.61V8.63a4.93,4.93,0,0,1,4-1.79C137.59,6.84,140.47,10.21,140.47,14.46Zm-10.95,0a3.1,3.1,0,1,0,6.19,0,3.1,3.1,0,1,0-6.19,0Z"/><path class="cls-1" d="M160.82,14.48a7.87,7.87,0,0,1-15.73,0,7.87,7.87,0,0,1,15.73,0Zm-11,0a3.14,3.14,0,1,0,6.28,0,3.14,3.14,0,1,0-6.28,0Z"/><path class="cls-1" d="M180,15.52c0,4.53-3.13,6.59-7,6.59s-7-2.05-7-6.6V7.24h4.62v7.87c0,1.85,1,2.69,2.38,2.69s2.38-.84,2.38-2.69V7.24H180Z"/><path class="cls-1" d="M197,11.33h-4.95v4.24c0,1.67.89,2.23,2.05,2.23a5.38,5.38,0,0,0,2.51-.9l1.59,3.6a8.26,8.26,0,0,1-5.14,1.61c-3.88,0-5.64-2.32-5.64-6V11.33h-2.7V7.24h2.7V3h4.62V7.24H197Z"/><path class="cls-1" d="M230,5.63h-6.12v16.1H219V5.63h-6.13V1H230Z"/><path class="cls-1" d="M239.37,8.76a4.69,4.69,0,0,1,4.12-1.92,5,5,0,0,1,5.14,5.38v9.51H244V13.85c0-1.71-.86-2.67-2.29-2.67s-2.35.87-2.35,2.75v7.8h-4.62V.44h4.62Z"/><path class="cls-1" d="M268.6,14.48a10,10,0,0,1-.09,1.43h-9.82a2.88,2.88,0,0,0,3.1,2.32A4.82,4.82,0,0,0,264.95,17l3,2.78a8.81,8.81,0,0,1-6.38,2.38c-4.55,0-7.64-3-7.64-7.55s3-7.73,7.43-7.73S268.58,9.94,268.6,14.48ZM258.7,13H264a2.68,2.68,0,0,0-5.27,0Z"/><path class="cls-1" d="M294.25,1c5.23,0,7.95,2.05,7.95,5.85a4.72,4.72,0,0,1-2.85,4.37,4.9,4.9,0,0,1,3.28,4.53c0,3.8-2.61,5.92-7.86,5.92h-9.41V1Zm-4,4.15V9.28h3.84c1.77,0,2.92-.52,2.92-2.05s-1.15-2-2.92-2Zm0,8.2v4.19h4.22c1.91,0,3-.56,3-2.11s-1.11-2.08-3-2.08Z"/><path class="cls-1" d="M323.25,14.48a7.87,7.87,0,0,1-15.73,0,7.87,7.87,0,0,1,15.73,0Zm-11,0a3.14,3.14,0,1,0,6.28,0,3.14,3.14,0,1,0-6.28,0Z"/><path class="cls-1" d="M342.48,12.22v9.51h-4.62V13.85c0-1.71-.86-2.67-2.29-2.67s-2.35.87-2.35,2.75v7.8h-4.62V7.24H333V9.05a4.65,4.65,0,0,1,4.31-2.22A5,5,0,0,1,342.48,12.22Z"/><path class="cls-1" d="M358.52,8.63V.46h4.61V21.73h-4.46V20.16a5,5,0,0,1-4.17,1.95c-3.87,0-6.74-3.37-6.74-7.65s2.87-7.62,6.75-7.62A5,5,0,0,1,358.52,8.63Zm-6,5.85a3.1,3.1,0,1,0,6.19,0,3.1,3.1,0,1,0-6.19,0Z"/><path class="cls-1" d="M395.35,14.48a7.87,7.87,0,0,1-15.73,0,7.87,7.87,0,0,1,15.73,0Zm-11,0a3.14,3.14,0,1,0,6.28,0,3.14,3.14,0,1,0-6.28,0Z"/><path class="cls-1" d="M410.65,11.33h-4.06v10.4H402V11.33h-2.5V7.24H402V6.12c0-3.9,2.14-6,5.52-6a7.7,7.7,0,0,1,4.89,1.54l-2,3.41a4.74,4.74,0,0,0-2.26-.64c-1,0-1.52.58-1.52,1.83v1h4.06Z"/><path class="cls-1" d="M5.12,59.33H.18V38.65H5.12Z"/><path class="cls-1" d="M25.51,49.82v9.51H20.89V51.46c0-1.71-.86-2.67-2.29-2.67s-2.35.87-2.35,2.75v7.8H11.63V44.84h4.43v1.82a4.65,4.65,0,0,1,4.31-2.22A5,5,0,0,1,25.51,49.82Z"/><path class="cls-1" d="M40.34,59.33H35.07L29.46,44.84h5l3.24,9.45L41,44.84h4.89Z"/><path class="cls-1" d="M63.78,52.08a10,10,0,0,1-.09,1.43H53.87A2.88,2.88,0,0,0,57,55.83a4.82,4.82,0,0,0,3.16-1.27l3,2.78a8.81,8.81,0,0,1-6.38,2.38c-4.55,0-7.64-3-7.64-7.55s3-7.72,7.43-7.72S63.77,47.54,63.78,52.08Zm-9.9-1.49h5.27a2.68,2.68,0,0,0-5.27,0Z"/><path class="cls-1" d="M79.93,49.3a13.78,13.78,0,0,0-4.77-1.12c-1.21,0-1.68.35-1.68.89s.92.77,2.33,1l1.06.16c3.1.47,4.74,2,4.74,4.4,0,3.18-2.48,5.08-6.71,5.08a12.9,12.9,0,0,1-6.69-1.52l1.61-3.57A9.76,9.76,0,0,0,74.94,56c1.43,0,2-.32,2-.95s-.65-.78-2.29-1l-.84-.12c-3.49-.52-5.11-2-5.11-4.56,0-3.09,2.32-4.84,6.26-4.84a15.24,15.24,0,0,1,6.23,1.24Z"/><path class="cls-1" d="M98,48.93H93.06v4.24c0,1.67.89,2.23,2.05,2.23a5.38,5.38,0,0,0,2.51-.9l1.59,3.6a8.26,8.26,0,0,1-5.14,1.61c-3.88,0-5.64-2.32-5.64-6V48.93h-2.7V44.84h2.7V40.61h4.62v4.22H98Z"/><path class="cls-1" d="M118.66,52.08a7.87,7.87,0,1,1-7.87-7.64A7.54,7.54,0,0,1,118.66,52.08Zm-11,0a3.14,3.14,0,1,0,3.13-3.32A3.12,3.12,0,0,0,107.66,52.08Z"/><path class="cls-1" d="M134,44.66l-.43,4.61a7.78,7.78,0,0,0-2.32-.38,2.35,2.35,0,0,0-2.64,2.61v7.83H124V44.84h4.43v1.67a4.28,4.28,0,0,1,4-2.07A6,6,0,0,1,134,44.66Z"/><path class="cls-1" d="M149.61,49.3a13.78,13.78,0,0,0-4.77-1.12c-1.21,0-1.68.35-1.68.89s.92.77,2.33,1l1.06.16c3.1.47,4.74,2,4.74,4.4,0,3.18-2.48,5.08-6.71,5.08a12.9,12.9,0,0,1-6.69-1.52l1.61-3.57A9.75,9.75,0,0,0,144.62,56c1.43,0,2-.32,2-.95s-.65-.78-2.29-1l-.84-.12c-3.49-.52-5.11-2-5.11-4.56,0-3.09,2.32-4.84,6.26-4.84a15.24,15.24,0,0,1,6.23,1.24Z"/><path class="cls-1" d="M179.12,59.33h-4.48V57.76a5,5,0,0,1-4.17,1.95c-3.87,0-6.74-3.37-6.74-7.65s2.87-7.62,6.75-7.62a5,5,0,0,1,4.15,2V44.84h4.48ZM168.5,52.08a3.1,3.1,0,1,0,3.09-3.32A3.09,3.09,0,0,0,168.5,52.08Z"/><path class="cls-1" d="M199.15,49.82v9.51h-4.62V51.46c0-1.71-.86-2.67-2.29-2.67s-2.35.87-2.35,2.75v7.8h-4.62V44.84h4.43v1.82A4.65,4.65,0,0,1,194,44.44,5,5,0,0,1,199.15,49.82Z"/><path class="cls-1" d="M215.19,46.23V38.06h4.61V59.33h-4.46V57.76a5,5,0,0,1-4.17,1.95c-3.87,0-6.74-3.37-6.74-7.65s2.87-7.62,6.75-7.62A5,5,0,0,1,215.19,46.23Zm-6,5.85a3.1,3.1,0,1,0,3.09-3.32A3.09,3.09,0,0,0,209.19,52.08Z"/><path class="cls-1" d="M252.09,43.24l-4.33,2.48A5.53,5.53,0,0,0,242.85,43a5.63,5.63,0,0,0-5.69,6,5.59,5.59,0,0,0,5.7,6,5.81,5.81,0,0,0,5-2.72l4,2.87a10.47,10.47,0,0,1-9,4.58C236.53,59.71,232,55.25,232,49s4.5-10.72,10.89-10.72A10.29,10.29,0,0,1,252.09,43.24Z"/><path class="cls-1" d="M272.15,52.08a7.87,7.87,0,1,1-7.87-7.64A7.54,7.54,0,0,1,272.15,52.08Zm-11,0a3.14,3.14,0,1,0,3.13-3.32A3.12,3.12,0,0,0,261.14,52.08Z"/><path class="cls-1" d="M300.65,49.82v9.51H296V51.46c0-1.71-.86-2.67-2.3-2.67-1.27,0-2.35.87-2.35,2.75v7.8h-4.62V51.46c0-1.71-.86-2.67-2.29-2.67s-2.35.87-2.35,2.75v7.8h-4.62V44.84h4.43v1.82a4.65,4.65,0,0,1,4.31-2.22,4.92,4.92,0,0,1,4.42,2.42,5.46,5.46,0,0,1,10,3Z"/><path class="cls-1" d="M322.13,52.06c0,4.28-2.88,7.65-6.75,7.65a5,5,0,0,1-4-1.76v7.28h-4.61V44.84h4.46V46.4a5,5,0,0,1,4.15-2C319.25,44.44,322.13,47.81,322.13,52.06Zm-10.95,0a3.1,3.1,0,1,0,3.09-3.32A3.09,3.09,0,0,0,311.19,52.08Z"/><path class="cls-1" d="M342.12,59.33h-4.48V57.76a5,5,0,0,1-4.17,1.95c-3.87,0-6.74-3.37-6.74-7.65s2.87-7.62,6.75-7.62a5,5,0,0,1,4.15,2V44.84h4.48ZM331.5,52.08a3.1,3.1,0,1,0,3.09-3.32A3.09,3.09,0,0,0,331.5,52.08Z"/><path class="cls-1" d="M362.15,49.82v9.51h-4.62V51.46c0-1.71-.86-2.67-2.29-2.67s-2.35.87-2.35,2.75v7.8h-4.62V44.84h4.43v1.82A4.65,4.65,0,0,1,357,44.44,5,5,0,0,1,362.15,49.82Z"/><path class="cls-1" d="M373.25,40.38a2.76,2.76,0,1,1-2.76-2.78A2.72,2.72,0,0,1,373.25,40.38Zm-.43,19H368.2V44.84h4.62Z"/><path class="cls-1" d="M392.79,52.08a10,10,0,0,1-.09,1.43h-9.82a2.88,2.88,0,0,0,3.1,2.32,4.82,4.82,0,0,0,3.16-1.27l3,2.78a8.81,8.81,0,0,1-6.38,2.38c-4.55,0-7.64-3-7.64-7.55s3-7.72,7.43-7.72S392.77,47.54,392.79,52.08Zm-9.9-1.49h5.27a2.68,2.68,0,0,0-5.27,0Z"/><path class="cls-1" d="M408.93,49.3a13.78,13.78,0,0,0-4.77-1.12c-1.21,0-1.68.35-1.68.89s.92.77,2.33,1l1.06.16c3.1.47,4.74,2,4.74,4.4,0,3.18-2.48,5.08-6.71,5.08a12.9,12.9,0,0,1-6.69-1.52l1.61-3.57A9.75,9.75,0,0,0,403.94,56c1.43,0,2-.32,2-.95s-.65-.78-2.29-1l-.84-.12c-3.49-.52-5.11-2-5.11-4.56,0-3.09,2.32-4.84,6.26-4.84a15.24,15.24,0,0,1,6.23,1.24Z"/></g></g></svg>