<?xml version="1.0" encoding="utf-8"?>
<!-- Generator: Adobe Illustrator 23.0.6, SVG Export Plug-In . SVG Version: 6.00 Build 0)  -->
<svg version="1.1" id="レイヤー_1" xmlns="http://www.w3.org/2000/svg" xmlns:xlink="http://www.w3.org/1999/xlink" x="0px"
	 y="0px" viewBox="0 0 402.4 65.6" style="enable-background:new 0 0 402.4 65.6;" xml:space="preserve">
<style type="text/css">
	.st0{fill:#FFFFFF;}
</style>
<title>Asset 1</title>
<g>
	<path class="st0" d="M16.3,18.4c1.3-1,2.2-2.3,2.7-4h2.2c-0.3,1.5-0.9,2.8-1.8,4s-2,2-3.4,2.7c-1.4,0.6-2.9,1-4.5,1
		c-1.9,0-3.7-0.5-5.3-1.4c-1.6-0.9-2.9-2.2-3.8-3.8s-1.4-3.4-1.4-5.4c0-2,0.5-3.7,1.4-5.4c0.9-1.6,2.2-2.9,3.8-3.8
		c1.6-0.9,3.4-1.4,5.3-1.4c1.6,0,3.1,0.3,4.5,1c1.4,0.6,2.5,1.5,3.4,2.7s1.5,2.5,1.8,4H19c-0.4-1.7-1.3-3-2.7-4s-2.9-1.5-4.8-1.5
		c-1.6,0-3,0.4-4.3,1.1S4.9,5.7,4.1,7C3.4,8.3,3,9.7,3,11.3c0,1.6,0.4,3.1,1.1,4.4c0.7,1.3,1.8,2.3,3,3.1s2.7,1.1,4.3,1.1
		C13.4,19.9,15,19.4,16.3,18.4z"/>
	<path class="st0" d="M31.6,8c0.9-0.5,1.9-0.7,3.1-0.7v2c-1.1,0-2.2,0.3-3.1,0.9c-0.9,0.6-1.7,1.3-2.3,2.3v9.1h-2V7.7h2v2.4
		C29.9,9.2,30.6,8.5,31.6,8z"/>
	<path class="st0" d="M52.1,15.4L52,15.4v0.1H40.2c0.2,1.4,0.7,2.5,1.6,3.4c0.9,0.9,2.1,1.3,3.6,1.3c1,0,1.8-0.2,2.5-0.6
		c0.7-0.4,1.2-0.9,1.5-1.6h2.2c-0.4,1.2-1.2,2.1-2.3,2.8c-1.1,0.7-2.5,1.1-4,1.1c-1.4,0-2.6-0.3-3.7-1c-1.1-0.6-2-1.5-2.6-2.6
		s-0.9-2.4-0.9-3.7c0-1.4,0.3-2.6,0.9-3.7c0.6-1.1,1.5-2,2.6-2.6c1.1-0.6,2.3-1,3.7-1c1.3,0,2.5,0.3,3.5,0.9c1,0.6,1.8,1.5,2.4,2.6
		c0.6,1.1,0.9,2.3,0.9,3.7C52.1,14.9,52.1,15.2,52.1,15.4z M41.8,10.4c-0.9,0.9-1.4,2-1.6,3.4H50c-0.1-1.4-0.6-2.6-1.5-3.4
		c-0.8-0.9-1.9-1.3-3.3-1.3C43.9,9.1,42.8,9.5,41.8,10.4z"/>
	<path class="st0" d="M69.1,21.5V20c-1.3,1.3-3,1.9-5,1.9c-1.3,0-2.5-0.3-3.6-1c-1.1-0.6-2-1.5-2.6-2.7c-0.6-1.1-1-2.3-1-3.7
		c0-1.3,0.3-2.5,1-3.7s1.5-2,2.6-2.7c1.1-0.6,2.3-1,3.6-1c2,0,3.7,0.6,5,1.9V7.7h2v13.9H69.1z M67,19.5c0.8-0.4,1.5-1.1,2.1-1.9v-6
		c-0.6-0.8-1.3-1.4-2.1-1.9c-0.8-0.4-1.7-0.6-2.7-0.6c-1,0-1.9,0.2-2.7,0.8s-1.5,1.2-1.9,2c-0.5,0.8-0.7,1.8-0.7,2.7
		c0,1,0.2,1.9,0.7,2.8c0.5,0.8,1.1,1.5,1.9,2c0.8,0.5,1.7,0.8,2.7,0.8C65.3,20.1,66.2,19.9,67,19.5z"/>
	<path class="st0" d="M83.7,22c-3.2,0-4.8-1.8-4.8-5.4V9.4h-3.7V7.7h3.7V2.5h2v5.1h5.2v1.8H81v7.1c0,1.2,0.2,2.1,0.8,2.7
		c0.5,0.6,1.3,0.8,2.3,0.8c0.7,0,1.5-0.1,2.3-0.4l0.3,1.8C85.6,21.8,84.6,22,83.7,22z"/>
	<path class="st0" d="M92.5,3.4c-0.3-0.3-0.4-0.6-0.4-1c0-0.4,0.1-0.7,0.4-1c0.3-0.3,0.6-0.4,1-0.4c0.4,0,0.7,0.1,1,0.4S95,2,95,2.4
		c0,0.4-0.1,0.7-0.4,1c-0.3,0.3-0.6,0.4-1,0.4C93.1,3.8,92.8,3.7,92.5,3.4z M92.5,21.5V7.7h2v13.9H92.5z"/>
	<path class="st0" d="M111.8,8c0.9,0.5,1.6,1.2,2.1,2.2s0.8,2.1,0.8,3.4v8h-2v-7.9c0-1.4-0.4-2.5-1.2-3.3c-0.8-0.8-1.8-1.2-3.1-1.2
		c-0.9,0-1.8,0.2-2.6,0.7c-0.8,0.5-1.6,1.1-2.2,1.9v9.8h-2V7.7h2v1.6c0.7-0.7,1.4-1.2,2.3-1.5c0.9-0.4,1.8-0.6,2.8-0.6
		C109.9,7.2,110.9,7.5,111.8,8z"/>
	<path class="st0" d="M132.9,25.6c-0.6,1-1.4,1.8-2.4,2.4c-1,0.6-2.2,0.8-3.6,0.8c-1.8,0-3.3-0.5-4.6-1.4c-1.3-1-2-2.2-2.2-3.7h2.1
		c0.2,1,0.8,1.8,1.6,2.4c0.9,0.6,1.9,0.9,3.1,0.9c1.5,0,2.6-0.4,3.5-1.3c0.9-0.9,1.3-2.1,1.3-3.6h0v-2.4c-0.7,0.6-1.5,1.1-2.4,1.5
		c-0.9,0.4-1.8,0.5-2.9,0.5c-1.3,0-2.5-0.3-3.5-1c-1.1-0.6-1.9-1.5-2.5-2.6c-0.6-1.1-0.9-2.3-0.9-3.6c0-1.3,0.3-2.6,0.9-3.7
		c0.6-1.1,1.5-2,2.5-2.6c1.1-0.6,2.3-0.9,3.6-0.9c1,0,2,0.2,2.9,0.5c0.9,0.4,1.7,0.8,2.4,1.5V7.7h2V22
		C133.8,23.4,133.5,24.6,132.9,25.6z M129.6,19.1c0.9-0.4,1.6-1.1,2.2-2v-5.5c-0.6-0.9-1.3-1.5-2.2-1.9S127.8,9,126.8,9
		c-1,0-1.9,0.2-2.7,0.7c-0.8,0.5-1.4,1.1-1.8,2c-0.5,0.8-0.7,1.7-0.7,2.7c0,0.9,0.2,1.8,0.7,2.6c0.5,0.8,1.1,1.5,1.9,2
		c0.8,0.5,1.7,0.7,2.7,0.7C127.8,19.7,128.7,19.5,129.6,19.1z"/>
	<path class="st0" d="M161.6,21.5V20c-1.3,1.3-3,1.9-5,1.9c-1.3,0-2.5-0.3-3.6-1c-1.1-0.6-2-1.5-2.6-2.7c-0.6-1.1-1-2.3-1-3.7
		c0-1.3,0.3-2.5,1-3.7s1.5-2,2.6-2.7c1.1-0.6,2.3-1,3.6-1c2,0,3.7,0.6,5,1.9V7.7h2v13.9H161.6z M159.5,19.5c0.8-0.4,1.5-1.1,2.1-1.9
		v-6c-0.6-0.8-1.3-1.4-2.1-1.9c-0.8-0.4-1.7-0.6-2.7-0.6c-1,0-1.9,0.2-2.7,0.8s-1.5,1.2-1.9,2c-0.5,0.8-0.7,1.8-0.7,2.7
		c0,1,0.2,1.9,0.7,2.8c0.5,0.8,1.1,1.5,1.9,2c0.8,0.5,1.7,0.8,2.7,0.8C157.8,20.1,158.7,19.9,159.5,19.5z"/>
	<path class="st0" d="M195.3,12.7c0.8,0.9,1.2,2,1.2,3.3c0,1.1-0.3,2.1-0.9,2.9c-0.6,0.8-1.5,1.5-2.6,2c-1.1,0.5-2.4,0.7-3.9,0.7
		h-8.8V1.1h8.6c2,0,3.6,0.5,4.8,1.4c1.2,0.9,1.8,2.2,1.8,3.7c0,1.1-0.3,2.1-0.9,3c-0.6,0.8-1.5,1.4-2.6,1.7
		C193.4,11.2,194.6,11.8,195.3,12.7z M188.3,10.3c1.6,0,2.9-0.3,3.8-1c0.9-0.7,1.3-1.6,1.3-2.8c0-1.1-0.4-1.9-1.3-2.5
		c-0.9-0.6-2-0.9-3.5-0.9h-6.3v7.2H188.3z M192.9,18.6c1-0.7,1.5-1.7,1.5-2.8c0-1.1-0.5-2-1.4-2.7c-0.9-0.6-2.3-0.9-4-0.9h-6.7v7.5
		h6.6C190.6,19.6,192,19.3,192.9,18.6z"/>
	<path class="st0" d="M212.3,8.3c1.1,0.6,2,1.5,2.7,2.6c0.7,1.1,1,2.4,1,3.7c0,1.4-0.3,2.6-1,3.7c-0.6,1.1-1.5,2-2.7,2.7
		c-1.1,0.6-2.4,1-3.7,1s-2.6-0.3-3.7-1c-1.1-0.6-2-1.5-2.7-2.7c-0.7-1.1-1-2.4-1-3.7c0-1.4,0.3-2.6,1-3.7c0.6-1.1,1.5-2,2.7-2.6
		c1.1-0.6,2.4-1,3.7-1S211.2,7.6,212.3,8.3z M211.3,19.4c0.8-0.5,1.4-1.2,1.9-2s0.7-1.8,0.7-2.8c0-1-0.2-1.9-0.7-2.7
		c-0.5-0.8-1.1-1.5-1.9-2s-1.7-0.7-2.7-0.7c-1,0-1.9,0.2-2.7,0.7c-0.8,0.5-1.5,1.1-1.9,2c-0.5,0.8-0.7,1.7-0.7,2.7
		c0,1,0.2,1.9,0.7,2.8s1.1,1.5,1.9,2c0.8,0.5,1.7,0.7,2.7,0.7S210.5,19.9,211.3,19.4z"/>
	<path class="st0" d="M231.7,8c0.9,0.5,1.6,1.2,2.1,2.2s0.8,2.1,0.8,3.4v8h-2v-7.9c0-1.4-0.4-2.5-1.2-3.3c-0.8-0.8-1.8-1.2-3.1-1.2
		c-0.9,0-1.8,0.2-2.6,0.7c-0.8,0.5-1.6,1.1-2.2,1.9v9.8h-2V7.7h2v1.6c0.7-0.7,1.4-1.2,2.3-1.5c0.9-0.4,1.8-0.6,2.8-0.6
		C229.8,7.2,230.8,7.5,231.7,8z"/>
	<path class="st0" d="M251.9,21.5V20c-1.3,1.3-3,1.9-5,1.9c-1.3,0-2.5-0.3-3.6-1c-1.1-0.6-2-1.5-2.6-2.7c-0.6-1.1-1-2.3-1-3.7
		c0-1.3,0.3-2.5,1-3.7s1.5-2,2.6-2.7c1.1-0.6,2.3-1,3.6-1c2,0,3.7,0.6,5,1.9v-9h2v21.3H251.9z M249.8,19.5c0.8-0.4,1.5-1.1,2.1-1.9
		v-5.9c-0.6-0.8-1.3-1.5-2.1-1.9c-0.8-0.4-1.7-0.6-2.7-0.6c-1,0-1.9,0.3-2.7,0.8c-0.8,0.5-1.5,1.2-1.9,2c-0.5,0.8-0.7,1.8-0.7,2.8
		c0,1,0.2,1.9,0.7,2.7c0.5,0.8,1.1,1.5,1.9,2c0.8,0.5,1.7,0.8,2.7,0.8C248.1,20.1,249,19.9,249.8,19.5z"/>
	<path class="st0" d="M285.6,12.7c0.8,0.9,1.2,2,1.2,3.3c0,1.1-0.3,2.1-0.9,2.9c-0.6,0.8-1.5,1.5-2.6,2c-1.1,0.5-2.4,0.7-3.9,0.7
		h-8.8V1.1h8.6c2,0,3.6,0.5,4.8,1.4c1.2,0.9,1.8,2.2,1.8,3.7c0,1.1-0.3,2.1-0.9,3c-0.6,0.8-1.5,1.4-2.6,1.7
		C283.7,11.2,284.8,11.8,285.6,12.7z M278.6,10.3c1.6,0,2.9-0.3,3.8-1c0.9-0.7,1.3-1.6,1.3-2.8c0-1.1-0.4-1.9-1.3-2.5
		c-0.9-0.6-2-0.9-3.5-0.9h-6.3v7.2H278.6z M283.2,18.6c1-0.7,1.5-1.7,1.5-2.8c0-1.1-0.5-2-1.4-2.7c-0.9-0.6-2.3-0.9-4-0.9h-6.7v7.5
		h6.6C280.9,19.6,282.2,19.3,283.2,18.6z"/>
	<path class="st0" d="M305.4,15.4l-0.1-0.1v0.1h-11.7c0.2,1.4,0.7,2.5,1.6,3.4c0.9,0.9,2.1,1.3,3.6,1.3c1,0,1.8-0.2,2.5-0.6
		c0.7-0.4,1.2-0.9,1.5-1.6h2.2c-0.4,1.2-1.2,2.1-2.3,2.8c-1.1,0.7-2.5,1.1-4,1.1c-1.4,0-2.6-0.3-3.7-1c-1.1-0.6-2-1.5-2.6-2.6
		s-0.9-2.4-0.9-3.7c0-1.4,0.3-2.6,0.9-3.7c0.6-1.1,1.5-2,2.6-2.6c1.1-0.6,2.3-1,3.7-1c1.3,0,2.5,0.3,3.5,0.9c1,0.6,1.8,1.5,2.4,2.6
		c0.6,1.1,0.9,2.3,0.9,3.7C305.4,14.9,305.4,15.2,305.4,15.4z M295.2,10.4c-0.9,0.9-1.4,2-1.6,3.4h9.8c-0.1-1.4-0.6-2.6-1.5-3.4
		c-0.8-0.9-1.9-1.3-3.3-1.3C297.2,9.1,296.1,9.5,295.2,10.4z"/>
	<path class="st0" d="M317.2,22c-3.2,0-4.8-1.8-4.8-5.4V9.4h-3.7V7.7h3.7V2.5h2v5.1h5.2v1.8h-5.2v7.1c0,1.2,0.2,2.1,0.8,2.7
		c0.5,0.6,1.3,0.8,2.3,0.8c0.7,0,1.5-0.1,2.3-0.4l0.3,1.8C319.1,21.8,318.1,22,317.2,22z"/>
	<path class="st0" d="M337.5,21.5L334,11l-3.6,10.6h-1.9l-5.2-13.9h2.2l3.9,10.6L333,7.7h1.8l3.6,10.6l3.9-10.6h2.2l-5.2,13.9H337.5
		z"/>
	<path class="st0" d="M362,15.4l-0.1-0.1v0.1h-11.7c0.2,1.4,0.7,2.5,1.6,3.4c0.9,0.9,2.1,1.3,3.6,1.3c1,0,1.8-0.2,2.5-0.6
		c0.7-0.4,1.2-0.9,1.5-1.6h2.2c-0.4,1.2-1.2,2.1-2.3,2.8c-1.1,0.7-2.5,1.1-4,1.1c-1.4,0-2.6-0.3-3.7-1c-1.1-0.6-2-1.5-2.6-2.6
		S348,16,348,14.6c0-1.4,0.3-2.6,0.9-3.7c0.6-1.1,1.5-2,2.6-2.6c1.1-0.6,2.3-1,3.7-1c1.3,0,2.5,0.3,3.5,0.9c1,0.6,1.8,1.5,2.4,2.6
		c0.6,1.1,0.9,2.3,0.9,3.7C362,14.9,362,15.2,362,15.4z M351.7,10.4c-0.9,0.9-1.4,2-1.6,3.4h9.8c-0.1-1.4-0.6-2.6-1.5-3.4
		c-0.8-0.9-1.9-1.3-3.3-1.3C353.8,9.1,352.6,9.5,351.7,10.4z"/>
	<path class="st0" d="M380.7,15.4l-0.1-0.1v0.1h-11.7c0.2,1.4,0.7,2.5,1.6,3.4c0.9,0.9,2.1,1.3,3.6,1.3c1,0,1.8-0.2,2.5-0.6
		c0.7-0.4,1.2-0.9,1.5-1.6h2.2c-0.4,1.2-1.2,2.1-2.3,2.8c-1.1,0.7-2.5,1.1-4,1.1c-1.4,0-2.6-0.3-3.7-1c-1.1-0.6-2-1.5-2.6-2.6
		s-0.9-2.4-0.9-3.7c0-1.4,0.3-2.6,0.9-3.7c0.6-1.1,1.5-2,2.6-2.6c1.1-0.6,2.3-1,3.7-1c1.3,0,2.5,0.3,3.5,0.9c1,0.6,1.8,1.5,2.4,2.6
		c0.6,1.1,0.9,2.3,0.9,3.7C380.7,14.9,380.7,15.2,380.7,15.4z M370.4,10.4c-0.9,0.9-1.4,2-1.6,3.4h9.8c-0.1-1.4-0.6-2.6-1.5-3.4
		c-0.8-0.9-1.9-1.3-3.3-1.3C372.5,9.1,371.3,9.5,370.4,10.4z"/>
	<path class="st0" d="M396.5,8c0.9,0.5,1.6,1.2,2.1,2.2s0.8,2.1,0.8,3.4v8h-2v-7.9c0-1.4-0.4-2.5-1.2-3.3c-0.8-0.8-1.8-1.2-3.1-1.2
		c-0.9,0-1.8,0.2-2.6,0.7c-0.8,0.5-1.6,1.1-2.2,1.9v9.8h-2V7.7h2v1.6c0.7-0.7,1.4-1.2,2.3-1.5c0.9-0.4,1.8-0.6,2.8-0.6
		C394.6,7.2,395.6,7.5,396.5,8z"/>
	<path class="st0" d="M9.4,57.5V37.1h2.1v20.4H9.4z"/>
	<path class="st0" d="M28.6,44c0.9,0.5,1.6,1.2,2.1,2.2s0.8,2.1,0.8,3.4v8h-2v-7.9c0-1.4-0.4-2.5-1.2-3.3c-0.8-0.8-1.8-1.2-3.1-1.2
		c-0.9,0-1.8,0.2-2.6,0.7s-1.6,1.1-2.2,1.9v9.8h-2V43.7h2v1.7c0.7-0.7,1.4-1.2,2.3-1.5c0.9-0.4,1.8-0.6,2.8-0.6
		C26.7,43.2,27.7,43.5,28.6,44z"/>
	<path class="st0" d="M41.9,57.5l-6.6-13.9h2.2l5.3,11.2l5.3-11.2h2.2l-6.6,13.9H41.9z"/>
	<path class="st0" d="M67.4,51.4l-0.1-0.1v0.1H55.6c0.2,1.4,0.7,2.5,1.6,3.4s2.1,1.3,3.6,1.3c1,0,1.8-0.2,2.5-0.6s1.2-0.9,1.5-1.6
		H67c-0.4,1.2-1.2,2.1-2.3,2.8c-1.1,0.7-2.5,1.1-4,1.1c-1.4,0-2.6-0.3-3.7-1c-1.1-0.6-2-1.5-2.6-2.6s-0.9-2.4-0.9-3.7
		s0.3-2.6,0.9-3.7c0.6-1.1,1.5-2,2.6-2.6c1.1-0.6,2.3-1,3.7-1c1.3,0,2.5,0.3,3.5,0.9c1,0.6,1.8,1.5,2.4,2.6c0.6,1.1,0.9,2.3,0.9,3.7
		C67.4,50.9,67.4,51.2,67.4,51.4z M57.2,46.4c-0.9,0.9-1.4,2-1.6,3.4h9.8c-0.1-1.4-0.6-2.6-1.5-3.4c-0.8-0.9-1.9-1.3-3.3-1.3
		C59.2,45.1,58.1,45.5,57.2,46.4z"/>
	<path class="st0" d="M75.4,55.5c0.8,0.5,1.8,0.8,3.1,0.8c1.1,0,2.1-0.2,2.7-0.7c0.7-0.5,1-1,1-1.8c0-0.6-0.2-1.1-0.6-1.5
		c-0.4-0.4-1-0.6-1.8-0.7l-3.2-0.5c-2.7-0.4-4.1-1.7-4.1-3.7c0-1.2,0.5-2.2,1.5-3s2.4-1.1,4-1.1c1.6,0,2.9,0.4,4.1,1.1
		c1.1,0.7,1.8,1.8,1.9,3.3h-1.9c-0.1-0.9-0.6-1.6-1.3-2.1c-0.7-0.5-1.7-0.7-2.8-0.7c-1.1,0-1.9,0.2-2.6,0.6c-0.6,0.4-1,1-1,1.7
		c0,1.2,0.9,1.9,2.7,2.2l2.8,0.5c2.8,0.5,4.1,1.7,4.1,3.8c0,1.3-0.5,2.4-1.6,3.1S80.2,58,78.5,58c-1.8,0-3.3-0.4-4.4-1.2
		c-1.1-0.8-1.8-2-2-3.5h1.9C74.1,54.2,74.6,55,75.4,55.5z"/>
	<path class="st0" d="M96.1,58c-3.2,0-4.8-1.8-4.8-5.4v-7.1h-3.7v-1.8h3.7v-5.1h2v5.1h5.2v1.8h-5.2v7.1c0,1.2,0.2,2.1,0.8,2.7
		c0.5,0.6,1.3,0.8,2.3,0.8c0.7,0,1.5-0.1,2.3-0.4l0.3,1.8C98,57.8,97,58,96.1,58z"/>
	<path class="st0" d="M113.7,44.3c1.1,0.6,2,1.5,2.7,2.6c0.7,1.1,1,2.4,1,3.7c0,1.4-0.3,2.6-1,3.7c-0.6,1.1-1.5,2-2.7,2.7
		c-1.1,0.7-2.4,1-3.7,1s-2.6-0.3-3.7-1c-1.1-0.6-2-1.5-2.7-2.7c-0.7-1.1-1-2.4-1-3.7s0.3-2.6,1-3.7c0.6-1.1,1.5-2,2.7-2.6
		c1.1-0.6,2.4-1,3.7-1S112.6,43.6,113.7,44.3z M112.7,55.4c0.8-0.5,1.4-1.2,1.9-2c0.5-0.8,0.7-1.8,0.7-2.8c0-1-0.2-1.9-0.7-2.7
		s-1.1-1.5-1.9-2c-0.8-0.5-1.7-0.7-2.7-0.7c-1,0-1.9,0.2-2.7,0.7c-0.8,0.5-1.5,1.1-1.9,2s-0.7,1.7-0.7,2.7c0,1,0.2,1.9,0.7,2.8
		c0.5,0.9,1.1,1.5,1.9,2c0.8,0.5,1.7,0.7,2.7,0.7S111.9,55.9,112.7,55.4z"/>
	<path class="st0" d="M127.3,44c0.9-0.5,1.9-0.7,3.1-0.7v2c-1.1,0-2.2,0.3-3.1,0.9c-0.9,0.6-1.7,1.3-2.3,2.3v9.1h-2V43.7h2v2.4
		C125.6,45.2,126.3,44.5,127.3,44z"/>
	<path class="st0" d="M137,55.5c0.8,0.5,1.8,0.8,3.1,0.8c1.1,0,2.1-0.2,2.7-0.7c0.7-0.5,1-1,1-1.8c0-0.6-0.2-1.1-0.6-1.5
		c-0.4-0.4-1-0.6-1.8-0.7l-3.2-0.5c-2.7-0.4-4.1-1.7-4.1-3.7c0-1.2,0.5-2.2,1.5-3s2.4-1.1,4-1.1c1.6,0,2.9,0.4,4.1,1.1
		c1.1,0.7,1.8,1.8,1.9,3.3h-1.9c-0.1-0.9-0.6-1.6-1.3-2.1c-0.7-0.5-1.7-0.7-2.8-0.7c-1.1,0-1.9,0.2-2.6,0.6c-0.6,0.4-1,1-1,1.7
		c0,1.2,0.9,1.9,2.7,2.2l2.8,0.5c2.8,0.5,4.1,1.7,4.1,3.8c0,1.3-0.5,2.4-1.6,3.1S141.8,58,140,58c-1.8,0-3.3-0.4-4.4-1.2
		c-1.1-0.8-1.8-2-2-3.5h1.9C135.7,54.2,136.2,55,137,55.5z"/>
	<path class="st0" d="M172.9,57.5V56c-1.3,1.3-3,1.9-5,1.9c-1.3,0-2.5-0.3-3.6-1c-1.1-0.6-2-1.5-2.6-2.7c-0.6-1.1-1-2.3-1-3.7
		c0-1.3,0.3-2.5,1-3.7s1.5-2,2.6-2.7c1.1-0.6,2.3-1,3.6-1c2,0,3.7,0.6,5,1.9v-1.6h2v13.9H172.9z M170.8,55.5
		c0.8-0.4,1.5-1.1,2.1-1.9v-6c-0.6-0.8-1.3-1.4-2.1-1.9c-0.8-0.4-1.7-0.6-2.7-0.6c-1,0-1.9,0.2-2.7,0.8s-1.5,1.2-1.9,2
		c-0.5,0.8-0.7,1.8-0.7,2.7c0,1,0.2,1.9,0.7,2.8c0.5,0.8,1.1,1.5,1.9,2s1.7,0.8,2.7,0.8C169.1,56.1,170,55.9,170.8,55.5z"/>
	<path class="st0" d="M191.8,44c0.9,0.5,1.6,1.2,2.1,2.2s0.8,2.1,0.8,3.4v8h-2v-7.9c0-1.4-0.4-2.5-1.2-3.3c-0.8-0.8-1.8-1.2-3.1-1.2
		c-0.9,0-1.8,0.2-2.6,0.7s-1.6,1.1-2.2,1.9v9.8h-2V43.7h2v1.7c0.7-0.7,1.4-1.2,2.3-1.5c0.9-0.4,1.8-0.6,2.8-0.6
		C189.9,43.2,190.9,43.5,191.8,44z"/>
	<path class="st0" d="M212,57.5V56c-1.3,1.3-3,1.9-5,1.9c-1.3,0-2.5-0.3-3.6-1c-1.1-0.6-2-1.5-2.6-2.7s-1-2.3-1-3.7
		c0-1.3,0.3-2.5,1-3.7s1.5-2,2.6-2.7c1.1-0.6,2.3-1,3.6-1c2,0,3.7,0.6,5,1.9v-9h2v21.3H212z M209.9,55.5c0.8-0.4,1.5-1.1,2.1-1.9
		v-5.9c-0.6-0.8-1.3-1.5-2.1-1.9c-0.8-0.4-1.7-0.6-2.7-0.6c-1,0-1.9,0.3-2.7,0.8c-0.8,0.5-1.5,1.2-1.9,2c-0.5,0.8-0.7,1.8-0.7,2.8
		c0,1,0.2,1.9,0.7,2.7c0.5,0.8,1.1,1.5,1.9,2c0.8,0.5,1.7,0.8,2.7,0.8C208.2,56.1,209.1,55.9,209.9,55.5z"/>
	<path class="st0" d="M244.7,54.4c1.3-1,2.2-2.3,2.7-4h2.2c-0.3,1.5-0.9,2.8-1.8,4s-2,2-3.4,2.7c-1.4,0.6-2.9,1-4.5,1
		c-1.9,0-3.7-0.5-5.3-1.4c-1.6-0.9-2.9-2.2-3.8-3.8s-1.4-3.4-1.4-5.4c0-2,0.5-3.8,1.4-5.4s2.2-2.9,3.8-3.8c1.6-0.9,3.4-1.4,5.3-1.4
		c1.6,0,3.1,0.3,4.5,1c1.4,0.6,2.5,1.5,3.4,2.7c0.9,1.1,1.5,2.5,1.8,4h-2.2c-0.4-1.7-1.3-3-2.7-4c-1.3-1-2.9-1.5-4.8-1.5
		c-1.6,0-3,0.4-4.3,1.1s-2.3,1.8-3,3.1c-0.7,1.3-1.1,2.8-1.1,4.4c0,1.6,0.4,3.1,1.1,4.4c0.7,1.3,1.8,2.3,3,3.1s2.7,1.1,4.3,1.1
		C241.8,55.9,243.4,55.4,244.7,54.4z"/>
	<path class="st0" d="M265.4,44.3c1.1,0.6,2,1.5,2.7,2.6c0.7,1.1,1,2.4,1,3.7c0,1.4-0.3,2.6-1,3.7c-0.6,1.1-1.5,2-2.7,2.7
		c-1.1,0.7-2.4,1-3.7,1s-2.6-0.3-3.7-1c-1.1-0.6-2-1.5-2.7-2.7c-0.7-1.1-1-2.4-1-3.7s0.3-2.6,1-3.7c0.6-1.1,1.5-2,2.7-2.6
		c1.1-0.6,2.4-1,3.7-1S264.3,43.6,265.4,44.3z M264.4,55.4c0.8-0.5,1.4-1.2,1.9-2c0.5-0.8,0.7-1.8,0.7-2.8c0-1-0.2-1.9-0.7-2.7
		s-1.1-1.5-1.9-2c-0.8-0.5-1.7-0.7-2.7-0.7c-1,0-1.9,0.2-2.7,0.7c-0.8,0.5-1.5,1.1-1.9,2s-0.7,1.7-0.7,2.7c0,1,0.2,1.9,0.7,2.8
		c0.5,0.9,1.1,1.5,1.9,2c0.8,0.5,1.7,0.7,2.7,0.7S263.6,55.9,264.4,55.4z"/>
	<path class="st0" d="M294.5,44c0.9,0.5,1.5,1.2,2,2.2c0.5,1,0.7,2.1,0.7,3.4v8h-2v-7.9c0-1.4-0.3-2.6-1-3.3
		c-0.7-0.8-1.7-1.2-2.9-1.2c-0.9,0-1.7,0.2-2.5,0.7c-0.8,0.4-1.4,1.1-2,2c0.1,0.5,0.2,1.1,0.2,1.8v8h-2v-7.9c0-1.4-0.4-2.5-1.1-3.3
		c-0.7-0.8-1.7-1.2-2.9-1.2c-0.8,0-1.6,0.2-2.4,0.6c-0.7,0.4-1.4,1.1-1.9,1.9v9.9h-2V43.7h2v1.6c0.6-0.7,1.3-1.2,2-1.5
		c0.7-0.3,1.6-0.5,2.6-0.5c1,0,1.9,0.2,2.8,0.7s1.5,1.1,2,1.9c0.7-0.9,1.5-1.5,2.4-1.9c0.9-0.4,2-0.6,3.2-0.6
		C292.6,43.2,293.6,43.5,294.5,44z"/>
	<path class="st0" d="M313.8,44.3c1.1,0.7,2,1.5,2.6,2.7c0.6,1.1,1,2.3,1,3.7c0,1.3-0.3,2.6-1,3.7c-0.6,1.1-1.5,2-2.6,2.7
		s-2.3,1-3.6,1c-2,0-3.7-0.6-5-1.9v9h-2V43.7h2v1.6c1.3-1.3,3-2,5-2C311.5,43.3,312.7,43.6,313.8,44.3z M312.7,55.4
		c0.8-0.5,1.5-1.2,2-2c0.5-0.9,0.7-1.8,0.7-2.7c0-1-0.2-1.9-0.7-2.7c-0.5-0.8-1.1-1.5-2-2s-1.7-0.8-2.7-0.8c-1,0-1.9,0.2-2.7,0.6
		c-0.8,0.4-1.5,1.1-2.1,1.9v5.8c0.6,0.9,1.3,1.5,2.1,1.9c0.8,0.4,1.7,0.6,2.7,0.6C310.9,56.1,311.8,55.9,312.7,55.4z"/>
	<path class="st0" d="M334.4,57.5V56c-1.3,1.3-3,1.9-5,1.9c-1.3,0-2.5-0.3-3.6-1c-1.1-0.6-2-1.5-2.6-2.7c-0.6-1.1-1-2.3-1-3.7
		c0-1.3,0.3-2.5,1-3.7s1.5-2,2.6-2.7c1.1-0.6,2.3-1,3.6-1c2,0,3.7,0.6,5,1.9v-1.6h2v13.9H334.4z M332.3,55.5
		c0.8-0.4,1.5-1.1,2.1-1.9v-6c-0.6-0.8-1.3-1.4-2.1-1.9c-0.8-0.4-1.7-0.6-2.7-0.6c-1,0-1.9,0.2-2.7,0.8s-1.5,1.2-1.9,2
		c-0.5,0.8-0.7,1.8-0.7,2.7c0,1,0.2,1.9,0.7,2.8c0.5,0.8,1.1,1.5,1.9,2s1.7,0.8,2.7,0.8C330.6,56.1,331.5,55.9,332.3,55.5z"/>
	<path class="st0" d="M353.2,44c0.9,0.5,1.6,1.2,2.1,2.2s0.8,2.1,0.8,3.4v8h-2v-7.9c0-1.4-0.4-2.5-1.2-3.3c-0.8-0.8-1.8-1.2-3.1-1.2
		c-0.9,0-1.8,0.2-2.6,0.7s-1.6,1.1-2.2,1.9v9.8h-2V43.7h2v1.7c0.7-0.7,1.4-1.2,2.3-1.5c0.9-0.4,1.8-0.6,2.8-0.6
		C351.3,43.2,352.3,43.5,353.2,44z"/>
	<path class="st0" d="M362.4,39.4c-0.3-0.3-0.4-0.6-0.4-1c0-0.4,0.1-0.7,0.4-1c0.3-0.3,0.6-0.4,1-0.4c0.4,0,0.7,0.1,1,0.4
		c0.3,0.3,0.4,0.6,0.4,1c0,0.4-0.1,0.7-0.4,1c-0.3,0.3-0.6,0.4-1,0.4C363.1,39.8,362.7,39.7,362.4,39.4z M362.4,57.5V43.7h2v13.9
		H362.4z"/>
	<path class="st0" d="M384.4,51.4l-0.1-0.1v0.1h-11.7c0.2,1.4,0.7,2.5,1.6,3.4s2.1,1.3,3.6,1.3c1,0,1.8-0.2,2.5-0.6s1.2-0.9,1.5-1.6
		h2.2c-0.4,1.2-1.2,2.1-2.3,2.8c-1.1,0.7-2.5,1.1-4,1.1c-1.4,0-2.6-0.3-3.7-1c-1.1-0.6-2-1.5-2.6-2.6s-0.9-2.4-0.9-3.7
		s0.3-2.6,0.9-3.7c0.6-1.1,1.5-2,2.6-2.6c1.1-0.6,2.3-1,3.7-1c1.3,0,2.5,0.3,3.5,0.9c1,0.6,1.8,1.5,2.4,2.6c0.6,1.1,0.9,2.3,0.9,3.7
		C384.5,50.9,384.4,51.2,384.4,51.4z M374.2,46.4c-0.9,0.9-1.4,2-1.6,3.4h9.8c-0.1-1.4-0.6-2.6-1.5-3.4c-0.8-0.9-1.9-1.3-3.3-1.3
		C376.2,45.1,375.1,45.5,374.2,46.4z"/>
	<path class="st0" d="M392.4,55.5c0.8,0.5,1.8,0.8,3.1,0.8c1.1,0,2.1-0.2,2.7-0.7c0.7-0.5,1-1,1-1.8c0-0.6-0.2-1.1-0.6-1.5
		c-0.4-0.4-1-0.6-1.8-0.7l-3.2-0.5c-2.7-0.4-4.1-1.7-4.1-3.7c0-1.2,0.5-2.2,1.5-3s2.4-1.1,4-1.1c1.6,0,2.9,0.4,4.1,1.1
		c1.1,0.7,1.8,1.8,1.9,3.3h-1.9c-0.1-0.9-0.6-1.6-1.3-2.1c-0.7-0.5-1.7-0.7-2.8-0.7c-1.1,0-1.9,0.2-2.6,0.6c-0.6,0.4-1,1-1,1.7
		c0,1.2,0.9,1.9,2.7,2.2l2.8,0.5c2.8,0.5,4.1,1.7,4.1,3.8c0,1.3-0.5,2.4-1.6,3.1s-2.5,1.2-4.2,1.2c-1.8,0-3.3-0.4-4.4-1.2
		c-1.1-0.8-1.8-2-2-3.5h1.9C391.2,54.2,391.6,55,392.4,55.5z"/>
</g>
</svg>
