<svg xmlns="http://www.w3.org/2000/svg" viewBox="0 0 427.07 71.05"><defs><style>.cls-1{font-size:30px;fill:#fff;font-family:MarkOT-Heavy, Mark OT;letter-spacing:0.08em;}.cls-2{letter-spacing:0.09em;}.cls-3{letter-spacing:0.1em;}.cls-4{letter-spacing:0.1em;}.cls-5{letter-spacing:0.09em;}.cls-6{letter-spacing:0.1em;}.cls-7{letter-spacing:0.09em;}.cls-8{letter-spacing:0.1em;}.cls-9{letter-spacing:0.1em;}.cls-10{letter-spacing:0.1em;}.cls-11{letter-spacing:0.09em;}.cls-12{letter-spacing:0.08em;}.cls-13{letter-spacing:0.07em;}.cls-14{letter-spacing:0.09em;}.cls-15{letter-spacing:0.1em;}.cls-16{letter-spacing:0.09em;}.cls-17{letter-spacing:0.1em;}.cls-18{letter-spacing:0.09em;}.cls-19{letter-spacing:0.1em;}.cls-20{letter-spacing:0.1em;}.cls-21{letter-spacing:0.1em;}.cls-22{letter-spacing:0.1em;}.cls-23{letter-spacing:0.09em;}</style></defs><title>Asset 1</title><g id="Layer_2" data-name="Layer 2"><g id="レイヤー1"><text class="cls-1" transform="translate(49.07 25.5)">C<tspan class="cls-2" x="24.74" y="0">r</tspan><tspan class="cls-3" x="39.69" y="0">e</tspan><tspan class="cls-4" x="59.25" y="0">a</tspan><tspan class="cls-5" x="80.24" y="0">t</tspan><tspan class="cls-6" x="97.4" y="0">e </tspan><tspan class="cls-7" x="126.79" y="0">T</tspan><tspan class="cls-8" x="147.76" y="0">h</tspan><tspan class="cls-6" x="168" y="0">e </tspan><tspan class="cls-9" x="197.38" y="0">B</tspan><tspan class="cls-10" x="220.9" y="0">o</tspan><tspan class="cls-8" x="241.51" y="0">n</tspan><tspan class="cls-6" x="261.74" y="0">d </tspan><tspan class="cls-11" x="292.58" y="0">o</tspan><tspan class="cls-6" x="313.1" y="0">f</tspan><tspan class="cls-9"><tspan x="-49.07" y="38.17">I</tspan><tspan class="cls-12" x="-37.21" y="38.17">n</tspan><tspan class="cls-13" x="-17.66" y="38.17">v</tspan><tspan class="cls-14" x="1.6" y="38.17">e</tspan><tspan class="cls-15" x="21.05" y="38.17">s</tspan><tspan class="cls-16" x="39.15" y="38.17">t</tspan><tspan class="cls-17" x="56.23" y="38.17">o</tspan><tspan class="cls-18" x="76.83" y="38.17">r</tspan><tspan class="cls-6" x="91.75" y="38.17">s </tspan><tspan class="cls-19" x="119.74" y="38.17">a</tspan><tspan class="cls-8" x="140.81" y="38.17">n</tspan><tspan class="cls-6" x="161.04" y="38.17">d </tspan><tspan class="cls-18" x="191.88" y="38.17">C</tspan><tspan class="cls-10" x="216.81" y="38.17">o</tspan><tspan class="cls-6" x="237.41" y="38.17">m</tspan><tspan class="cls-20" x="267.13" y="38.17">p</tspan><tspan class="cls-19" x="288.18" y="38.17">a</tspan><tspan class="cls-21" x="309.24" y="38.17">n</tspan><tspan class="cls-22" x="329.47" y="38.17">i</tspan><tspan class="cls-23" x="340.3" y="38.17">e</tspan><tspan class="cls-6" x="359.75" y="38.17">s</tspan></tspan></text></g></g></svg>