<svg xmlns="http://www.w3.org/2000/svg" viewBox="0 0 602 52.3"><defs><style>.cls-1{fill:none;stroke:#ff4736;stroke-linecap:round;stroke-miterlimit:10;stroke-width:2px;}.cls-2{fill:#ff4736;}</style></defs><title>3-2_mission&amp;amp;line</title><g id="レイヤー_2" data-name="レイヤー 2"><g id="上のバー"><line class="cls-1" x1="601" y1="51.3" x2="1" y2="51.3"/><path class="cls-2" d="M26,21.3H23.6V3L16.28,19H13.75L6.44,3.12V21.3H4V.3H7.69L15,16.17,22.34.3H26Z"/><path class="cls-2" d="M38.24,21.3H35.83V.3h2.42Z"/><path class="cls-2" d="M61.76,4.27a11.09,11.09,0,0,0-6.33-2C52.27,2.31,50,3.73,50,6.1c0,2,1.58,3,4.84,3.41l2,.24c3.46.42,6.55,1.89,6.55,5.52,0,4.15-3.78,6.31-8.31,6.31a13.75,13.75,0,0,1-8.25-2.7L48.16,17a11.5,11.5,0,0,0,6.92,2.34c3.25,0,5.82-1.32,5.82-3.82,0-2-1.75-3.06-5.08-3.44l-2.12-.24c-3.58-.41-6.19-2.07-6.19-5.55,0-4,3.55-6.23,8-6.23A12.74,12.74,0,0,1,63,2.32Z"/><path class="cls-2" d="M85.7,4.27a11.09,11.09,0,0,0-6.33-2c-3.17,0-5.43,1.42-5.43,3.79,0,2,1.58,3,4.84,3.41l2,.24c3.46.42,6.55,1.89,6.55,5.52,0,4.15-3.78,6.31-8.31,6.31a13.75,13.75,0,0,1-8.25-2.7L72.1,17A11.5,11.5,0,0,0,79,19.3c3.25,0,5.82-1.32,5.82-3.82,0-2-1.75-3.06-5.08-3.44l-2.12-.24C74,11.4,71.44,9.73,71.44,6.25c0-4,3.55-6.23,8-6.23a12.74,12.74,0,0,1,7.54,2.29Z"/><path class="cls-2" d="M98.35,21.3H95.93V.3h2.42Z"/><path class="cls-2" d="M128.63,10.8a10.84,10.84,0,0,1-21.69,0,10.84,10.84,0,0,1,21.69,0Zm-19.15,0a8.32,8.32,0,1,0,16.63,0,8.32,8.32,0,1,0-16.63,0Z"/><path class="cls-2" d="M154.84,21.3h-2.17l-13-16.86V21.3h-2.42V.3h2.17l13,16.86V.3h2.42Z"/><path class="cls-2" d="M174.65,3.51A7.35,7.35,0,0,1,181.09,0c4.26,0,6.71,2.79,6.71,6.5A8.64,8.64,0,0,1,185,12.46l-6.27,6.63h9.78V21.3H175.27V19.48l7.93-8.37a6.56,6.56,0,0,0,2.16-4.59A4.07,4.07,0,0,0,181,2.23a5.42,5.42,0,0,0-4.68,2.63Z"/></g></g></svg>