<svg xmlns="http://www.w3.org/2000/svg" viewBox="0 0 184.45 21.6"><defs><style>.cls-1{fill:#ff4736;}</style></defs><title>アセット 4</title><g id="レイヤー_2" data-name="レイヤー 2"><g id="レイヤー1"><path class="cls-1" d="M22,21.3H19.57V3L12.25,19H9.72L2.42,3.12V21.3H0V.3H3.66L11,16.17,18.31.3H22Z"/><path class="cls-1" d="M34.21,21.3H31.8V.3h2.42Z"/><path class="cls-1" d="M57.73,4.27a11.09,11.09,0,0,0-6.33-2C48.24,2.31,46,3.73,46,6.1c0,2,1.57,3,4.84,3.41l2,.24c3.46.42,6.55,1.89,6.55,5.52,0,4.15-3.78,6.31-8.31,6.31a13.75,13.75,0,0,1-8.25-2.7L44.13,17A11.51,11.51,0,0,0,51,19.3c3.25,0,5.82-1.32,5.82-3.82,0-2-1.75-3.06-5.08-3.44l-2.12-.24c-3.58-.41-6.19-2.07-6.19-5.55C43.47,2.26,47,0,51.42,0A12.74,12.74,0,0,1,59,2.32Z"/><path class="cls-1" d="M81.67,4.27a11.09,11.09,0,0,0-6.33-2c-3.17,0-5.43,1.42-5.43,3.79,0,2,1.57,3,4.84,3.41l2,.24c3.46.42,6.55,1.89,6.55,5.52,0,4.15-3.78,6.31-8.31,6.31a13.75,13.75,0,0,1-8.25-2.7L68.07,17A11.51,11.51,0,0,0,75,19.3c3.25,0,5.82-1.32,5.82-3.82,0-2-1.75-3.06-5.08-3.44L73.6,11.8C70,11.4,67.41,9.73,67.41,6.25,67.41,2.26,71,0,75.36,0A12.74,12.74,0,0,1,82.9,2.32Z"/><path class="cls-1" d="M94.32,21.3H91.9V.3h2.42Z"/><path class="cls-1" d="M124.6,10.8a10.84,10.84,0,0,1-21.69,0,10.84,10.84,0,0,1,21.69,0Zm-19.15,0a8.32,8.32,0,1,0,16.63,0,8.32,8.32,0,1,0-16.63,0Z"/><path class="cls-1" d="M150.81,21.3h-2.17l-13-16.86V21.3h-2.42V.3h2.17l13,16.86V.3h2.41Z"/><path class="cls-1" d="M170.62,3.51A7.35,7.35,0,0,1,177.06,0c4.26,0,6.71,2.79,6.71,6.5a8.64,8.64,0,0,1-2.82,5.94l-6.27,6.63h9.78V21.3H171.24V19.48l7.93-8.37a6.56,6.56,0,0,0,2.16-4.59A4.07,4.07,0,0,0,177,2.23a5.42,5.42,0,0,0-4.68,2.63Z"/></g></g></svg>