<svg xmlns="http://www.w3.org/2000/svg" viewBox="0 0 60 60"><defs><style>.cls-1{fill:#ff4736;}</style></defs><title>アセット 6</title><g id="レイヤー_2" data-name="レイヤー 2"><g id="レイヤー1"><path class="cls-1" d="M24.67,41.66c10.83,0,16.76-9,16.76-16.76,0-.25,0-.51,0-.76a12,12,0,0,0,2.94-3A11.76,11.76,0,0,1,41,22a5.91,5.91,0,0,0,2.59-3.26,11.8,11.8,0,0,1-3.74,1.43,5.9,5.9,0,0,0-10,5.37,16.72,16.72,0,0,1-12.14-6.15,5.89,5.89,0,0,0,1.82,7.86,5.85,5.85,0,0,1-2.67-.74v.07a5.89,5.89,0,0,0,4.73,5.77,5.88,5.88,0,0,1-2.66.1,5.9,5.9,0,0,0,5.5,4.09A11.82,11.82,0,0,1,17,39.1a12,12,0,0,1-1.4-.08,16.67,16.67,0,0,0,9,2.64"/><path class="cls-1" d="M30,2A28,28,0,1,1,2,30,28,28,0,0,1,30,2m0-2A30,30,0,1,0,60,30,30,30,0,0,0,30,0Z"/></g></g></svg>