<svg xmlns="http://www.w3.org/2000/svg" viewBox="0 0 360 60"><defs><style>.cls-1{fill:gray;}.cls-2{fill:#fff;}</style></defs><title>6-1_login</title><g id="レイヤー_2" data-name="レイヤー 2"><g id="上のバー"><rect class="cls-1" width="360" height="60"/><path class="cls-2" d="M131,39.06V41H128a31.11,31.11,0,0,0,.14-3.42V23.63a19.44,19.44,0,0,0-.14-2.91c1.37.08,1.9.11,3.47.11h13.27a26.79,26.79,0,0,0,3.39-.14,25.91,25.91,0,0,0-.11,2.94V37.55a30.93,30.93,0,0,0,.11,3.44h-3V39.06Zm14.06-15.6H131v13h14.06Z"/><path class="cls-2" d="M165.53,18.76a4.79,4.79,0,0,0-.59,1.06,23.44,23.44,0,0,1-1.15,2.35,8.62,8.62,0,0,1,1.2-.08l5.57-.08a5.11,5.11,0,0,0,1.79-.22l2.35,2.49a4.14,4.14,0,0,0-.64,1.54,30.36,30.36,0,0,1-5.38,9.72,27.44,27.44,0,0,1-9.88,7.06,7.08,7.08,0,0,0-2-2.41,23.65,23.65,0,0,0,9.69-6.69,24.45,24.45,0,0,0,4.76-8.9l-8.85.14a28.35,28.35,0,0,1-6.58,7.17,6.16,6.16,0,0,0-2.27-2,21.49,21.49,0,0,0,7.17-8,11.59,11.59,0,0,0,1.57-3.86Zm8.26-.81a18.74,18.74,0,0,1,2.91,4.2l-1.74,1a20.56,20.56,0,0,0-2.91-4.28Zm3.28-1.6a17.41,17.41,0,0,1,2.88,4.09l-1.71,1a21.39,21.39,0,0,0-2.86-4.2Z"/><path class="cls-2" d="M204.31,20.3a14.27,14.27,0,0,0-1.26,1.2,45,45,0,0,1-6.44,5.57V38.36a27.32,27.32,0,0,0,.17,3.7h-3.33a23.72,23.72,0,0,0,.17-3.7V28.93a43.62,43.62,0,0,1-10.3,4.68,9.67,9.67,0,0,0-1.57-2.69,39.77,39.77,0,0,0,14.62-7.25,22.86,22.86,0,0,0,5.26-5.26Z"/><path class="cls-2" d="M211.59,37.94a25.33,25.33,0,0,0,8.23-2.1,19.22,19.22,0,0,0,8.34-6.8,24.52,24.52,0,0,0,2.94-5.66,9.46,9.46,0,0,0,2.44,2.3c-2.32,5.07-5,8.32-8.74,10.86a29,29,0,0,1-10.58,4.2,11.87,11.87,0,0,0-1.76.45Zm2.13-17.36a38.16,38.16,0,0,1,7.06,5.35l-2,2.49a30.52,30.52,0,0,0-7-5.6Z"/></g></g></svg>