<svg xmlns="http://www.w3.org/2000/svg" viewBox="0 0 300 35"><defs><style>.cls-1{fill:gray;}.cls-2{fill:#fff;}</style></defs><title>アセット 9</title><g id="レイヤー_2" data-name="レイヤー 2"><g id="レイヤー1"><rect class="cls-1" width="300" height="35"/><path class="cls-2" d="M98.11,22.07A12.5,12.5,0,0,0,100,22v1.5a14.22,14.22,0,0,0-1.82-.07H89.87a14.21,14.21,0,0,0-1.82.07V22a11.24,11.24,0,0,0,1.85.1h5c.38-1.75.71-4,.92-5.9H91.45a14,14,0,0,0-1.77.07V14.73a10.47,10.47,0,0,0,1.77.11h4a3.82,3.82,0,0,0,1.32-.14l.74.64a3.41,3.41,0,0,0-.28,1.12c-.27,2-.49,3.43-.9,5.6Z"/><path class="cls-2" d="M102.09,18.26a16.08,16.08,0,0,0,2.16.1h7.58a14.23,14.23,0,0,0,2.09-.08V19.9a20.68,20.68,0,0,0-2.1-.07h-7.55a20,20,0,0,0-2.17.07Z"/><path class="cls-2" d="M123.8,16.06V14.8a7.81,7.81,0,0,0-.06-1.43h1.53a4.26,4.26,0,0,0-.06.94v1.75h1A9.11,9.11,0,0,0,128,16v1.46a13.28,13.28,0,0,0-1.72-.07h-1.05a23.38,23.38,0,0,1-.1,2.42,5.55,5.55,0,0,1-2,4,7.76,7.76,0,0,1-2.65,1.42,3.12,3.12,0,0,0-.88-1.25,6.27,6.27,0,0,0,2.69-1.34,4.45,4.45,0,0,0,1.48-3.42c0-.37,0-.87.06-1.78H119.9V19a16.22,16.22,0,0,0,.07,1.7h-1.58a13.41,13.41,0,0,0,.08-1.65v-1.7h-1a11.9,11.9,0,0,0-1.72.08V16a9.81,9.81,0,0,0,1.75.1h1V14.77a12.37,12.37,0,0,0-.08-1.41H120a13.76,13.76,0,0,0-.07,1.4v1.3Zm2.58-3.49a9.41,9.41,0,0,1,1,2.23l-.87.28a8.86,8.86,0,0,0-1-2.27Zm1.64-.42a9.3,9.3,0,0,1,1,2.17l-.83.29a9.67,9.67,0,0,0-1-2.2Z"/><path class="cls-2" d="M130.09,18.26a16.08,16.08,0,0,0,2.16.1h7.58a14.23,14.23,0,0,0,2.09-.08V19.9a20.68,20.68,0,0,0-2.1-.07h-7.55a20,20,0,0,0-2.17.07Z"/><path class="cls-2" d="M155.87,15.26a3.15,3.15,0,0,0-.28.31A15.6,15.6,0,0,1,154.26,17a11.4,11.4,0,0,0,2.31,1.11,3.74,3.74,0,0,0-.63,1.16,12.5,12.5,0,0,1-3.45-2.1V18a6.19,6.19,0,0,0-1-.06h-2.94a6.76,6.76,0,0,0-1.06.06v-.88a13.18,13.18,0,0,1-3.42,2.16,3.25,3.25,0,0,0-.66-1.08,13,13,0,0,0,2.87-1.6,13.86,13.86,0,0,0-1.95-1.68l.87-.77a18.91,18.91,0,0,1,2,1.71,8.69,8.69,0,0,0,1.51-1.68h-2.14a6.73,6.73,0,0,0-.87.06V13a5.6,5.6,0,0,0,1.09.07h2.65a8,8,0,0,0,1.22-.06,3.57,3.57,0,0,0,1,1.72,8,8,0,0,0,1.27-1.62l1,.67a21.45,21.45,0,0,1-1.54,1.68c.41.38.64.57,1,.86a8.4,8.4,0,0,0,1.48-1.78ZM147.64,24a6.8,6.8,0,0,0-.67-1.3l1.13-.42a12,12,0,0,1,.8,1.72h2.23a9.5,9.5,0,0,0,.83-1.77l1.18.45c-.31.57-.57,1.05-.76,1.32h2.55a7.42,7.42,0,0,0,1.37-.08v1.3a9.63,9.63,0,0,0-1.44-.08H145.2a9.68,9.68,0,0,0-1.43.08V24a7.26,7.26,0,0,0,1.36.08Zm-.85-1.78a9.24,9.24,0,0,0-1,0,7.77,7.77,0,0,0,.06-1V19.67a5.24,5.24,0,0,0-.07-1,9.28,9.28,0,0,0,1.12.06h6.32a7.87,7.87,0,0,0,1.08-.06,9.17,9.17,0,0,0,0,1v1.64c0,.43,0,.67,0,1a9.07,9.07,0,0,0-1,0Zm.24-1.05h6V19.83h-6Zm4.48-4.31h.7A10.67,10.67,0,0,1,150,14.34a10.92,10.92,0,0,1-2.24,2.54,6,6,0,0,0,.76,0Z"/><path class="cls-2" d="M159.65,17.25a5.85,5.85,0,0,0-.85.05v-.77c-.27.25-.36.34-.67.59a2.86,2.86,0,0,0-.59-1.08A6.84,6.84,0,0,0,160,12.89h1.32a5.87,5.87,0,0,0,2,2.45,5.54,5.54,0,0,0-.71,1l-.15-.14v1.05a7.84,7.84,0,0,0-.87,0h-.43V18.4h.57a7.48,7.48,0,0,0,1.06-.06V17.17a8.55,8.55,0,0,0,1.32.08h3.68c0-.58,0-.58.07-1H165a9.77,9.77,0,0,0-1.23.06V15.19a6.94,6.94,0,0,0,1.23.07h2.94c0-.28,0-.28.06-1h-3.26a10.91,10.91,0,0,0-1.33.06V13.19a9.16,9.16,0,0,0,1.37.07H168a11.47,11.47,0,0,0,1.33-.06,5.16,5.16,0,0,0-.08.83c-.06,1.21-.11,2-.2,3.22h.17a8.69,8.69,0,0,0,1.34-.08v1.19a11.81,11.81,0,0,0-1.33-.07h-2a7.82,7.82,0,0,0,.78,2.3,7.27,7.27,0,0,0,1.44-1.81l1,.66a16.14,16.14,0,0,1-1.89,2.07,7.14,7.14,0,0,0,2.31,2.21,4.42,4.42,0,0,0-.74,1.13,8.8,8.8,0,0,1-2-2.09A9.34,9.34,0,0,1,167,20.51c.06,1,.08,1.55.08,1.95v1.92c0,.92-.32,1.19-1.47,1.19-.2,0-.29,0-1.19-.07a3.73,3.73,0,0,0-.27-1.19,7,7,0,0,0,1.29.14c.39,0,.5-.07.5-.36V22.42a21.81,21.81,0,0,1-2.55,1.85l-.56-1.09a13.3,13.3,0,0,0,2-1.15,13.86,13.86,0,0,0,1.15-.88V18.29h-1.83a9.45,9.45,0,0,0-1.23.06v1.19a6.44,6.44,0,0,0-1.15-.07h-.57v3.82c.52-.14.81-.24,1.55-.5v1.09A26.48,26.48,0,0,1,159,25c-.67.15-.74.17-1,.25l-.21-1.3a10.73,10.73,0,0,0,2.27-.35V19.46h-.83a11.08,11.08,0,0,0-1.34.07V18.33a11.2,11.2,0,0,0,1.36.07h.81V17.25Zm-1,5.9a13.28,13.28,0,0,0-.6-2.79l.92-.29a15.33,15.33,0,0,1,.64,2.77Zm3-6.93a5.88,5.88,0,0,0,.8,0,7.57,7.57,0,0,1-1.68-2.24,8.71,8.71,0,0,1-1.6,2.27h2.48Zm-.14,6.09A9.1,9.1,0,0,0,162,20l.92.31a14,14,0,0,1-.67,2.31Zm2.72-3.53a10.15,10.15,0,0,1,1.2,2.13l-.92.6a9.45,9.45,0,0,0-1.2-2.26Z"/><path class="cls-2" d="M175.91,25.66a10.19,10.19,0,0,1-1.69-2.86,10.06,10.06,0,0,1-.71-3.71,9.64,9.64,0,0,1,.7-3.61,10.53,10.53,0,0,1,1.7-2.86h1.65a10,10,0,0,0-1.92,2.83,8.78,8.78,0,0,0-.74,3.64,9.25,9.25,0,0,0,.76,3.74,9.9,9.9,0,0,0,1.92,2.83Z"/><path class="cls-2" d="M180.76,15.72a11.33,11.33,0,0,1-1.27,1.13,4.62,4.62,0,0,0-.9-.87,7.82,7.82,0,0,0,2.65-2.86,2.66,2.66,0,0,0,.28-.73l1.39.29c-.13.2-.13.21-.28.49a8.71,8.71,0,0,1-.53.85H189a13.14,13.14,0,0,0,1.78-.08v1.29c-.46,0-.88-.06-1.46-.07v2.13h.63a7.25,7.25,0,0,0,1.37-.08v1.33a7.33,7.33,0,0,0-1.37-.08h-.63V20.6h.36a8.42,8.42,0,0,0,1.34-.07v1.3a8.51,8.51,0,0,0-1.33-.08h-9.37a8.23,8.23,0,0,0-1.27.08V20.51a8.78,8.78,0,0,0,1.36.08h.35V18.47h-.64a7.69,7.69,0,0,0-1.37.08V17.22a7.08,7.08,0,0,0,1.37.08h.64Zm-2,8.92A6.44,6.44,0,0,0,180.54,22l1.06.56a9,9,0,0,1-1.81,2.89Zm3.14-7.34h1.36V15.18h-1.36Zm0,3.29h1.36V18.47h-1.36Zm.94,4.83a18.18,18.18,0,0,0-.24-3l1.12-.15a18.9,18.9,0,0,1,.39,3Zm2.86-8.12V15.18h-1.37v2.13Zm0,3.29V18.47h-1.37V20.6Zm.39,4.79a15.73,15.73,0,0,0-.69-2.9l1.11-.28a14.28,14.28,0,0,1,.83,2.87Zm2.07-8.08V15.18h-1.4v2.13Zm0,3.29V18.47h-1.4V20.6Zm1.91,4.78a12.91,12.91,0,0,0-1.7-2.86l1-.5a13.87,13.87,0,0,1,1.79,2.66Z"/><path class="cls-2" d="M194.2,18.61a7.29,7.29,0,0,0-1.25.07V17.43a6.71,6.71,0,0,0,1.25.07h1V14.2a11.49,11.49,0,0,0-.07-1.43h1.36a8.9,8.9,0,0,0-.07,1.41V17.5h.73a6.79,6.79,0,0,0,1.05-.06v1.22a8,8,0,0,0-1.08-.06h-.6a8,8,0,0,0,1.89,2.21,5.93,5.93,0,0,0-.6,1.11,10,10,0,0,1-1.47-2c0,.56.08,1.39.08,1.79v2.45a8.66,8.66,0,0,0,.08,1.48h-1.39a9.56,9.56,0,0,0,.08-1.51v-2c0-.6,0-1.32.07-1.88a10.32,10.32,0,0,1-2,3.5,3.67,3.67,0,0,0-.64-1.18A10.36,10.36,0,0,0,195,18.61Zm-.28-5a16.45,16.45,0,0,1,.9,3l-1,.42a11.66,11.66,0,0,0-.88-3Zm4.71.39A16,16,0,0,1,197.51,17l-.87-.45a11.09,11.09,0,0,0,1-3Zm4.16.35a10.49,10.49,0,0,0-.08-1.55h1.44a9.46,9.46,0,0,0-.08,1.55v6.22a10.34,10.34,0,0,0,1.32-.38l.24,1.34a11.86,11.86,0,0,0-1.34.24l-.21.06V24a11.72,11.72,0,0,0,.08,1.6H202.7a9.29,9.29,0,0,0,.08-1.61V22.1l-3.26.76a13.23,13.23,0,0,0-1.32.35l-.28-1.36a7.51,7.51,0,0,0,1.36-.21l3.5-.8Zm-3.42,2.91a13.36,13.36,0,0,1,2.48,2.09l-.8,1a11.9,11.9,0,0,0-2.49-2.17Zm.45-3.5a13.24,13.24,0,0,1,2.47,2.13l-.78,1a12.08,12.08,0,0,0-2.51-2.2Z"/><path class="cls-2" d="M206.45,25.66a9.89,9.89,0,0,0,1.92-2.83,9.2,9.2,0,0,0,.76-3.74,8.73,8.73,0,0,0-.74-3.64,10,10,0,0,0-1.92-2.83h1.65a10.18,10.18,0,0,1,1.69,2.86,9.59,9.59,0,0,1,.7,3.61,9.73,9.73,0,0,1-.71,3.71,10.19,10.19,0,0,1-1.69,2.86Z"/></g></g></svg>