<svg xmlns="http://www.w3.org/2000/svg" viewBox="0 0 360 60"><defs><style>.cls-1{fill:gray;}.cls-2{fill:#fff;}</style></defs><title>6-2_user-touroku</title><g id="レイヤー_2" data-name="レイヤー 2"><g id="上のバー"><rect class="cls-1" width="360" height="60"/><path class="cls-2" d="M76.21,36.18a25.12,25.12,0,0,0,3.7-.2v3a28.62,28.62,0,0,0-3.64-.14H59.74A28.65,28.65,0,0,0,56.1,39V36a22.49,22.49,0,0,0,3.7.2h9.91c.76-3.5,1.43-7.9,1.85-11.79H62.91a27.9,27.9,0,0,0-3.53.14v-3a20.91,20.91,0,0,0,3.53.22H71a7.62,7.62,0,0,0,2.63-.28l1.48,1.29A6.8,6.8,0,0,0,74.55,25c-.53,4-1,6.86-1.79,11.2Z"/><path class="cls-2" d="M84.19,28.56a32.26,32.26,0,0,0,4.31.2h15.15a28.56,28.56,0,0,0,4.17-.17v3.25a41,41,0,0,0-4.2-.14H88.53a39.82,39.82,0,0,0-4.34.14Z"/><path class="cls-2" d="M127.59,24.17V21.65a15.6,15.6,0,0,0-.11-2.86h3.05a8.58,8.58,0,0,0-.11,1.88l0,3.5h2a18.17,18.17,0,0,0,3.47-.2v2.91a26.69,26.69,0,0,0-3.44-.14h-2.1a47.26,47.26,0,0,1-.2,4.84,11.09,11.09,0,0,1-4,7.9,15.53,15.53,0,0,1-5.29,2.83,6.23,6.23,0,0,0-1.76-2.49,12.54,12.54,0,0,0,5.38-2.69c1.9-1.68,2.72-3.53,3-6.83.06-.73.08-1.74.11-3.56H119.8V30a32.08,32.08,0,0,0,.14,3.39h-3.16a27,27,0,0,0,.17-3.3V26.74h-2a23.92,23.92,0,0,0-3.44.17V24a19.6,19.6,0,0,0,3.5.2h1.93V21.59a24.74,24.74,0,0,0-.17-2.83h3.16a27.19,27.19,0,0,0-.14,2.8v2.6Zm5.15-7a18.79,18.79,0,0,1,1.93,4.45l-1.74.56A17.65,17.65,0,0,0,131,17.67Zm3.28-.84a18.59,18.59,0,0,1,1.93,4.34l-1.65.59a19.31,19.31,0,0,0-1.93-4.4Z"/><path class="cls-2" d="M140.19,28.56a32.26,32.26,0,0,0,4.31.2h15.15a28.56,28.56,0,0,0,4.17-.17v3.25a41,41,0,0,0-4.2-.14H144.53a39.82,39.82,0,0,0-4.34.14Z"/><path class="cls-2" d="M191.73,22.57a6.17,6.17,0,0,0-.56.62A31.31,31.31,0,0,1,188.51,26a22.87,22.87,0,0,0,4.62,2.21,7.45,7.45,0,0,0-1.26,2.32A25,25,0,0,1,185,26.3V28a12.65,12.65,0,0,0-2-.11h-5.88A13.78,13.78,0,0,0,175,28V26.27a26.32,26.32,0,0,1-6.83,4.31,6.49,6.49,0,0,0-1.32-2.16,25.9,25.9,0,0,0,5.74-3.19,27.69,27.69,0,0,0-3.89-3.36l1.74-1.54a37.68,37.68,0,0,1,3.95,3.42,17.34,17.34,0,0,0,3-3.36h-4.28a13.46,13.46,0,0,0-1.74.11V18.12a11.12,11.12,0,0,0,2.18.14h5.29a16.07,16.07,0,0,0,2.44-.11,7.13,7.13,0,0,0,2.07,3.44,16.07,16.07,0,0,0,2.55-3.25l2,1.34A43.4,43.4,0,0,1,184.79,23c.81.76,1.29,1.15,2,1.71a16.76,16.76,0,0,0,3-3.56ZM175.27,40.13a13.5,13.5,0,0,0-1.34-2.6l2.27-.84a24,24,0,0,1,1.6,3.44h4.45a18.94,18.94,0,0,0,1.65-3.53l2.35.9c-.62,1.15-1.15,2.1-1.51,2.63h5.1a14.83,14.83,0,0,0,2.74-.17v2.6a19.38,19.38,0,0,0-2.88-.17H170.4a19.46,19.46,0,0,0-2.86.17V40a14.49,14.49,0,0,0,2.72.17Zm-1.71-3.56a19.29,19.29,0,0,0-2.07.08,15.49,15.49,0,0,0,.11-2V31.39a10.48,10.48,0,0,0-.14-1.9,18.14,18.14,0,0,0,2.24.11h12.63a15.41,15.41,0,0,0,2.16-.11,18.1,18.1,0,0,0-.08,1.9v3.28a19.85,19.85,0,0,0,.08,2,19,19,0,0,0-2.07-.08Zm.48-2.1H186V31.7H174Zm9-8.62c.7,0,.81,0,1.4,0a21.34,21.34,0,0,1-4.42-5.1,21.84,21.84,0,0,1-4.48,5.07,11.81,11.81,0,0,0,1.51.06Z"/><path class="cls-2" d="M199.29,26.55a11.43,11.43,0,0,0-1.71.11V25.12c-.53.5-.73.67-1.34,1.18a5.73,5.73,0,0,0-1.18-2.16,13.66,13.66,0,0,0,5-6.3h2.63a11.74,11.74,0,0,0,4,4.9,11.08,11.08,0,0,0-1.43,2.07l-.31-.28v2.1a15.16,15.16,0,0,0-1.74-.08h-.87v2.3h1.15a15,15,0,0,0,2.13-.11V26.38a17.11,17.11,0,0,0,2.63.17h7.36c.08-1.15.08-1.15.14-2H210a19.13,19.13,0,0,0-2.46.11V22.43a13.74,13.74,0,0,0,2.46.14h5.88c.06-.56.06-.56.11-1.93h-6.52a21.75,21.75,0,0,0-2.66.11V18.43a18.18,18.18,0,0,0,2.74.14h6.36a22.72,22.72,0,0,0,2.66-.11,10.58,10.58,0,0,0-.17,1.65c-.11,2.41-.22,4.09-.39,6.44h.34a17.4,17.4,0,0,0,2.69-.17v2.38a23.08,23.08,0,0,0-2.66-.14H214.3v0a15.61,15.61,0,0,0,1.57,4.59,14.51,14.51,0,0,0,2.88-3.61l2,1.32A32.36,32.36,0,0,1,217,35.09a14.3,14.3,0,0,0,4.62,4.42,8.83,8.83,0,0,0-1.48,2.27,17.62,17.62,0,0,1-3.95-4.17A18.7,18.7,0,0,1,214,33.07c.11,1.9.17,3.11.17,3.89V40.8c0,1.85-.64,2.38-2.94,2.38-.39,0-.59,0-2.38-.14a7.45,7.45,0,0,0-.53-2.38,14,14,0,0,0,2.58.28c.78,0,1-.14,1-.73V36.88a43.58,43.58,0,0,1-5.1,3.7l-1.12-2.18a26.84,26.84,0,0,0,3.92-2.3,27.42,27.42,0,0,0,2.3-1.76V28.62h-3.67a18.83,18.83,0,0,0-2.46.11v2.38a13,13,0,0,0-2.3-.14h-1.15v7.64c1-.28,1.62-.48,3.11-1l0,2.18A53,53,0,0,1,198,41.95c-1.34.31-1.48.34-2,.5l-.42-2.6a21.44,21.44,0,0,0,4.54-.7V31h-1.65a22.58,22.58,0,0,0-2.69.14V28.7a22.37,22.37,0,0,0,2.72.14h1.62v-2.3Zm-2,11.79a26.6,26.6,0,0,0-1.2-5.57l1.85-.59a30.46,30.46,0,0,1,1.29,5.54Zm6-13.86a11.91,11.91,0,0,0,1.6-.08,15.14,15.14,0,0,1-3.36-4.48,17.42,17.42,0,0,1-3.19,4.54c.45,0,.67,0,1.09,0Zm-.28,12.18A18.14,18.14,0,0,0,204.08,32l1.85.62a28,28,0,0,1-1.34,4.62Zm5.43-7.06a20.23,20.23,0,0,1,2.41,4.26l-1.85,1.2a18.86,18.86,0,0,0-2.41-4.51Z"/><path class="cls-2" d="M231.8,43.35a20.38,20.38,0,0,1-3.39-5.71A20.08,20.08,0,0,1,227,30.22a19.27,19.27,0,0,1,1.4-7.22,21.09,21.09,0,0,1,3.39-5.71h3.3a19.92,19.92,0,0,0-3.84,5.66,17.54,17.54,0,0,0-1.48,7.28,18.49,18.49,0,0,0,1.51,7.48,19.76,19.76,0,0,0,3.84,5.66Z"/><path class="cls-2" d="M241.52,23.49A22.46,22.46,0,0,1,239,25.76,9.19,9.19,0,0,0,237.18,24a15.62,15.62,0,0,0,5.29-5.71,5.3,5.3,0,0,0,.56-1.46l2.77.59c-.25.39-.25.42-.56,1a17.54,17.54,0,0,1-1.06,1.71H258a26.59,26.59,0,0,0,3.56-.17v2.58c-.92-.08-1.76-.11-2.91-.14v4.26h1.26a14.49,14.49,0,0,0,2.74-.17v2.66a14.75,14.75,0,0,0-2.74-.17h-1.26v4.26h.73A16.73,16.73,0,0,0,262,33.1v2.6a17.26,17.26,0,0,0-2.66-.17H240.65a16.71,16.71,0,0,0-2.55.17V33.07a17.45,17.45,0,0,0,2.72.17h.7V29h-1.29a15.46,15.46,0,0,0-2.74.17V26.49a14.13,14.13,0,0,0,2.74.17h1.29Zm-4,17.84a12.86,12.86,0,0,0,3.53-5.26l2.13,1.12A18,18,0,0,1,239.59,43Zm6.27-14.67h2.72V22.4h-2.72Zm0,6.58h2.72V29h-2.72Zm1.88,9.66a36.41,36.41,0,0,0-.48-6l2.24-.31a38,38,0,0,1,.78,6Zm5.71-16.24V22.4h-2.74v4.26Zm0,6.58V29h-2.74v4.26Zm.78,9.58a31.38,31.38,0,0,0-1.37-5.8l2.21-.56a28.47,28.47,0,0,1,1.65,5.74Zm4.14-16.16V22.4h-2.8v4.26Zm0,6.58V29h-2.8v4.26Zm3.81,9.55a25.75,25.75,0,0,0-3.39-5.71l2-1a27.67,27.67,0,0,1,3.58,5.32Z"/><path class="cls-2" d="M268.4,29.26a14.59,14.59,0,0,0-2.49.14V26.91a13.31,13.31,0,0,0,2.49.14h2V20.44a22.74,22.74,0,0,0-.14-2.86H273a17.82,17.82,0,0,0-.14,2.83v6.64h1.46a13.6,13.6,0,0,0,2.1-.11v2.44a15.93,15.93,0,0,0-2.16-.11H273a15.87,15.87,0,0,0,3.78,4.42,11.84,11.84,0,0,0-1.2,2.21,20,20,0,0,1-2.94-4.09c.08,1.12.17,2.77.17,3.58v4.9a17.31,17.31,0,0,0,.17,3h-2.77a19.25,19.25,0,0,0,.17-3V36.15c0-1.2.06-2.63.14-3.75a20.63,20.63,0,0,1-3.92,7A7.31,7.31,0,0,0,265.35,37,20.72,20.72,0,0,0,270,29.26Zm-.56-10.05a32.89,32.89,0,0,1,1.79,6l-2,.84a23.28,23.28,0,0,0-1.76-6Zm9.41.78A32,32,0,0,1,275,26.1l-1.74-.9a22.08,22.08,0,0,0,2-6.08Zm8.32.7a21,21,0,0,0-.17-3.11h2.88a18.8,18.8,0,0,0-.17,3.11V33.13a20.48,20.48,0,0,0,2.63-.76l.48,2.69a24.1,24.1,0,0,0-2.69.48l-.42.11V40a23.37,23.37,0,0,0,.17,3.19h-2.88a18.54,18.54,0,0,0,.17-3.22V36.23L279,37.75a26.75,26.75,0,0,0-2.63.7l-.56-2.72a15.07,15.07,0,0,0,2.72-.42l7-1.6Zm-6.83,5.82a26.7,26.7,0,0,1,5,4.17l-1.6,1.9a23.77,23.77,0,0,0-5-4.34Zm.9-7a26.45,26.45,0,0,1,4.93,4.26L283,25.71a24.11,24.11,0,0,0-5-4.4Z"/><path class="cls-2" d="M292.9,43.35a19.76,19.76,0,0,0,3.84-5.66,18.39,18.39,0,0,0,1.51-7.48,17.46,17.46,0,0,0-1.48-7.28,19.94,19.94,0,0,0-3.84-5.66h3.3A20.39,20.39,0,0,1,299.62,23a19.16,19.16,0,0,1,1.4,7.22,19.42,19.42,0,0,1-1.43,7.42,20.38,20.38,0,0,1-3.39,5.71Z"/></g></g></svg>