<svg xmlns="http://www.w3.org/2000/svg" viewBox="0 0 160 120"><defs><style>.cls-1,.cls-3{fill:none;}.cls-2{fill:#fff;}.cls-3{stroke:#fff;stroke-miterlimit:10;}</style></defs><title>2-1_ceo-aisatsu</title><g id="レイヤー_2" data-name="レイヤー 2"><g id="上のバー"><rect class="cls-1" width="160" height="120"/><path class="cls-2" d="M13.56,76.74a5.6,5.6,0,0,0-1.13-2.11A5.25,5.25,0,0,0,8.28,72.9c-3.89,0-6.34,3-6.34,7.75s2.47,7.78,6.34,7.78a5.47,5.47,0,0,0,4.49-2,5.36,5.36,0,0,0,1-2.4l2,.48a7.77,7.77,0,0,1-1.3,2.86,7.45,7.45,0,0,1-6.22,2.78A7.64,7.64,0,0,1,2.59,88,10.21,10.21,0,0,1,0,80.72a10.25,10.25,0,0,1,2.74-7.46,7.58,7.58,0,0,1,5.5-2,7.32,7.32,0,0,1,5.38,1.94,7.35,7.35,0,0,1,1.87,3Z" transform="translate(19.55 18.07)"/><path class="cls-2" d="M36.67,90A15.73,15.73,0,0,0,34,89.79h-7c-1.15,0-1.82,0-2.64.07A16.57,16.57,0,0,0,24.5,87V74.22a17.74,17.74,0,0,0-.19-2.74c.84,0,1.49.07,2.64.07h6.84a17.89,17.89,0,0,0,2.69-.17v2a16.86,16.86,0,0,0-2.69-.17H26.4v6.14h6.31a18.77,18.77,0,0,0,2.69-.17v2a16.27,16.27,0,0,0-2.69-.17H26.4v7.06H34a17.75,17.75,0,0,0,2.66-.17Z" transform="translate(19.55 18.07)"/><path class="cls-2" d="M61,80.67c0,5.78-3.24,9.48-8.3,9.48s-8.28-3.7-8.28-9.48,3.26-9.48,8.3-9.48S61,74.89,61,80.67Zm-4.1,6.14A8.59,8.59,0,0,0,59,80.67a8.44,8.44,0,0,0-2.11-6.14,5.85,5.85,0,0,0-4.2-1.66c-3.84,0-6.36,3.07-6.36,7.78s2.54,7.8,6.38,7.8A5.68,5.68,0,0,0,56.86,86.82Z" transform="translate(19.55 18.07)"/><path class="cls-2" d="M71.33,76.14a12.91,12.91,0,0,0-1.73.1V74.67a9.42,9.42,0,0,0,1.73.12h1.13V72.54a14.27,14.27,0,0,0-.17-2.4h1.8a14,14,0,0,0-.17,2.38v2.28h.89a8.56,8.56,0,0,0,1.42-.1v1.54a9.49,9.49,0,0,0-1.49-.1h-.82v4.7a26.38,26.38,0,0,0,2.38-1.15l0,1.44c-.94.48-1.08.55-2.42,1.18V89.7c0,1.39-.5,1.7-2.69,1.7-.41,0-.67,0-1.22,0a3.82,3.82,0,0,0-.34-1.49,16.42,16.42,0,0,0,1.94.14c.65,0,.84-.14.84-.6V83c-1.7.72-2.64,1.1-2.78,1.2l-.43-1.61a17.57,17.57,0,0,0,3.22-1.08V76.14Zm8,4.15A15.33,15.33,0,0,1,77.21,83,4.09,4.09,0,0,0,76,82.16a10.29,10.29,0,0,0,2.18-2.62,8.89,8.89,0,0,0,1.2-2.86l1.54.48c-.43.94-.58,1.27-.86,1.82H87.1a13.9,13.9,0,0,0,2.71-.14v1.58a19.65,19.65,0,0,0-2.66-.14H84.08a19.52,19.52,0,0,1-.34,3.41h4.63A17.2,17.2,0,0,0,91,83.55v1.63A17,17,0,0,0,88.35,85h-4a10.44,10.44,0,0,0,7.06,5.26,4.75,4.75,0,0,0-.86,1.49,12,12,0,0,1-7.32-6.07A8.62,8.62,0,0,1,79.75,90a13.34,13.34,0,0,1-4,1.75,4.79,4.79,0,0,0-.89-1.39,10.8,10.8,0,0,0,4.37-1.78A7.3,7.3,0,0,0,81.89,85H78.48a16.63,16.63,0,0,0-2.64.17V83.55a14.13,14.13,0,0,0,2.59.14h3.82a15.33,15.33,0,0,0,.31-3.41Zm-2.52-5.52a11.48,11.48,0,0,0,2.21.1,17.76,17.76,0,0,0,2.42-4.8l1.7.43a48.66,48.66,0,0,1-2.52,4.34c2.54,0,3.7-.12,6.43-.34A30.23,30.23,0,0,0,84.75,72l1.18-.67a45.63,45.63,0,0,1,4.66,5.4l-1.27.91c-.65-1-.89-1.32-1.3-1.87-4.27.34-5.5.38-9.53.48-.55,0-1.1.07-1.49.12Z" transform="translate(19.55 18.07)"/><path class="cls-2" d="M102.56,72.46a14,14,0,0,0-.17-2.42h1.82a13.53,13.53,0,0,0-.17,2.4v2.33h1a7.41,7.41,0,0,0,1.63-.12v1.56a10.52,10.52,0,0,0-1.61-.1h-1v5a29,29,0,0,0,3-1.27l0,1.42c-1.46.7-2,.91-3,1.32v7.25c0,1.37-.46,1.63-2.76,1.63l-1.22,0a3.94,3.94,0,0,0-.34-1.54,14.22,14.22,0,0,0,2.21.14c.48,0,.62-.1.62-.43V83.14l-.48.19-1.3.46a12.19,12.19,0,0,0-1.18.46l-.43-1.63a14.92,14.92,0,0,0,3.38-1V76.11h-1.34a12.52,12.52,0,0,0-1.8.12V74.65a11.65,11.65,0,0,0,1.82.12h1.32Zm14.81,8.35A5.75,5.75,0,0,0,119,80.7l.79,1c-.17.29-.22.36-.62,1.08a18.66,18.66,0,0,1-5.88,6.36,17.94,17.94,0,0,1-6.41,2.74,4.32,4.32,0,0,0-.91-1.39,17.77,17.77,0,0,0,7.66-3.38,19.22,19.22,0,0,0-3.55-2.3L111,83.7a21.29,21.29,0,0,1,3.7,2.42,17,17,0,0,0,3.14-4h-6.7a17.47,17.47,0,0,1-4.61,4.15,3.53,3.53,0,0,0-1.1-1.13A14.93,14.93,0,0,0,110,81.32a8.49,8.49,0,0,0,1.42-2.59l1.61.58a5,5,0,0,0-.46.77l-.46.74Zm-6.14-10.18c-.19.29-.31.46-.55.86a21.61,21.61,0,0,1-2.16,3.19,25.87,25.87,0,0,1,2.57,4.13l-1.42.67a22.19,22.19,0,0,0-2.78-4.8A13.86,13.86,0,0,0,109.62,70Zm4.46,0c-.26.38-.26.38-.94,1.51a26.32,26.32,0,0,1-1.66,2.42,27.26,27.26,0,0,1,2.59,4.06l-1.37.65a23.42,23.42,0,0,0-2.86-4.73,13.7,13.7,0,0,0,2.64-4.61Zm4.66,0c-.1.12-.43.62-.55.84a24.83,24.83,0,0,1-2,3.1,32.2,32.2,0,0,1,3,4l-1.32.84a23.88,23.88,0,0,0-3.34-4.75A14.09,14.09,0,0,0,118.71,70Z" transform="translate(19.55 18.07)"/><line class="cls-3" x1="69.22" y1="43.69" x2="68.67" y2="41.5"/><line class="cls-3" x1="67.61" y1="35.7" x2="67.85" y2="37.57"/><path class="cls-3" d="M92.82,55.28c0-2.21-5.65-5.44-14.35-8.61S67,40.84,67,35.14c0-3.43,2.69-3.4,4.2-9.53.9,0,3.58-.33,4-4s-2.4-4-2.4-4C73.7,8.63,69.41.5,60.45.5S47.19,8.63,48.06,17.62c0,0-2.83.33-2.4,4s3.11,4,4,4c1.51,6.13,4.2,6.1,4.2,9.53,0,5.7-2.78,8.37-11.44,11.53s-14.35,6.39-14.35,8.61" transform="translate(19.55 18.07)"/><line class="cls-3" x1="90.78" y1="43.69" x2="91.33" y2="41.5"/><line class="cls-3" x1="92.39" y1="35.7" x2="92.15" y2="37.57"/><circle class="cls-2" cx="85.43" cy="36.24" r="0.89"/><circle class="cls-2" cx="74.57" cy="36.24" r="0.89"/><path class="cls-3" d="M63.26,35.82c2.18-.7,3.36-1.8,4.92-3.9" transform="translate(19.55 18.07)"/></g></g></svg>