<svg xmlns="http://www.w3.org/2000/svg" viewBox="0 0 160 120"><defs><style>.cls-1,.cls-3{fill:none;}.cls-2{fill:#fff;}.cls-3{stroke:#fff;}</style></defs><title>2-3_member</title><g id="レイヤー_2" data-name="レイヤー 2"><g id="上のバー"><rect class="cls-1" width="160" height="120"/><path class="cls-2" d="M16.23,71.59a6.74,6.74,0,0,0-.74,1.46,39.31,39.31,0,0,1-3.53,7,61.93,61.93,0,0,1,5.52,5.16l-1.34,1.49a34.31,34.31,0,0,0-5.23-5.21,28.65,28.65,0,0,1-9.65,8.35A4.29,4.29,0,0,0,0,88.42a25.57,25.57,0,0,0,9.55-8A45.47,45.47,0,0,0,3.1,76.06l1.2-1.27A68.89,68.89,0,0,1,10.54,79a33,33,0,0,0,2.83-5.59,10.52,10.52,0,0,0,.84-2.54Z" transform="translate(30.24 18.54)"/><path class="cls-2" d="M27.47,87.39a20.9,20.9,0,0,0,7-1.85,18.14,18.14,0,0,0,9.79-10.68,4.81,4.81,0,0,0,1.46,1.42,21,21,0,0,1-7.32,9.17,24.21,24.21,0,0,1-9,3.58A12.66,12.66,0,0,0,28,89.4ZM29,72.51A31.3,31.3,0,0,1,34.79,77l-1.25,1.49a26.53,26.53,0,0,0-5.71-4.7Z" transform="translate(30.24 18.54)"/><path class="cls-2" d="M59.89,72.39A8.72,8.72,0,0,0,59.58,74c-1,6.84-3,11.45-6.34,15a5.25,5.25,0,0,0-1.54-1.25A15.42,15.42,0,0,0,55.19,83a27.81,27.81,0,0,0,2.47-8.33,18.94,18.94,0,0,0,.24-2.26,2.71,2.71,0,0,0,0-.38ZM66.54,72a29,29,0,0,0,1.1,5.76,21.19,21.19,0,0,0,5.45,9.91A5.21,5.21,0,0,0,71.6,89C68.41,85.66,66,80.11,65.07,74a10.52,10.52,0,0,0-.31-1.58Zm2.54-1.27a17.79,17.79,0,0,1,2.4,3.77l-1.22.7a18.11,18.11,0,0,0-2.38-3.86Zm2.74-1.25a18.38,18.38,0,0,1,2.4,3.79l-1.2.65a18.8,18.8,0,0,0-2.38-3.82Z" transform="translate(30.24 18.54)"/><path class="cls-2" d="M80,79.27a17,17,0,0,0,3,.14H96.93a18.9,18.9,0,0,0,2.9-.12v1.94a27.47,27.47,0,0,0-2.93-.1H83a26.24,26.24,0,0,0-3,.1Z" transform="translate(30.24 18.54)"/><polygon class="cls-3" points="79.25 28.61 73.72 38.19 62.67 38.19 57.14 28.61 62.67 19.04 73.72 19.04 79.25 28.61"/><polygon class="cls-3" points="95.83 38.19 90.31 47.76 79.25 47.76 73.72 38.19 79.25 28.61 90.31 28.61 95.83 38.19"/><polygon class="cls-3" points="79.25 47.76 73.72 57.34 62.67 57.34 57.14 47.76 62.67 38.19 73.72 38.19 79.25 47.76"/><polygon class="cls-3" points="62.67 57.34 57.14 66.91 46.08 66.91 40.56 57.34 46.08 47.76 57.14 47.76 62.67 57.34"/><polygon class="cls-3" points="112.42 28.61 106.89 38.19 95.83 38.19 90.31 28.61 95.83 19.04 106.89 19.04 112.42 28.61"/><polygon class="cls-3" points="95.83 57.34 90.31 66.91 79.25 66.91 73.72 57.34 79.25 47.76 90.31 47.76 95.83 57.34"/><polygon class="cls-3" points="112.42 66.91 106.89 76.49 95.83 76.49 90.31 66.91 95.83 57.34 106.89 57.34 112.42 66.91"/></g></g></svg>