<svg xmlns="http://www.w3.org/2000/svg" viewBox="0 0 160 120"><defs><style>.cls-1,.cls-3{fill:none;}.cls-2{fill:#fff;}.cls-3{stroke:#fff;stroke-miterlimit:10;}</style></defs><title>2-2_mission</title><g id="レイヤー_2" data-name="レイヤー 2"><g id="上のバー"><rect class="cls-1" width="160" height="120"/><path class="cls-2" d="M.72,84.12a72.69,72.69,0,0,1,15.34,4l-.67,1.75a41,41,0,0,0-8.14-2.69A71.87,71.87,0,0,0,0,85.72Zm1.87-6.74a76.48,76.48,0,0,1,11.83,2.81l-.62,1.73A56.13,56.13,0,0,0,1.9,79ZM3,70.82a75.57,75.57,0,0,1,12.1,2.64l-.62,1.75A61.7,61.7,0,0,0,2.33,72.43Z" transform="translate(18.67 18.52)"/><path class="cls-2" d="M27.7,76.31a26.4,26.4,0,0,1,2.38,5.33l-1.63.55a19.78,19.78,0,0,0-2.26-5.38Zm13.54-.14a14,14,0,0,0-.53,1.94,21.59,21.59,0,0,1-2.11,5.38,17.4,17.4,0,0,1-7.94,6.94,4.86,4.86,0,0,0-1.1-1.34c3.7-1.66,6-3.5,7.61-6.26a18.1,18.1,0,0,0,2-5.16A10,10,0,0,0,39.46,76v-.24Zm-8.64-.82a24.06,24.06,0,0,1,2.33,5.16l-1.58.55a21,21,0,0,0-2.21-5.26Z" transform="translate(18.67 18.52)"/><path class="cls-2" d="M53,76.77a36.62,36.62,0,0,1,6.1,3.14l-.94,1.61A26.67,26.67,0,0,0,52,78.23Zm-.62,11a20.76,20.76,0,0,0,6.46-1.49A15.81,15.81,0,0,0,66,80.9a17.86,17.86,0,0,0,2.88-5.38,7.22,7.22,0,0,0,1.49,1.27c-2.09,5-5,8.26-9.24,10.34a27.43,27.43,0,0,1-6.07,2.06l-1.3.26a5.66,5.66,0,0,0-.94.26ZM54.87,71a35.48,35.48,0,0,1,6,3l-1,1.61a25.25,25.25,0,0,0-5.9-3.17Z" transform="translate(18.67 18.52)"/><path class="cls-2" d="M83.13,89.59a10.7,10.7,0,0,0-2.09.1V88a12.34,12.34,0,0,0,2.09.14h9.22V83.64H83.9a10.58,10.58,0,0,0-2.06.1V82.1a12,12,0,0,0,2.09.14h8.42V78.07h-9a10.84,10.84,0,0,0-2.09.1V76.51a12,12,0,0,0,2.09.14H92.3c.77,0,1.2,0,1.63,0,0,.62,0,1,0,1.85V89.3a7.63,7.63,0,0,0,.1,1.49H92.35v-1.2Z" transform="translate(18.67 18.52)"/><path class="cls-2" d="M105.67,87.4a20.9,20.9,0,0,0,7-1.85,18.14,18.14,0,0,0,9.79-10.68,4.81,4.81,0,0,0,1.46,1.42,21,21,0,0,1-7.32,9.17,24.21,24.21,0,0,1-9,3.58,12.66,12.66,0,0,0-1.44.38Zm1.54-14.88A31.3,31.3,0,0,1,113,77l-1.25,1.49a26.53,26.53,0,0,0-5.71-4.7Z" transform="translate(18.67 18.52)"/><line class="cls-3" x1="66.57" y1="19.02" x2="66.57" y2="72.46"/><line class="cls-3" x1="77.03" y1="72.46" x2="56.12" y2="72.46"/><polyline class="cls-3" points="69.36 19.02 103.88 19.02 95.27 30.32 103.88 41.63 69.36 41.63"/></g></g></svg>