<svg xmlns="http://www.w3.org/2000/svg" viewBox="0 0 150 150"><defs><style>.cls-1,.cls-3{fill:none;}.cls-2{fill:#fff;}.cls-3{stroke:#fff;stroke-miterlimit:10;}</style></defs><title>アセット 2 1</title><g id="レイヤー_2" data-name="レイヤー 2"><g id="レイヤー1"><rect class="cls-1" width="150" height="150"/><path class="cls-2" d="M.72,105.76a72.69,72.69,0,0,1,15.34,4l-.67,1.75a41,41,0,0,0-8.14-2.69A71.88,71.88,0,0,0,0,107.37ZM2.59,99a76.48,76.48,0,0,1,11.83,2.81l-.62,1.73A56.12,56.12,0,0,0,1.9,100.62ZM3,92.46a75.56,75.56,0,0,1,12.1,2.64l-.62,1.75A61.71,61.71,0,0,0,2.33,94.07Z" transform="translate(13.67 21.63)"/><path class="cls-2" d="M27.7,98a26.35,26.35,0,0,1,2.38,5.33l-1.63.55a19.8,19.8,0,0,0-2.26-5.38Zm13.54-.14a14.14,14.14,0,0,0-.53,1.94,21.62,21.62,0,0,1-2.11,5.38,17.4,17.4,0,0,1-7.94,6.94,4.86,4.86,0,0,0-1.1-1.34c3.7-1.66,6-3.5,7.61-6.26a18.11,18.11,0,0,0,2-5.16,10.09,10.09,0,0,0,.26-1.63v-.24ZM32.59,97a24.08,24.08,0,0,1,2.33,5.16l-1.58.55a21.06,21.06,0,0,0-2.21-5.26Z" transform="translate(13.67 21.63)"/><path class="cls-2" d="M53,98.42a36.64,36.64,0,0,1,6.1,3.14l-.94,1.61A26.66,26.66,0,0,0,52,99.88Zm-.62,11a20.75,20.75,0,0,0,6.46-1.49,15.81,15.81,0,0,0,7.2-5.35,17.87,17.87,0,0,0,2.88-5.38,7.24,7.24,0,0,0,1.49,1.27c-2.09,5-5,8.26-9.24,10.34a27.41,27.41,0,0,1-6.07,2.06l-1.3.26a5.64,5.64,0,0,0-.94.26Zm2.5-16.71a35.49,35.49,0,0,1,6,3l-1,1.61a25.25,25.25,0,0,0-5.9-3.17Z" transform="translate(13.67 21.63)"/><path class="cls-2" d="M83.13,111.23a10.7,10.7,0,0,0-2.09.1v-1.68a12.34,12.34,0,0,0,2.09.14h9.22v-4.51H83.9a10.57,10.57,0,0,0-2.06.1v-1.63a12,12,0,0,0,2.09.14h8.42V99.71h-9a10.84,10.84,0,0,0-2.09.1V98.15a12,12,0,0,0,2.09.14H92.3c.77,0,1.2,0,1.63,0,0,.62,0,1,0,1.85v10.85a7.57,7.57,0,0,0,.1,1.49H92.35v-1.2Z" transform="translate(13.67 21.63)"/><path class="cls-2" d="M105.67,109a20.89,20.89,0,0,0,7-1.85,18.14,18.14,0,0,0,9.79-10.68,4.81,4.81,0,0,0,1.46,1.42,21.05,21.05,0,0,1-7.32,9.17,24.2,24.2,0,0,1-9,3.58,12.64,12.64,0,0,0-1.44.38Zm1.54-14.88A31.27,31.27,0,0,1,113,98.68l-1.25,1.49a26.51,26.51,0,0,0-5.71-4.7Z" transform="translate(13.67 21.63)"/><line class="cls-3" x1="59.33" y1="22.13" x2="59.33" y2="84.5"/><line class="cls-3" x1="71.53" y1="84.5" x2="47.13" y2="84.5"/><polyline class="cls-3" points="62.58 22.13 102.86 22.13 92.83 35.32 102.86 48.52 62.58 48.52"/></g></g></svg>