<svg xmlns="http://www.w3.org/2000/svg" viewBox="0 0 150 150"><defs><style>.cls-1,.cls-3{fill:none;}.cls-2{fill:#fff;}.cls-3{stroke:#fff;stroke-miterlimit:10;}</style></defs><title>アセット 4</title><g id="レイヤー_2" data-name="レイヤー 2"><g id="レイヤー1"><rect class="cls-1" width="150" height="150"/><path class="cls-2" d="M11.88,96a16.14,16.14,0,0,0,4,4.3,25.93,25.93,0,0,0,6.62,3.84,5.08,5.08,0,0,0-.94,1.54,33,33,0,0,1-6.67-4.18,19.93,19.93,0,0,1-3.84-4.1,20.78,20.78,0,0,1-3.6,3.94A26.36,26.36,0,0,1,1,105.52a4.82,4.82,0,0,0-1-1.37,25.18,25.18,0,0,0,6.36-3.91A17.65,17.65,0,0,0,10.18,96ZM3.77,109.36A20.59,20.59,0,0,0,1,109.5v-1.73a20.55,20.55,0,0,0,2.74.14H18.55a20.3,20.3,0,0,0,2.74-.14v1.73a20.85,20.85,0,0,0-2.74-.14H9.94a36.13,36.13,0,0,1-3,5.66c3.31-.22,5.81-.46,9.36-.89-1.44-1.56-1.87-2-2.93-3l1.25-.77a51.9,51.9,0,0,1,5.81,6.34l-1.32,1c-.94-1.32-1.25-1.73-1.75-2.35-4.27.58-7.9,1-11.64,1.25a28.78,28.78,0,0,0-4.06.43l-.29-1.82a11.09,11.09,0,0,0,1.22.07c.38,0,.38,0,2.54-.14a36.17,36.17,0,0,0,3-5.78Zm1.54-6a12.67,12.67,0,0,0,1.9.1H15a14.55,14.55,0,0,0,2-.1V105a14.77,14.77,0,0,0-2-.1H7.18a13.8,13.8,0,0,0-1.87.1Z" transform="translate(19.59 16.95)"/><path class="cls-2" d="M35.47,115.29a15.51,15.51,0,0,0,.14,2.35H33.83a16.31,16.31,0,0,0,.14-2.38V107.8a24.62,24.62,0,0,1-3.31,2.83,4.51,4.51,0,0,0-.89-1.34,20.68,20.68,0,0,0,4.32-3.55,16.28,16.28,0,0,0,3-4.46H32.58a16.59,16.59,0,0,0-1.92.1V99.78a15.76,15.76,0,0,0,1.87.1H34V97.65a13.77,13.77,0,0,0-.12-1.85h1.8a10.24,10.24,0,0,0-.14,1.87v2.21h1.39a8.76,8.76,0,0,0,1.39-.07l.74.84c-.17.26-.31.53-.58,1a20.68,20.68,0,0,1-2.64,4.08A14.56,14.56,0,0,0,39.67,109a5.76,5.76,0,0,0-.82,1.32,15.59,15.59,0,0,1-3.38-3Zm8.33-17.23a14.27,14.27,0,0,0-.17-2.18h1.9a11.31,11.31,0,0,0-.17,2.18v5.18H48.5a15.51,15.51,0,0,0,2.35-.14v1.68c-.74-.07-1.51-.12-2.35-.12H45.35V114.9h3.79a16.71,16.71,0,0,0,2.59-.14v1.8a16.36,16.36,0,0,0-2.59-.17H40.51a15.84,15.84,0,0,0-2.57.17v-1.8a16.7,16.7,0,0,0,2.59.14h3.26V104.65H41.42c-.82,0-1.61,0-2.35.12v-1.68a15.3,15.3,0,0,0,2.35.14h2.38Z" transform="translate(19.59 16.95)"/><path class="cls-2" d="M63.46,101.82a12,12,0,0,0,2.38,4.39,5.7,5.7,0,0,0-.89,1.1A14.17,14.17,0,0,1,63.34,104c0,.55,0,.55,0,1.66,0,.41,0,1.44,0,1.92v7.37a19.69,19.69,0,0,0,.14,2.78H61.9A20.91,20.91,0,0,0,62,114.9V108c0-.86,0-1.7.12-3.62a22.17,22.17,0,0,1-1.42,4.49,18.26,18.26,0,0,1-1.42,2.64,4.66,4.66,0,0,0-.91-1.22A19.08,19.08,0,0,0,61,105.16a21.68,21.68,0,0,0,.91-3.34H60.82a10.34,10.34,0,0,0-1.68.1v-1.46a9.79,9.79,0,0,0,1.68.1H62V98.27a14.74,14.74,0,0,0-.12-2.47h1.61a15.65,15.65,0,0,0-.12,2.47v2.28h.65a9.43,9.43,0,0,0,1.58-.1v1.46a9.67,9.67,0,0,0-1.56-.1Zm4,10.7a24.82,24.82,0,0,0,3-1.75,21.82,21.82,0,0,0-1.37-2.26l1.08-.48a24.67,24.67,0,0,1,2.28,3.89l-1.15.67c-.17-.38-.22-.5-.34-.79a45.54,45.54,0,0,1-4.46,2.69,16.52,16.52,0,0,0-1.63,1L64.21,114a13.65,13.65,0,0,0,2-.82V99.35a21,21,0,0,0-.1-2.47c.5,0,1.08.07,1.85.07h2.26c.74,0,1.37,0,1.85-.07a17.2,17.2,0,0,0-.1,2.3V105a14.07,14.07,0,0,0,.1,2.21,13.2,13.2,0,0,0-2.06-.1H67.5Zm3.17-11.18V98.22H67.5v3.12Zm-3.17,4.54h3.17v-3.29H67.5Zm7.39,1.18a20.77,20.77,0,0,0-2.28.1v-1.51a9.18,9.18,0,0,0,1.3.12V98.29c-.62,0-.79,0-1.22.07V96.9a12.52,12.52,0,0,0,2.09.12h3.91a12.2,12.2,0,0,0,1.9-.12v1.49a12.54,12.54,0,0,0-1.61-.1,34.87,34.87,0,0,1-1.39,7.46h.86a14.52,14.52,0,0,0,2.3-.12v1.54a15.46,15.46,0,0,0-2.33-.12H77.1c-.29.72-.43,1-.72,1.7h1.25a7.33,7.33,0,0,0-.12,1.58V115c0,.62.1.7.86.7s1-.12,1.18-.62a13.83,13.83,0,0,0,.24-3.24,3.91,3.91,0,0,0,1.32.6c-.12,2.23-.31,3.36-.65,3.91s-.86.7-2.16.7c-1.73,0-2.11-.29-2.11-1.56v-6.29a20.57,20.57,0,0,1-6.79,8.4,5.23,5.23,0,0,0-1.18-1.13c3.46-2.14,5.69-5,7.51-9.38Zm1.32-1.3a28.13,28.13,0,0,0,1.39-7.46H75.25v7.46Z" transform="translate(19.59 16.95)"/><path class="cls-2" d="M96.44,108.52a12.66,12.66,0,0,0,1.34-2.16h-4a25.24,25.24,0,0,0-2.76.1,16.45,16.45,0,0,0,.1-2.09v-1.73a18.41,18.41,0,0,0-.1-2.18,24.39,24.39,0,0,0,2.59.12h2.74V98.25h-4.2a18.78,18.78,0,0,0-2.66.12V96.78a17.88,17.88,0,0,0,2.71.14h15.15a18,18,0,0,0,2.74-.14v1.58a19.2,19.2,0,0,0-2.66-.12h-4.49v2.33h2.86a23.9,23.9,0,0,0,2.62-.12,17.65,17.65,0,0,0-.1,2.18v1.7a15.46,15.46,0,0,0,.1,2.11,24.4,24.4,0,0,0-2.76-.1H99.47c-.67,1.18-.82,1.37-1.34,2.16h9.29a17.51,17.51,0,0,0,2.69-.14V110a21.14,21.14,0,0,0-2.69-.12h-2.64a10.36,10.36,0,0,1-2.88,3.79,79.82,79.82,0,0,1,7.68,2.86l-1.08,1.32a57.74,57.74,0,0,0-7.92-3.22c-2.71,1.68-5.71,2.52-10.56,2.93a5.51,5.51,0,0,0-.7-1.49,21.39,21.39,0,0,0,9.43-2c-1.87-.55-3.58-1-6-1.46a23.9,23.9,0,0,0,2.64-2.74H92.12a20.51,20.51,0,0,0-2.66.12v-1.58a17.58,17.58,0,0,0,2.66.14ZM92.6,101.8v3.34h3.77V101.8Zm4.56,8a21.3,21.3,0,0,1-1.82,2c2.23.5,3.07.72,4.9,1.27a7.74,7.74,0,0,0,2.83-3.31Zm.58-9.26h3.84V98.25H97.74Zm0,4.56h3.84V101.8H97.74Zm5.21,0h3.91V101.8h-3.91Z" transform="translate(19.59 16.95)"/><line class="cls-3" x1="65.94" y1="30.86" x2="61.47" y2="30.86"/><line class="cls-3" x1="65.94" y1="35.33" x2="61.47" y2="35.33"/><line class="cls-3" x1="65.94" y1="39.8" x2="61.47" y2="39.8"/><line class="cls-3" x1="65.94" y1="44.27" x2="61.47" y2="44.27"/><line class="cls-3" x1="65.94" y1="48.74" x2="61.47" y2="48.74"/><line class="cls-3" x1="65.94" y1="53.21" x2="61.47" y2="53.21"/><line class="cls-3" x1="65.94" y1="57.68" x2="61.47" y2="57.68"/><line class="cls-3" x1="65.94" y1="62.15" x2="61.47" y2="62.15"/><line class="cls-3" x1="65.94" y1="66.62" x2="61.47" y2="66.62"/><line class="cls-3" x1="65.94" y1="71.09" x2="61.47" y2="71.09"/><line class="cls-3" x1="65.94" y1="75.56" x2="61.47" y2="75.56"/><line class="cls-3" x1="65.94" y1="80.03" x2="61.47" y2="80.03"/><line class="cls-3" x1="74.88" y1="30.86" x2="70.41" y2="30.86"/><line class="cls-3" x1="74.88" y1="35.33" x2="70.41" y2="35.33"/><line class="cls-3" x1="74.88" y1="39.8" x2="70.41" y2="39.8"/><line class="cls-3" x1="74.88" y1="44.27" x2="70.41" y2="44.27"/><line class="cls-3" x1="74.88" y1="48.74" x2="70.41" y2="48.74"/><line class="cls-3" x1="74.88" y1="53.21" x2="70.41" y2="53.21"/><line class="cls-3" x1="74.88" y1="57.68" x2="70.41" y2="57.68"/><line class="cls-3" x1="74.88" y1="62.15" x2="70.41" y2="62.15"/><line class="cls-3" x1="74.88" y1="66.62" x2="70.41" y2="66.62"/><line class="cls-3" x1="74.88" y1="71.09" x2="70.41" y2="71.09"/><line class="cls-3" x1="74.88" y1="75.56" x2="70.41" y2="75.56"/><line class="cls-3" x1="74.88" y1="80.03" x2="70.41" y2="80.03"/><line class="cls-3" x1="83.82" y1="30.86" x2="79.35" y2="30.86"/><line class="cls-3" x1="83.82" y1="35.33" x2="79.35" y2="35.33"/><line class="cls-3" x1="83.82" y1="39.8" x2="79.35" y2="39.8"/><line class="cls-3" x1="83.82" y1="44.27" x2="79.35" y2="44.27"/><line class="cls-3" x1="83.82" y1="48.74" x2="79.35" y2="48.74"/><line class="cls-3" x1="83.82" y1="53.21" x2="79.35" y2="53.21"/><line class="cls-3" x1="83.82" y1="57.68" x2="79.35" y2="57.68"/><line class="cls-3" x1="83.82" y1="62.15" x2="79.35" y2="62.15"/><line class="cls-3" x1="83.82" y1="66.62" x2="79.35" y2="66.62"/><line class="cls-3" x1="83.82" y1="71.09" x2="79.35" y2="71.09"/><line class="cls-3" x1="83.82" y1="75.56" x2="79.35" y2="75.56"/><line class="cls-3" x1="83.82" y1="80.03" x2="79.35" y2="80.03"/><line class="cls-3" x1="92.76" y1="30.86" x2="88.29" y2="30.86"/><line class="cls-3" x1="88.29" y1="17.45" x2="83.82" y2="17.45"/><line class="cls-3" x1="86.06" y1="21.92" x2="86.06" y2="17.45"/><line class="cls-3" x1="92.76" y1="35.33" x2="88.29" y2="35.33"/><line class="cls-3" x1="92.76" y1="39.8" x2="88.29" y2="39.8"/><line class="cls-3" x1="92.76" y1="44.27" x2="88.29" y2="44.27"/><line class="cls-3" x1="92.76" y1="48.74" x2="88.29" y2="48.74"/><line class="cls-3" x1="92.76" y1="53.21" x2="88.29" y2="53.21"/><line class="cls-3" x1="92.76" y1="57.68" x2="88.29" y2="57.68"/><line class="cls-3" x1="92.76" y1="62.15" x2="88.29" y2="62.15"/><line class="cls-3" x1="92.76" y1="66.62" x2="88.29" y2="66.62"/><line class="cls-3" x1="92.76" y1="71.09" x2="88.29" y2="71.09"/><line class="cls-3" x1="92.76" y1="75.56" x2="88.29" y2="75.56"/><line class="cls-3" x1="92.76" y1="80.03" x2="88.29" y2="80.03"/><polygon class="cls-3" points="70.41 26.39 70.41 21.92 92.76 21.92 92.76 26.39 97.23 26.39 97.23 84.5 57.12 84.5 57.12 26.39 70.41 26.39"/><line class="cls-3" x1="92.76" y1="26.39" x2="74.88" y2="26.39"/></g></g></svg>