<svg xmlns="http://www.w3.org/2000/svg" viewBox="0 0 160 120"><defs><style>.cls-1,.cls-3{fill:none;}.cls-2{fill:#fff;}.cls-3{stroke:#fff;stroke-miterlimit:10;}</style></defs><title>2-4_kaisha-gaiyou</title><g id="レイヤー_2" data-name="レイヤー 2"><g id="上のバー"><rect class="cls-1" width="160" height="120"/><path class="cls-2" d="M11.88,73.27a16.13,16.13,0,0,0,4,4.3,25.93,25.93,0,0,0,6.62,3.84,5.09,5.09,0,0,0-.94,1.54,33,33,0,0,1-6.67-4.18,19.92,19.92,0,0,1-3.84-4.1,20.81,20.81,0,0,1-3.6,3.94A26.36,26.36,0,0,1,1,82.83a4.83,4.83,0,0,0-1-1.37,25.19,25.19,0,0,0,6.36-3.91,17.66,17.66,0,0,0,3.82-4.27ZM3.77,86.67A20.61,20.61,0,0,0,1,86.81V85.08a20.56,20.56,0,0,0,2.74.14H18.55a20.31,20.31,0,0,0,2.74-.14v1.73a20.84,20.84,0,0,0-2.74-.14H9.94a36.17,36.17,0,0,1-3,5.66c3.31-.22,5.81-.46,9.36-.89-1.44-1.56-1.87-2-2.93-3l1.25-.77A52,52,0,0,1,20.43,94l-1.32,1c-.94-1.32-1.25-1.73-1.75-2.35-4.27.58-7.9,1-11.64,1.25a28.79,28.79,0,0,0-4.06.43l-.29-1.82a11.06,11.06,0,0,0,1.22.07c.38,0,.38,0,2.54-.14a36.17,36.17,0,0,0,3-5.78Zm1.54-6a12.68,12.68,0,0,0,1.9.1H15a14.54,14.54,0,0,0,2-.1V82.3a14.77,14.77,0,0,0-2-.1H7.18a13.81,13.81,0,0,0-1.87.1Z" transform="translate(24.59 14.89)"/><path class="cls-2" d="M35.46,92.59a15.57,15.57,0,0,0,.14,2.35H33.83A16.37,16.37,0,0,0,34,92.57V85.11a24.66,24.66,0,0,1-3.31,2.83,4.52,4.52,0,0,0-.89-1.34A20.64,20.64,0,0,0,34.1,83a16.25,16.25,0,0,0,3-4.46H32.58a16.58,16.58,0,0,0-1.92.1V77.09a15.75,15.75,0,0,0,1.87.1H34V75a13.73,13.73,0,0,0-.12-1.85h1.8A10.26,10.26,0,0,0,35.49,75v2.21h1.39a8.76,8.76,0,0,0,1.39-.07L39,78c-.17.26-.31.53-.58,1a20.67,20.67,0,0,1-2.64,4.08,14.55,14.55,0,0,0,3.86,3.26,5.76,5.76,0,0,0-.82,1.32,15.59,15.59,0,0,1-3.38-3Zm8.33-17.23a14.24,14.24,0,0,0-.17-2.18h1.9a11.27,11.27,0,0,0-.17,2.18v5.18H48.5a15.51,15.51,0,0,0,2.35-.14v1.68C50.11,82,49.34,82,48.5,82H45.35V92.21h3.79a16.7,16.7,0,0,0,2.59-.14v1.8a16.36,16.36,0,0,0-2.59-.17H40.51a15.84,15.84,0,0,0-2.57.17v-1.8a16.7,16.7,0,0,0,2.59.14h3.26V82H41.42c-.82,0-1.61,0-2.35.12V80.4a15.29,15.29,0,0,0,2.35.14h2.38Z" transform="translate(24.59 14.89)"/><path class="cls-2" d="M63.46,79.13a12,12,0,0,0,2.38,4.39,5.72,5.72,0,0,0-.89,1.1,14.16,14.16,0,0,1-1.61-3.36c0,.55,0,.55,0,1.66,0,.41,0,1.44,0,1.92v7.37A19.57,19.57,0,0,0,63.56,95H61.9A21,21,0,0,0,62,92.21V85.27c0-.86,0-1.7.12-3.62a22.17,22.17,0,0,1-1.42,4.49,18.28,18.28,0,0,1-1.42,2.64,4.68,4.68,0,0,0-.91-1.22A19.09,19.09,0,0,0,61,82.47a21.76,21.76,0,0,0,.91-3.34H60.82a10.36,10.36,0,0,0-1.68.1V77.76a9.8,9.8,0,0,0,1.68.1H62V75.58a14.65,14.65,0,0,0-.12-2.47h1.61a15.68,15.68,0,0,0-.12,2.47v2.28h.65a9.43,9.43,0,0,0,1.58-.1v1.46a9.67,9.67,0,0,0-1.56-.1Zm4,10.7a24.82,24.82,0,0,0,3-1.75,21.65,21.65,0,0,0-1.37-2.26l1.08-.48a24.65,24.65,0,0,1,2.28,3.89l-1.15.67c-.17-.38-.22-.5-.34-.79a45.54,45.54,0,0,1-4.46,2.69,16.7,16.7,0,0,0-1.63,1l-.72-1.46a13.66,13.66,0,0,0,2-.82V76.66a20.91,20.91,0,0,0-.1-2.47c.5,0,1.08.07,1.85.07h2.26c.74,0,1.37,0,1.85-.07a17.08,17.08,0,0,0-.1,2.3v5.83a14,14,0,0,0,.1,2.21,13.22,13.22,0,0,0-2.06-.1H67.5Zm3.17-11.18V75.53H67.5v3.12ZM67.5,83.19h3.17V79.9H67.5Zm7.39,1.18a20.75,20.75,0,0,0-2.28.1V82.95a9.17,9.17,0,0,0,1.3.12V75.6c-.62,0-.79,0-1.22.07V74.21a12.53,12.53,0,0,0,2.09.12h3.91a12.18,12.18,0,0,0,1.9-.12V75.7A12.52,12.52,0,0,0,79,75.6a34.87,34.87,0,0,1-1.39,7.46h.86a14.51,14.51,0,0,0,2.3-.12v1.54a15.46,15.46,0,0,0-2.33-.12H77.1c-.29.72-.43,1-.72,1.7h1.25a7.34,7.34,0,0,0-.12,1.58v4.63c0,.62.1.7.86.7s1-.12,1.18-.62a13.84,13.84,0,0,0,.24-3.24,3.92,3.92,0,0,0,1.32.6c-.12,2.23-.31,3.36-.65,3.91s-.86.7-2.16.7c-1.73,0-2.11-.29-2.11-1.56V86.47a20.58,20.58,0,0,1-6.79,8.4,5.23,5.23,0,0,0-1.18-1.13c3.46-2.14,5.69-5,7.51-9.38Zm1.32-1.3A28.1,28.1,0,0,0,77.6,75.6H75.25v7.46Z" transform="translate(24.59 14.89)"/><path class="cls-2" d="M96.44,85.83a12.66,12.66,0,0,0,1.34-2.16h-4a25.24,25.24,0,0,0-2.76.1,16.38,16.38,0,0,0,.1-2.09V79.95a18.34,18.34,0,0,0-.1-2.18,24.4,24.4,0,0,0,2.59.12h2.74V75.55h-4.2a18.78,18.78,0,0,0-2.66.12V74.09a17.89,17.89,0,0,0,2.71.14h15.14a18,18,0,0,0,2.74-.14v1.58a19.19,19.19,0,0,0-2.66-.12h-4.49v2.33h2.86a23.89,23.89,0,0,0,2.62-.12,17.58,17.58,0,0,0-.1,2.18v1.7a15.4,15.4,0,0,0,.1,2.11,24.41,24.41,0,0,0-2.76-.1H99.47c-.67,1.18-.82,1.37-1.34,2.16h9.29a17.51,17.51,0,0,0,2.69-.14v1.58a21.14,21.14,0,0,0-2.69-.12h-2.64a10.36,10.36,0,0,1-2.88,3.79,79.92,79.92,0,0,1,7.68,2.86l-1.08,1.32a57.7,57.7,0,0,0-7.92-3.22c-2.71,1.68-5.71,2.52-10.56,2.93a5.53,5.53,0,0,0-.7-1.49,21.39,21.39,0,0,0,9.43-2c-1.87-.55-3.58-1-6-1.46a23.88,23.88,0,0,0,2.64-2.74H92.12a20.51,20.51,0,0,0-2.66.12V85.68a17.58,17.58,0,0,0,2.66.14ZM92.6,79.11v3.34h3.77V79.11Zm4.56,8a21.34,21.34,0,0,1-1.82,2c2.23.5,3.07.72,4.9,1.27a7.74,7.74,0,0,0,2.83-3.31Zm.58-9.26h3.84V75.55H97.74Zm0,4.56h3.84V79.11H97.74Zm5.21,0h3.91V79.11h-3.91Z" transform="translate(24.59 14.89)"/><line class="cls-3" x1="71.89" y1="26.88" x2="68.06" y2="26.88"/><line class="cls-3" x1="71.89" y1="30.71" x2="68.06" y2="30.71"/><line class="cls-3" x1="71.89" y1="34.54" x2="68.06" y2="34.54"/><line class="cls-3" x1="71.89" y1="38.37" x2="68.06" y2="38.37"/><line class="cls-3" x1="71.89" y1="42.2" x2="68.06" y2="42.2"/><line class="cls-3" x1="71.89" y1="46.03" x2="68.06" y2="46.03"/><line class="cls-3" x1="71.89" y1="49.86" x2="68.06" y2="49.86"/><line class="cls-3" x1="71.89" y1="53.69" x2="68.06" y2="53.69"/><line class="cls-3" x1="71.89" y1="57.52" x2="68.06" y2="57.52"/><line class="cls-3" x1="71.89" y1="61.35" x2="68.06" y2="61.35"/><line class="cls-3" x1="71.89" y1="65.18" x2="68.06" y2="65.18"/><line class="cls-3" x1="71.89" y1="69.01" x2="68.06" y2="69.01"/><line class="cls-3" x1="79.55" y1="26.88" x2="75.72" y2="26.88"/><line class="cls-3" x1="79.55" y1="30.71" x2="75.72" y2="30.71"/><line class="cls-3" x1="79.55" y1="34.54" x2="75.72" y2="34.54"/><line class="cls-3" x1="79.55" y1="38.37" x2="75.72" y2="38.37"/><line class="cls-3" x1="79.55" y1="42.2" x2="75.72" y2="42.2"/><line class="cls-3" x1="79.55" y1="46.03" x2="75.72" y2="46.03"/><line class="cls-3" x1="79.55" y1="49.86" x2="75.72" y2="49.86"/><line class="cls-3" x1="79.55" y1="53.69" x2="75.72" y2="53.69"/><line class="cls-3" x1="79.55" y1="57.52" x2="75.72" y2="57.52"/><line class="cls-3" x1="79.55" y1="61.35" x2="75.72" y2="61.35"/><line class="cls-3" x1="79.55" y1="65.18" x2="75.72" y2="65.18"/><line class="cls-3" x1="79.55" y1="69.01" x2="75.72" y2="69.01"/><line class="cls-3" x1="87.21" y1="26.88" x2="83.38" y2="26.88"/><line class="cls-3" x1="87.21" y1="30.71" x2="83.38" y2="30.71"/><line class="cls-3" x1="87.21" y1="34.54" x2="83.38" y2="34.54"/><line class="cls-3" x1="87.21" y1="38.37" x2="83.38" y2="38.37"/><line class="cls-3" x1="87.21" y1="42.2" x2="83.38" y2="42.2"/><line class="cls-3" x1="87.21" y1="46.03" x2="83.38" y2="46.03"/><line class="cls-3" x1="87.21" y1="49.86" x2="83.38" y2="49.86"/><line class="cls-3" x1="87.21" y1="53.69" x2="83.38" y2="53.69"/><line class="cls-3" x1="87.21" y1="57.52" x2="83.38" y2="57.52"/><line class="cls-3" x1="87.21" y1="61.35" x2="83.38" y2="61.35"/><line class="cls-3" x1="87.21" y1="65.18" x2="83.38" y2="65.18"/><line class="cls-3" x1="87.21" y1="69.01" x2="83.38" y2="69.01"/><line class="cls-3" x1="94.87" y1="26.88" x2="91.04" y2="26.88"/><line class="cls-3" x1="91.04" y1="15.39" x2="87.21" y2="15.39"/><line class="cls-3" x1="89.12" y1="19.22" x2="89.12" y2="15.39"/><line class="cls-3" x1="94.87" y1="30.71" x2="91.04" y2="30.71"/><line class="cls-3" x1="94.87" y1="34.54" x2="91.04" y2="34.54"/><line class="cls-3" x1="94.87" y1="38.37" x2="91.04" y2="38.37"/><line class="cls-3" x1="94.87" y1="42.2" x2="91.04" y2="42.2"/><line class="cls-3" x1="94.87" y1="46.03" x2="91.04" y2="46.03"/><line class="cls-3" x1="94.87" y1="49.86" x2="91.04" y2="49.86"/><line class="cls-3" x1="94.87" y1="53.69" x2="91.04" y2="53.69"/><line class="cls-3" x1="94.87" y1="57.52" x2="91.04" y2="57.52"/><line class="cls-3" x1="94.87" y1="61.35" x2="91.04" y2="61.35"/><line class="cls-3" x1="94.87" y1="65.18" x2="91.04" y2="65.18"/><line class="cls-3" x1="94.87" y1="69.01" x2="91.04" y2="69.01"/><polygon class="cls-3" points="75.72 23.05 75.72 19.22 94.87 19.22 94.87 23.05 98.7 23.05 98.7 72.84 64.33 72.84 64.33 23.05 75.72 23.05"/><line class="cls-3" x1="94.87" y1="23.05" x2="79.55" y2="23.05"/></g></g></svg>