<svg xmlns="http://www.w3.org/2000/svg" viewBox="0 0 543.64 86.24"><defs><style>.cls-1{fill:#fff;}</style></defs><title>アセット 2</title><g id="レイヤー_2" data-name="レイヤー 2"><g id="レイヤー1"><path class="cls-1" d="M11.76,1.39c6.91,0,10.51,2.71,10.51,7.73A6.25,6.25,0,0,1,18.5,14.9a6.48,6.48,0,0,1,4.34,6c0,5-3.46,7.83-10.39,7.83H0V1.39ZM6.52,6.88v5.39H11.6c2.34,0,3.87-.68,3.87-2.71S13.95,6.88,11.6,6.88Zm0,10.84v5.55h5.59c2.52,0,4-.74,4-2.79s-1.46-2.75-4-2.75Z"/><path class="cls-1" d="M43.57,9.34,43,15.43a10.27,10.27,0,0,0-3.07-.51c-2.17,0-3.5,1.07-3.5,3.46V28.73H30.32V9.57h5.86v2.21A5.66,5.66,0,0,1,41.42,9,8,8,0,0,1,43.57,9.34Z"/><path class="cls-1" d="M56.35,3.67a3.65,3.65,0,0,1-7.3,0,3.65,3.65,0,1,1,7.3,0Zm-.57,25.06H49.67V9.57h6.11Z"/><path class="cls-1" d="M82.11,16.15V28.73H76V18.32c0-2.27-1.13-3.54-3-3.54-1.7,0-3.11,1.15-3.11,3.63V28.73H63.75V9.57h5.86V12A6.14,6.14,0,0,1,75.31,9C79.14,9,82.11,11.72,82.11,16.15Z"/><path class="cls-1" d="M103.23,11.56v-2h5.92V26.89c0,6.29-4.12,10-10.39,10A15.53,15.53,0,0,1,90,34.49l2.17-4.86a10.29,10.29,0,0,0,6.15,2c2.48,0,4.82-1.37,4.82-4.41V26a6.33,6.33,0,0,1-5.27,2.42c-5.14,0-8.89-4.24-8.89-9.67S92.74,9,97.88,9A6.36,6.36,0,0,1,103.23,11.56ZM95.3,18.73a3.93,3.93,0,0,0,4,4.1,3.86,3.86,0,0,0,3.91-4.1,3.86,3.86,0,0,0-3.91-4.1A3.92,3.92,0,0,0,95.3,18.73Z"/><path class="cls-1" d="M158.81,28.73h-7L149.79,23H138.93l-2.07,5.74H130L140.53,1.39h7.79ZM141,17.09h6.64l-3.32-9.22Z"/><path class="cls-1" d="M185.17,19.12c0,5.66-3.81,10.12-8.93,10.12a6.52,6.52,0,0,1-5.49-2.56v2.05h-5.9V.61H171v10.8A6.52,6.52,0,0,1,176.25,9C181.36,9,185.17,13.5,185.17,19.12Zm-14.47,0a4.1,4.1,0,1,0,8.18,0,4.1,4.1,0,1,0-8.18,0Z"/><path class="cls-1" d="M212,19.14c0,5.8-4.41,10.1-10.41,10.1s-10.39-4.3-10.39-10.1S195.58,9,201.55,9,212,13.34,212,19.14Zm-14.55,0a4.16,4.16,0,1,0,8.3,0,4.16,4.16,0,1,0-8.3,0Z"/><path class="cls-1" d="M237.21,20.53c0,6-4.14,8.71-9.24,8.71s-9.26-2.71-9.26-8.73V9.57h6.11V20c0,2.44,1.31,3.55,3.14,3.55s3.14-1.11,3.14-3.55V9.57h6.09Z"/><path class="cls-1" d="M259.61,15h-6.54v5.61c0,2.21,1.17,2.95,2.71,2.95a7.11,7.11,0,0,0,3.32-1.19l2.11,4.77a10.93,10.93,0,0,1-6.8,2.13c-5.14,0-7.46-3.07-7.46-7.87V15h-3.57V9.57h3.57V4h6.11V9.57h6.54Z"/><path class="cls-1" d="M303.2,7.44h-8.09V28.73h-6.52V7.44h-8.11V1.39H303.2Z"/><path class="cls-1" d="M315.47,11.58A6.2,6.2,0,0,1,320.92,9c3.83,0,6.8,2.68,6.8,7.11V28.73H321.6V18.32c0-2.27-1.13-3.54-3-3.54-1.7,0-3.11,1.15-3.11,3.63V28.73h-6.11V.59h6.11Z"/><path class="cls-1" d="M354,19.14a13.09,13.09,0,0,1-.12,1.89h-13A3.81,3.81,0,0,0,345,24.1a6.38,6.38,0,0,0,4.18-1.68l3.95,3.67a11.65,11.65,0,0,1-8.44,3.14c-6,0-10.1-4-10.1-10S338.6,9,344.42,9,354,13.14,354,19.14Zm-13.09-2h7a3.54,3.54,0,0,0-7,0Z"/><path class="cls-1" d="M387.91,1.39c6.91,0,10.51,2.71,10.51,7.73a6.25,6.25,0,0,1-3.77,5.78,6.48,6.48,0,0,1,4.34,6c0,5-3.46,7.83-10.39,7.83H376.15V1.39Zm-5.23,5.49v5.39h5.08c2.34,0,3.87-.68,3.87-2.71s-1.52-2.68-3.87-2.68Zm0,10.84v5.55h5.59c2.52,0,4-.74,4-2.79s-1.46-2.75-4-2.75Z"/><path class="cls-1" d="M426.14,19.14c0,5.8-4.41,10.1-10.41,10.1s-10.39-4.3-10.39-10.1S409.75,9,415.73,9,426.14,13.34,426.14,19.14Zm-14.55,0a4.16,4.16,0,1,0,8.3,0,4.16,4.16,0,1,0-8.3,0Z"/><path class="cls-1" d="M451.45,16.15V28.73h-6.11V18.32c0-2.27-1.13-3.54-3-3.54-1.7,0-3.11,1.15-3.11,3.63V28.73h-6.11V9.57H439V12A6.14,6.14,0,0,1,444.66,9C448.48,9,451.45,11.72,451.45,16.15Z"/><path class="cls-1" d="M472.55,11.41V.61h6.09V28.73h-5.9V26.66a6.57,6.57,0,0,1-5.51,2.58c-5.12,0-8.91-4.45-8.91-10.12S462.12,9,467.26,9A6.55,6.55,0,0,1,472.55,11.41Zm-7.93,7.73a4.1,4.1,0,1,0,8.18,0,4.1,4.1,0,1,0-8.18,0Z"/><path class="cls-1" d="M521.24,19.14c0,5.8-4.41,10.1-10.41,10.1s-10.39-4.3-10.39-10.1S504.85,9,510.83,9,521.24,13.34,521.24,19.14Zm-14.55,0a4.16,4.16,0,1,0,8.3,0,4.16,4.16,0,1,0-8.3,0Z"/><path class="cls-1" d="M541.36,15H536V28.73h-6.11V15h-3.3V9.57h3.3V8.09c0-5.16,2.83-8,7.3-8a10.18,10.18,0,0,1,6.46,2L541,6.64a6.27,6.27,0,0,0-3-.84c-1.35,0-2,.76-2,2.42V9.57h5.37Z"/><path class="cls-1" d="M7,78.43H.45V51.09H7Z"/><path class="cls-1" d="M33.84,65.85V78.43H27.73V68c0-2.27-1.13-3.54-3-3.54-1.7,0-3.11,1.15-3.11,3.63V78.43H15.48V59.27h5.86v2.4A6.14,6.14,0,0,1,27,58.74C30.87,58.74,33.84,61.42,33.84,65.85Z"/><path class="cls-1" d="M53.33,78.43h-7L38.93,59.27h6.66l4.28,12.5,4.32-12.5h6.46Z"/><path class="cls-1" d="M84.2,68.84a13.09,13.09,0,0,1-.12,1.89h-13a3.81,3.81,0,0,0,4.1,3.07,6.38,6.38,0,0,0,4.18-1.68l3.95,3.67a11.65,11.65,0,0,1-8.44,3.14c-6,0-10.1-4-10.1-10s4-10.21,9.82-10.21S84.18,62.84,84.2,68.84Zm-13.09-2h7a3.54,3.54,0,0,0-7,0Z"/><path class="cls-1" d="M105.44,65.17a18.23,18.23,0,0,0-6.31-1.48c-1.6,0-2.23.47-2.23,1.17s1.21,1,3.09,1.31l1.41.21c4.1.63,6.27,2.6,6.27,5.82,0,4.2-3.28,6.72-8.87,6.72-3.28,0-6.66-.59-8.85-2l2.13-4.73A12.89,12.89,0,0,0,98.84,74c1.89,0,2.68-.43,2.68-1.25s-.86-1-3-1.37l-1.11-.16c-4.61-.68-6.76-2.6-6.76-6,0-4.08,3.07-6.41,8.28-6.41a20.16,20.16,0,0,1,8.24,1.64Z"/><path class="cls-1" d="M129.23,64.68h-6.54v5.61c0,2.21,1.17,2.95,2.71,2.95A7.11,7.11,0,0,0,128.73,72l2.11,4.77a10.93,10.93,0,0,1-6.8,2.13c-5.14,0-7.46-3.07-7.46-7.87V64.68H113V59.27h3.57V53.68h6.11v5.59h6.54Z"/><path class="cls-1" d="M156.43,68.84c0,5.8-4.41,10.1-10.41,10.1s-10.39-4.3-10.39-10.1S140,58.74,146,58.74,156.43,63,156.43,68.84Zm-14.55,0A4.16,4.16,0,1,0,146,64.44,4.12,4.12,0,0,0,141.87,68.84Z"/><path class="cls-1" d="M176.62,59l-.57,6.09a10.27,10.27,0,0,0-3.07-.51c-2.17,0-3.5,1.07-3.5,3.46V78.43h-6.11V59.27h5.86v2.21a5.66,5.66,0,0,1,5.23-2.73A8,8,0,0,1,176.62,59Z"/><path class="cls-1" d="M197.11,65.17a18.23,18.23,0,0,0-6.31-1.48c-1.6,0-2.23.47-2.23,1.17s1.21,1,3.09,1.31l1.41.21c4.1.63,6.27,2.6,6.27,5.82,0,4.2-3.28,6.72-8.87,6.72-3.28,0-6.66-.59-8.85-2l2.13-4.73a12.89,12.89,0,0,0,6.76,1.8c1.89,0,2.68-.43,2.68-1.25s-.86-1-3-1.37L189,71.2c-4.61-.68-6.76-2.6-6.76-6,0-4.08,3.07-6.41,8.28-6.41a20.16,20.16,0,0,1,8.24,1.64Z"/><path class="cls-1" d="M236.12,78.43H230.2V76.36a6.57,6.57,0,0,1-5.51,2.58c-5.12,0-8.91-4.45-8.91-10.12s3.79-10.08,8.93-10.08a6.57,6.57,0,0,1,5.49,2.6V59.27h5.92Zm-14-9.59a4.1,4.1,0,1,0,4.08-4.39A4.09,4.09,0,0,0,222.07,68.84Z"/><path class="cls-1" d="M262.49,65.85V78.43h-6.11V68c0-2.27-1.13-3.54-3-3.54-1.7,0-3.11,1.15-3.11,3.63V78.43h-6.11V59.27H250v2.4a6.14,6.14,0,0,1,5.7-2.93C259.53,58.74,262.49,61.42,262.49,65.85Z"/><path class="cls-1" d="M283.59,61.1V50.3h6.09V78.43h-5.9V76.36a6.57,6.57,0,0,1-5.51,2.58c-5.12,0-8.91-4.45-8.91-10.12s3.79-10.08,8.93-10.08A6.55,6.55,0,0,1,283.59,61.1Zm-7.93,7.73a4.1,4.1,0,1,0,4.08-4.39A4.09,4.09,0,0,0,275.66,68.84Z"/><path class="cls-1" d="M332.38,57.16l-5.72,3.28a7.31,7.31,0,0,0-6.5-3.61c-4.32,0-7.52,3.24-7.52,7.93,0,5.08,3.5,7.93,7.54,7.93a7.68,7.68,0,0,0,6.6-3.59l5.35,3.79a13.84,13.84,0,0,1-11.89,6.05c-8.44,0-14.39-5.9-14.39-14.18s6-14.18,14.39-14.18C325.44,50.58,330.05,53,332.38,57.16Z"/><path class="cls-1" d="M358.77,68.84c0,5.8-4.41,10.1-10.41,10.1S338,74.64,338,68.84s4.41-10.1,10.39-10.1S358.77,63,358.77,68.84Zm-14.55,0a4.16,4.16,0,1,0,4.14-4.39A4.12,4.12,0,0,0,344.22,68.84Z"/><path class="cls-1" d="M396.35,65.85V78.43h-6.11V68c0-2.27-1.13-3.54-3-3.54-1.68,0-3.11,1.15-3.11,3.63V78.43H378V68c0-2.27-1.13-3.54-3-3.54-1.7,0-3.11,1.15-3.11,3.63V78.43h-6.11V59.27h5.86v2.4a6.14,6.14,0,0,1,5.7-2.93,6.5,6.5,0,0,1,5.84,3.2,6.57,6.57,0,0,1,6.07-3.2C393.58,58.74,396.35,61.44,396.35,65.85Z"/><path class="cls-1" d="M424.64,68.82c0,5.66-3.81,10.12-8.93,10.12a6.56,6.56,0,0,1-5.29-2.32v9.63h-6.09v-27h5.9v2.07a6.55,6.55,0,0,1,5.49-2.6C420.83,58.74,424.64,63.19,424.64,68.82Zm-14.47,0a4.1,4.1,0,1,0,4.08-4.39A4.09,4.09,0,0,0,410.16,68.84Z"/><path class="cls-1" d="M451,78.43H445V76.36a6.57,6.57,0,0,1-5.51,2.58c-5.12,0-8.91-4.45-8.91-10.12s3.79-10.08,8.93-10.08a6.57,6.57,0,0,1,5.49,2.6V59.27H451Zm-14-9.59A4.1,4.1,0,1,0,441,64.44,4.09,4.09,0,0,0,436.92,68.84Z"/><path class="cls-1" d="M477.34,65.85V78.43h-6.11V68c0-2.27-1.13-3.54-3-3.54-1.7,0-3.11,1.15-3.11,3.63V78.43H459V59.27h5.86v2.4a6.14,6.14,0,0,1,5.7-2.93C474.37,58.74,477.34,61.42,477.34,65.85Z"/><path class="cls-1" d="M491.9,53.37a3.65,3.65,0,1,1-3.65-3.67A3.59,3.59,0,0,1,491.9,53.37Zm-.57,25.06h-6.11V59.27h6.11Z"/><path class="cls-1" d="M517.63,68.84a13.09,13.09,0,0,1-.12,1.89h-13a3.81,3.81,0,0,0,4.1,3.07,6.38,6.38,0,0,0,4.18-1.68l3.95,3.67a11.65,11.65,0,0,1-8.44,3.14c-6,0-10.1-4-10.1-10s4-10.21,9.82-10.21S517.61,62.84,517.63,68.84Zm-13.09-2h7a3.54,3.54,0,0,0-7,0Z"/><path class="cls-1" d="M538.87,65.17a18.23,18.23,0,0,0-6.31-1.48c-1.6,0-2.23.47-2.23,1.17s1.21,1,3.09,1.31l1.41.21c4.1.63,6.27,2.6,6.27,5.82,0,4.2-3.28,6.72-8.87,6.72-3.28,0-6.66-.59-8.85-2l2.13-4.73a12.89,12.89,0,0,0,6.76,1.8c1.89,0,2.68-.43,2.68-1.25s-.86-1-3-1.37l-1.11-.16c-4.61-.68-6.76-2.6-6.76-6,0-4.08,3.07-6.41,8.28-6.41a20.16,20.16,0,0,1,8.24,1.64Z"/></g></g></svg>