<svg xmlns="http://www.w3.org/2000/svg" viewBox="0 0 582 42.3"><defs><style>.cls-1{fill:none;stroke:#ff4736;stroke-linecap:round;stroke-miterlimit:10;stroke-width:2px;}.cls-2{fill:#ff4736;}</style></defs><title>mission2</title><g id="レイヤー_2" data-name="レイヤー 2"><g id="レイヤー1"><line class="cls-1" x1="581" y1="41.3" x2="1" y2="41.3"/><path class="cls-2" d="M24,21.3H21.6V3L14.28,19H11.75L4.44,3.12V21.3H2V.3H5.69L13,16.17,20.34.3H24Z"/><path class="cls-2" d="M36.24,21.3H33.83V.3h2.42Z"/><path class="cls-2" d="M59.76,4.27a11.09,11.09,0,0,0-6.33-2C50.27,2.31,48,3.73,48,6.1c0,2,1.57,3,4.84,3.41l2,.24c3.46.42,6.55,1.89,6.55,5.52,0,4.15-3.78,6.31-8.31,6.31a13.75,13.75,0,0,1-8.25-2.7L46.16,17a11.51,11.51,0,0,0,6.92,2.34c3.25,0,5.82-1.32,5.82-3.82,0-2-1.75-3.06-5.08-3.44l-2.12-.24c-3.58-.41-6.19-2.07-6.19-5.55,0-4,3.55-6.23,7.95-6.23A12.74,12.74,0,0,1,61,2.32Z"/><path class="cls-2" d="M83.7,4.27a11.09,11.09,0,0,0-6.33-2c-3.17,0-5.43,1.42-5.43,3.79,0,2,1.57,3,4.84,3.41l2,.24c3.46.42,6.55,1.89,6.55,5.52,0,4.15-3.78,6.31-8.31,6.31a13.75,13.75,0,0,1-8.25-2.7L70.1,17A11.51,11.51,0,0,0,77,19.3c3.25,0,5.82-1.32,5.82-3.82,0-2-1.75-3.06-5.08-3.44l-2.12-.24C72,11.4,69.44,9.73,69.44,6.25,69.44,2.26,73,0,77.39,0a12.74,12.74,0,0,1,7.54,2.29Z"/><path class="cls-2" d="M96.35,21.3H93.93V.3h2.42Z"/><path class="cls-2" d="M126.63,10.8a10.84,10.84,0,0,1-21.69,0,10.84,10.84,0,0,1,21.69,0Zm-19.15,0a8.32,8.32,0,1,0,16.63,0,8.32,8.32,0,1,0-16.63,0Z"/><path class="cls-2" d="M152.84,21.3h-2.17l-13-16.86V21.3h-2.42V.3h2.17l13,16.86V.3h2.41Z"/><path class="cls-2" d="M172.65,3.51A7.35,7.35,0,0,1,179.09,0c4.26,0,6.71,2.79,6.71,6.5A8.64,8.64,0,0,1,183,12.46l-6.27,6.63h9.78V21.3H173.27V19.48l7.93-8.37a6.56,6.56,0,0,0,2.16-4.59A4.07,4.07,0,0,0,179,2.23a5.42,5.42,0,0,0-4.68,2.63Z"/></g></g></svg>