<svg xmlns="http://www.w3.org/2000/svg" viewBox="0 0 300 315"><defs><style>.cls-1{fill:#fff;}.cls-2{fill:gray;}.cls-3{fill:#ff4736;}</style></defs><title>アセット 7</title><g id="レイヤー_2" data-name="レイヤー 2"><g id="レイヤー1"><rect class="cls-1" width="300" height="315"/><path class="cls-2" d="M42.31,211.13h-3.9v10H37.13v-10H33.23v-1.22h9.07Z"/><path class="cls-2" d="M49.66,214.87h6.79v-5h1.29v11.22H56.44v-5H49.66v5H48.37V209.91h1.29Z"/><path class="cls-2" d="M72.69,221.13H64.8V209.91h7.82v1.21H66.09v3.76h6.33v1.2H66.09v3.84h6.6Z"/><path class="cls-2" d="M94.87,212a5.93,5.93,0,0,0-3.38-1c-1.69,0-2.9.76-2.9,2,0,1,.84,1.61,2.59,1.82l1.07.13c1.85.22,3.5,1,3.5,2.95,0,2.22-2,3.37-4.44,3.37a7.35,7.35,0,0,1-4.41-1.44l.71-1a6.16,6.16,0,0,0,3.69,1.25c1.74,0,3.11-.7,3.11-2,0-1.09-.94-1.64-2.72-1.84l-1.13-.13c-1.92-.22-3.31-1.11-3.31-3,0-2.13,1.9-3.33,4.25-3.33a6.81,6.81,0,0,1,4,1.23Z"/><path class="cls-2" d="M103.73,214.87h6.79v-5h1.29v11.22h-1.29v-5h-6.79v5h-1.29V209.91h1.29Z"/><path class="cls-2" d="M128.18,221.13H126.8L125.53,218H120l-1.27,3.13h-1.34L122,209.91h1.6Zm-7.71-4.34H125l-2.28-5.6Z"/><path class="cls-2" d="M138.15,209.91c2.52,0,3.92,1.14,3.92,3.17s-1.51,3.17-3.9,3.17H138l4,4.88h-1.6l-4-4.88H135v4.88h-1.29V209.91ZM135,211.12v4h3.09c1.71,0,2.6-.7,2.6-2s-.91-2-2.6-2Z"/><path class="cls-2" d="M156.63,221.13h-7.89V209.91h7.82v1.21H150v3.76h6.33v1.2H150v3.84h6.6Z"/><path class="cls-2" d="M164.77,214.87h6.79v-5h1.29v11.22h-1.29v-5h-6.79v5h-1.29V209.91h1.29Z"/><path class="cls-2" d="M191.18,215.52a5.79,5.79,0,1,1-5.79-5.77A5.59,5.59,0,0,1,191.18,215.52Zm-10.23,0a4.44,4.44,0,1,0,4.44-4.53A4.33,4.33,0,0,0,180.94,215.52Z"/><path class="cls-2" d="M205.71,221.13h-7.78V209.91h1.29v10h6.49Z"/><path class="cls-2" d="M216,209.91c3.66,0,6,2.19,6,5.61s-2.32,5.61-6,5.61h-4.22V209.91Zm-2.93,1.22v8.78H216c3,0,4.63-1.76,4.63-4.39s-1.6-4.39-4.63-4.39Z"/><path class="cls-2" d="M236.62,221.13h-7.89V209.91h7.82v1.21H230v3.76h6.33v1.2H230v3.84h6.6Z"/><path class="cls-2" d="M247.86,209.91c2.52,0,3.92,1.14,3.92,3.17s-1.51,3.17-3.9,3.17h-.18l4,4.88h-1.6l-4-4.88h-1.42v4.88h-1.29V209.91Zm-3.11,1.21v4h3.09c1.71,0,2.6-.7,2.6-2s-.91-2-2.6-2Z"/><path class="cls-2" d="M265.61,212a5.94,5.94,0,0,0-3.38-1c-1.69,0-2.9.76-2.9,2,0,1,.84,1.61,2.59,1.82L263,215c1.85.22,3.5,1,3.5,2.95,0,2.22-2,3.37-4.44,3.37a7.35,7.35,0,0,1-4.41-1.44l.71-1a6.16,6.16,0,0,0,3.69,1.25c1.74,0,3.11-.7,3.11-2,0-1.09-.94-1.64-2.72-1.84l-1.13-.13c-1.92-.22-3.31-1.11-3.31-3,0-2.13,1.9-3.33,4.25-3.33a6.8,6.8,0,0,1,4,1.23Z"/><path class="cls-2" d="M272.69,209.59v4.06H271.5v-4.06Z"/><path class="cls-2" d="M38.13,239.42c2.52,0,3.92,1.14,3.92,3.17s-1.51,3.18-3.9,3.18H38l4,4.88h-1.6l-4-4.88H35v4.88H33.73V239.42ZM35,240.63v4h3.09c1.71,0,2.6-.7,2.6-2s-.91-2-2.6-2Z"/><path class="cls-2" d="M56.62,250.64H48.72V239.42h7.82v1.21H50v3.76h6.33v1.2H50v3.84h6.6Z"/><path class="cls-2" d="M70.82,241.55a5.93,5.93,0,0,0-3.38-1.05c-1.69,0-2.9.76-2.9,2,0,1,.84,1.61,2.59,1.82l1.07.13c1.85.23,3.5,1,3.5,2.95,0,2.22-2,3.37-4.44,3.37a7.35,7.35,0,0,1-4.41-1.44l.71-1a6.16,6.16,0,0,0,3.69,1.25c1.74,0,3.11-.71,3.11-2,0-1.09-.94-1.63-2.72-1.84l-1.13-.13c-1.92-.22-3.31-1.11-3.31-3,0-2.13,1.9-3.33,4.25-3.33a6.81,6.81,0,0,1,4,1.23Z"/><path class="cls-2" d="M87.45,246.25a4.62,4.62,0,0,1-9.24,0v-6.83h1.28v6.73a3.33,3.33,0,1,0,6.67,0v-6.73h1.29Z"/><path class="cls-2" d="M102.5,250.64H94.72V239.42H96v10h6.49Z"/><path class="cls-2" d="M115.11,240.64h-3.89v10h-1.28v-10H106v-1.22h9.07Z"/><path class="cls-2" d="M133.35,239.42c2.36,0,4.06.83,4.06,3a2.48,2.48,0,0,1-1.69,2.49,2.66,2.66,0,0,1,1.93,2.66c0,2.18-1.6,3.12-4.09,3.12H129V239.42Zm-3.05,1.21v3.72h3c1.55,0,2.74-.37,2.74-1.88s-1.2-1.84-2.75-1.84Zm0,4.92v3.88h3.21c1.68,0,2.79-.44,2.79-1.95s-1.11-1.93-2.79-1.93Z"/><path class="cls-2" d="M148.89,239.42c2.52,0,3.92,1.14,3.92,3.17s-1.51,3.18-3.9,3.18h-.18l4,4.88h-1.6l-4-4.88h-1.42v4.88h-1.29V239.42Zm-3.11,1.21v4h3.09c1.71,0,2.6-.7,2.6-2s-.91-2-2.6-2Z"/><path class="cls-2" d="M160.77,250.64h-1.29V239.42h1.29Z"/><path class="cls-2" d="M176,250.64h-7.89V239.42h7.82v1.21h-6.53v3.76h6.33v1.2h-6.33v3.84H176Z"/><path class="cls-2" d="M190.32,245.6h-6.17v5h-1.29V239.42h7.77v1.22h-6.48v3.74h6.17Z"/><path class="cls-2" d="M198.36,250.64h-1.29V239.42h1.29Z"/><path class="cls-2" d="M215.12,250.64H214l-6.95-9v9h-1.29V239.42h1.16l6.95,9v-9h1.29Z"/><path class="cls-2" d="M232,241.15l-1,.91a4.5,4.5,0,1,0-3.45,7.5,3.76,3.76,0,0,0,4-3.71h-3.49v-1.2H233c0,.11,0,.22,0,.33,0,3.27-2.07,5.82-5.45,5.82a5.77,5.77,0,1,1,.06-11.53A5.68,5.68,0,0,1,232,241.15Z"/><path class="cls-2" d="M41.38,271.06A5.93,5.93,0,0,0,38,270c-1.69,0-2.9.76-2.9,2,0,1,.84,1.61,2.59,1.82l1.07.13c1.85.22,3.5,1,3.5,2.95,0,2.22-2,3.37-4.44,3.37a7.35,7.35,0,0,1-4.41-1.44l.71-1a6.16,6.16,0,0,0,3.69,1.25c1.74,0,3.11-.7,3.11-2,0-1.09-.94-1.64-2.72-1.84l-1.13-.13c-1.92-.22-3.31-1.11-3.31-3,0-2.13,1.9-3.33,4.25-3.33A6.81,6.81,0,0,1,42,270Z"/><path class="cls-2" d="M58.58,271.1l-1.07.72A4.13,4.13,0,0,0,54,270a4.53,4.53,0,0,0,0,9.06,4.13,4.13,0,0,0,3.5-1.8l1,.77A5.36,5.36,0,0,1,54,280.32a5.77,5.77,0,1,1,0-11.54A5.28,5.28,0,0,1,58.58,271.1Z"/><path class="cls-2" d="M66.37,273.9h6.79v-5h1.29v11.22H73.16v-5H66.37v5H65.08V268.94h1.29Z"/><path class="cls-2" d="M89.73,280.16H81.84V268.94h7.82v1.21H83.13v3.76h6.33v1.2H83.13v3.84h6.6Z"/><path class="cls-2" d="M100.79,268.94c3.66,0,6,2.19,6,5.61s-2.32,5.61-6,5.61H96.57V268.94Zm-2.93,1.22v8.78h2.93c3,0,4.63-1.76,4.63-4.39s-1.59-4.39-4.63-4.39Z"/><path class="cls-2" d="M122.62,275.77a4.62,4.62,0,0,1-9.24,0v-6.83h1.28v6.73a3.33,3.33,0,1,0,6.67,0v-6.73h1.29Z"/><path class="cls-2" d="M137.67,280.16h-7.78V268.94h1.29v10h6.49Z"/><path class="cls-2" d="M151.62,280.16h-7.89V268.94h7.82v1.21H145v3.76h6.33v1.2H145v3.84h6.6Z"/><rect class="cls-3" width="300" height="35"/><path class="cls-2" d="M37.78,72.65a23.82,23.82,0,0,0,4,.25c2,0,5.42-.13,6.63-.29a2.62,2.62,0,0,0,1.46-.46l1.71,1.25c-.5.71-.63,1-2.29,6.09-1,3.25-1.42,4.34-2.09,6.13a35.65,35.65,0,0,1,12.31,3.54A40.54,40.54,0,0,0,60,81.49a17.68,17.68,0,0,0-.12-3.09h2.25A9.82,9.82,0,0,0,62,80.86,52.22,52.22,0,0,1,61.23,90a65.57,65.57,0,0,1,5.88,3.25,7.57,7.57,0,0,0,1.29.63l-.79,2.17a42.84,42.84,0,0,0-6.84-4.26,20.91,20.91,0,0,1-11,12.93,8.59,8.59,0,0,0-1.5-1.5,18.92,18.92,0,0,0,6.92-5A17,17,0,0,0,59.1,91a32.17,32.17,0,0,0-12.52-3.76,98.38,98.38,0,0,1-3.8,9.89c-1.42,2.92-2.88,4.21-4.71,4.21-2.84,0-5-2.75-5-6.38a9.13,9.13,0,0,1,4.84-7.8,14.27,14.27,0,0,1,7.34-1.67C46.75,81.2,47,80.61,49,74.15c-4,.25-4,.25-9.05.42-.88,0-1.25.08-2.09.17ZM37.2,89.92A7.07,7.07,0,0,0,35,95c0,2.42,1.33,4.38,3,4.38,1,0,2-.92,3.13-3.09a81.88,81.88,0,0,0,3.55-9.18A11.07,11.07,0,0,0,37.2,89.92Z"/><path class="cls-2" d="M114.1,71.19c-.54.92-.54.92-4.84,11.93-1,2.54-1.67,4.13-3,6.88l-1.17,2.46.21.08a27.24,27.24,0,0,1,1.79-2.71c2-2.59,4-3.76,6.34-3.76a4.35,4.35,0,0,1,4.3,2.5,7.94,7.94,0,0,1,.5,3.5l0,3.76c0,2.5.17,3.34.79,4.17a4.47,4.47,0,0,0,3.5,1.38c3.21,0,5.59-1.79,7.26-5.55a18.35,18.35,0,0,0,1.63-5.59,8.75,8.75,0,0,0,1.84,1.67,22,22,0,0,1-2.75,6.76,9.26,9.26,0,0,1-8.05,4.59c-2.34,0-4.3-.88-5.21-2.38-.67-1.08-.92-2.25-.92-4.51,0-.12,0-.12,0-2.92v-.54a17,17,0,0,0-.17-2.84,2.59,2.59,0,0,0-2.84-2.29c-1.5,0-3,.71-4.59,2.25-2.38,2.25-3.88,4.67-5.59,9a30.1,30.1,0,0,0-1.63,4.67l-2.17-.67c.46-1,1.63-4,6.59-17,4.51-11.81,5.47-14.43,5.72-15.64Z"/><path class="cls-2" d="M179.19,70.18a16,16,0,0,0-.63,2.54c-.38,1.67-.63,2.8-1.25,5a35.35,35.35,0,0,0,7.84-1.42l.13,2a7.65,7.65,0,0,0-1.5.29c-1.75.33-4.55.71-7,.92a71.52,71.52,0,0,1-8.47,18.94l-1.92-1.25c3-3.63,6.26-10.43,8.39-17.56-.88,0-2.13,0-3.09,0s-2.5,0-3,0-.79,0-.92,0h-.5l0-1.92a28.86,28.86,0,0,0,4.84.29c1,0,1.71,0,3.13-.08a39.55,39.55,0,0,0,1.58-8.09Zm20.28,31.7a22.45,22.45,0,0,0-7.72-5.8,12,12,0,0,1,.13,1.58c0,4.3-2.55,6.51-7.59,6.51-4.76,0-7.68-2.09-7.68-5.51a5.68,5.68,0,0,1,4-5.13,12.22,12.22,0,0,1,4.21-.67,17.25,17.25,0,0,1,4.88.71,54.65,54.65,0,0,1-.42-6.13,16.4,16.4,0,0,1,.5-4l1.88.29a12,12,0,0,0-.58,4c0,1.42.17,3.46.46,6.47a28.22,28.22,0,0,1,8.34,5.22,6.44,6.44,0,0,0,.71.58Zm-14.73-7.38c-3.84,0-6.3,1.59-6.3,4.13s2.13,3.8,5.88,3.8,5.72-1.58,5.72-4.8a20.06,20.06,0,0,0-.17-2.25A15.08,15.08,0,0,0,184.74,94.51ZM199.3,83.24a41.8,41.8,0,0,0-10.6-5.59l1-1.5a53.08,53.08,0,0,1,10.64,5.51Z"/><path class="cls-2" d="M247.46,91.71c-2.34,5.51-4.76,8.09-7.55,8.09-3.59,0-6.34-4.13-6.34-9.47a17.42,17.42,0,0,1,2.75-9.26c3.13-4.84,8.26-7.43,14.6-7.43,4.46,0,8.34,1.38,11,3.88a13.56,13.56,0,0,1,4,9.89,15,15,0,0,1-9.3,14,32.67,32.67,0,0,1-6.09,2,4.21,4.21,0,0,0-1-1.88,27.78,27.78,0,0,0,7-2.13,13.05,13.05,0,0,0,7.43-11.93c0-5.17-2.71-9.3-7.26-11.05a13.73,13.73,0,0,0-5.17-1A63,63,0,0,1,247.46,91.71Zm-4.59-14.39a14.76,14.76,0,0,0-7.38,13c0,4.25,1.92,7.55,4.38,7.55a3.94,3.94,0,0,0,3-1.84c2-2.59,4-7.3,5.17-12.64a69.75,69.75,0,0,0,1.38-8A14.72,14.72,0,0,0,242.87,77.32Z"/><path class="cls-2" d="M31.9,145.82a17.86,17.86,0,0,0,3.34.21h7.88a16.79,16.79,0,0,0,3.34-.21v2a19,19,0,0,0-3-.17H35.24a25.07,25.07,0,0,0-3.34.17Zm12.85,22.47c0,1.17,0,1.88.08,2.8C43.29,171,43,171,42.37,171H35.65v1.91H33.82a40.22,40.22,0,0,0,.21-4v-4.75a29.16,29.16,0,0,0-.17-3.46,12.26,12.26,0,0,0,2.59.17h5.88a17.39,17.39,0,0,0,2.54-.13c-.08.92-.13,1.88-.13,3.38Zm.08-15.69a18.92,18.92,0,0,0-2.88-.17H36.78a18.49,18.49,0,0,0-2.92.17v-1.84a17.75,17.75,0,0,0,2.92.17H42a17.18,17.18,0,0,0,2.88-.17Zm0,5a19,19,0,0,0-2.88-.17H36.78a18.52,18.52,0,0,0-2.92.17v-1.84a17.75,17.75,0,0,0,2.92.17H42a17.18,17.18,0,0,0,2.88-.17ZM45,143a19.34,19.34,0,0,0-2.84-.17H36.78a19,19,0,0,0-2.84.17V141.1a13.6,13.6,0,0,0,2.84.21h5.38A13.84,13.84,0,0,0,45,141.1Zm-9.34,26.52h7.51v-7.26H35.65Zm23.48-23.46a34.11,34.11,0,0,0,3.8-8l1.75.79a44.82,44.82,0,0,1-3.8,7.18h3a23.72,23.72,0,0,0,3.25-.17c-.08,1-.12,1.92-.12,3V155a22.87,22.87,0,0,0,.12,2.59,24.72,24.72,0,0,0-2.88-.17H61v14.35c0,1.13.33,1.29,2.67,1.29,1.71,0,2.54-.17,3-.54.67-.58,1-2.17,1.17-6a4.25,4.25,0,0,0,1.75.88c-.42,4.51-.88,6-2.09,6.76-.63.42-1.79.58-4,.58-3.84,0-4.25-.29-4.25-2.84V157.39H55c-.08,4.76-.46,7.63-1.5,10.39a13.44,13.44,0,0,1-2.8,4.67,12.7,12.7,0,0,1-4.09,3,4.09,4.09,0,0,0-1.42-1.38,11.43,11.43,0,0,0,5-3.71c2.13-2.75,3-6.22,3-13h-2a21.15,21.15,0,0,0-2.79.17,25.35,25.35,0,0,0,.12-2.8v-5.59a21.37,21.37,0,0,0-.17-3.25,26.5,26.5,0,0,0,3.55.17Zm-5.72-.67A23.6,23.6,0,0,0,49.83,139l1.46-.83A31.33,31.33,0,0,1,55,144.49Zm-3.21,2.21v8.22h15.1v-8.22Z"/><path class="cls-2" d="M100,143.31a25.47,25.47,0,0,0-.17-3.17c1.33.08,2.59.12,5.47.12h3.59c2,0,2.88,0,3.8-.12a33.64,33.64,0,0,0-.13,3.37v15c0,2.55,0,4.17.13,5h-1.84v-2.08h-9.1v2.09h-2a26.62,26.62,0,0,0,.25-4.32Zm1.75,6.41h9.1v-7.91h-9.1Zm0,10.1h9.1v-8.6h-9.1Zm16.48,1.53a22.86,22.86,0,0,1-2.84,8.43,18.17,18.17,0,0,1-5,5.59,5,5,0,0,0-1.46-1.29,16.11,16.11,0,0,0,4.55-4.67c3-4.55,3.8-9.39,3.8-22.78a64.27,64.27,0,0,0-.17-6.51,29,29,0,0,0,3.71.17h9a29.8,29.8,0,0,0,3.71-.17,30.92,30.92,0,0,0-.17,3.84v27.53c0,2.38-.71,3-3.3,3-1.25,0-3-.08-4.63-.25a6.74,6.74,0,0,0-.5-2,33.39,33.39,0,0,0,5.17.59c1.29,0,1.5-.21,1.5-1.5v-10Zm.75-10.14c-.12,3.71-.25,6.3-.54,8.64h13.18v-8.64Zm12.64-9.39H119v7.89h12.6Z"/><path class="cls-2" d="M184.95,138a28.26,28.26,0,0,0,5.8,6.76,47.09,47.09,0,0,0,13.06,8.13,5.5,5.5,0,0,0-1.34,1.71C194,150.42,188,145.58,184,139.7a41,41,0,0,1-8,8.55,46.49,46.49,0,0,1-9.68,6.17,4.06,4.06,0,0,0-1.42-1.5,43,43,0,0,0,10.14-6.26,34.21,34.21,0,0,0,7.84-8.64Zm-17.77,33.92c.63,0,1.33.08,2,.08.17,0,1.79-.13,4.8-.33a68.8,68.8,0,0,0,5.72-10.8h-8.34a34.5,34.5,0,0,0-4.67.25V159a33.2,33.2,0,0,0,4.67.25h25.57a33.19,33.19,0,0,0,4.67-.25v2.13a34.92,34.92,0,0,0-4.67-.25H181.65A80.76,80.76,0,0,1,176,171.57c6.76-.5,10-.83,17.69-1.84-2-2.09-2.92-3-5.55-5.47l1.38-1a83.85,83.85,0,0,1,10.26,11l-1.46,1.29c-1.54-2.13-2.09-2.8-3.38-4.34-8,1.09-13.14,1.67-19.48,2.17-6.63.54-6.92.58-7.88.83Zm7.05-20.61a17.84,17.84,0,0,0,3.13.17h13.27a22.43,22.43,0,0,0,3.38-.17v1.92a23.88,23.88,0,0,0-3.38-.17H177.32a19.5,19.5,0,0,0-3.09.17Z"/></g></g></svg>