<svg xmlns="http://www.w3.org/2000/svg" viewBox="0 0 300 35"><defs><style>.cls-1{fill:gray;}.cls-2{fill:#fff;}</style></defs><title>アセット 8</title><g id="レイヤー_2" data-name="レイヤー 2"><g id="レイヤー1"><rect class="cls-1" width="300" height="35"/><path class="cls-2" d="M125.5,23.51v1H124a15.58,15.58,0,0,0,.07-1.71v-7a9.65,9.65,0,0,0-.07-1.46c.69,0,1,.05,1.74.05h6.64a13.54,13.54,0,0,0,1.69-.07,13,13,0,0,0-.06,1.47v7a15.48,15.48,0,0,0,.06,1.72h-1.51v-1Zm7-7.8h-7v6.49h7Z"/><path class="cls-2" d="M142.77,13.36a2.4,2.4,0,0,0-.29.53,11.69,11.69,0,0,1-.57,1.18,4.4,4.4,0,0,1,.6,0l2.79,0a2.55,2.55,0,0,0,.9-.11l1.18,1.25a2.07,2.07,0,0,0-.32.77,15.21,15.21,0,0,1-2.69,4.86,13.74,13.74,0,0,1-4.94,3.53,3.55,3.55,0,0,0-1-1.21,11.83,11.83,0,0,0,4.85-3.35,12.21,12.21,0,0,0,2.38-4.46l-4.43.07a14.16,14.16,0,0,1-3.29,3.59,3.07,3.07,0,0,0-1.13-1,10.75,10.75,0,0,0,3.59-4,5.8,5.8,0,0,0,.78-1.93ZM146.9,13a9.34,9.34,0,0,1,1.46,2.1l-.87.48A10.3,10.3,0,0,0,146,13.38Zm1.64-.8a8.69,8.69,0,0,1,1.44,2l-.85.49a10.7,10.7,0,0,0-1.43-2.1Z"/><path class="cls-2" d="M162.16,14.13a7.3,7.3,0,0,0-.63.6,22.65,22.65,0,0,1-3.22,2.79v5.64a13.61,13.61,0,0,0,.08,1.85h-1.67a12,12,0,0,0,.08-1.85V18.44a21.79,21.79,0,0,1-5.15,2.34,4.82,4.82,0,0,0-.78-1.35,19.91,19.91,0,0,0,7.31-3.63,11.44,11.44,0,0,0,2.63-2.63Z"/><path class="cls-2" d="M165.79,23a12.64,12.64,0,0,0,4.12-1,9.62,9.62,0,0,0,4.17-3.4,12.29,12.29,0,0,0,1.47-2.83,4.74,4.74,0,0,0,1.22,1.15,12.17,12.17,0,0,1-4.37,5.44,14.49,14.49,0,0,1-5.29,2.1,6,6,0,0,0-.88.22Zm1.06-8.68a19.06,19.06,0,0,1,3.53,2.68l-1,1.25a15.29,15.29,0,0,0-3.49-2.8Z"/></g></g></svg>