<?xml version="1.0" encoding="utf-8"?>
<!-- Generator: Adobe Illustrator 20.0.0, SVG Export Plug-In . SVG Version: 6.00 Build 0)  -->
<svg version="1.1" id="レイヤー_1" xmlns="http://www.w3.org/2000/svg" xmlns:xlink="http://www.w3.org/1999/xlink" x="0px"
	 y="0px" viewBox="0 0 150 150" style="enable-background:new 0 0 150 150;" xml:space="preserve">
<style type="text/css">
	.st0{fill:none;}
	.st1{enable-background:new    ;}
	.st2{fill:#FFFFFF;}
	.st3{fill:none;stroke:#FFFFFF;stroke-miterlimit:10;}
</style>
<title>アセット 2</title>
<g id="レイヤー_2">
	<g id="レイヤー1">
		<rect y="0" class="st0" width="150" height="150"/>
		<g class="st1">
			<path class="st2" d="M28.1,119.6c-0.4-1-0.6-1.5-1.1-2.1c-1-1.1-2.4-1.7-4.2-1.7c-3.9,0-6.3,3-6.3,7.8c0,4.8,2.5,7.8,6.3,7.8
				c1.9,0,3.5-0.7,4.5-2c0.5-0.7,0.7-1.3,1-2.4l2,0.5c-0.4,1.4-0.7,2.1-1.3,2.9c-1.3,1.8-3.5,2.8-6.2,2.8c-2.3,0-4.2-0.7-5.6-2.1
				c-1.7-1.7-2.6-4.3-2.6-7.3c0-3.1,1-5.7,2.7-7.5c1.4-1.3,3.2-2,5.5-2c2.3,0,4.1,0.6,5.4,1.9c0.8,0.8,1.3,1.5,1.9,3L28.1,119.6z"/>
		</g>
		<g class="st1">
			<path class="st2" d="M51.2,132.8c-0.8-0.1-1.4-0.2-2.7-0.2h-7c-1.2,0-1.8,0-2.6,0.1c0.1-0.9,0.2-1.6,0.2-2.9V117
				c0-1,0-1.7-0.2-2.7c0.8,0,1.5,0.1,2.6,0.1h6.8c1.1,0,1.9,0,2.7-0.2v2c-0.8-0.1-1.5-0.2-2.7-0.2h-7.4v6.1h6.3c1.1,0,1.8,0,2.7-0.2
				v2c-0.8-0.1-1.4-0.2-2.7-0.2h-6.3v7.1h7.6c1.1,0,1.8,0,2.7-0.2V132.8z"/>
		</g>
		<g class="st1">
			<path class="st2" d="M75.5,123.5c0,5.8-3.2,9.5-8.3,9.5s-8.3-3.7-8.3-9.5c0-5.8,3.3-9.5,8.3-9.5C72.3,114,75.5,117.7,75.5,123.5z
				 M71.4,129.6c1.4-1.3,2.1-3.6,2.1-6.1c0-2.6-0.7-4.8-2.1-6.1c-1.1-1.1-2.5-1.7-4.2-1.7c-3.8,0-6.4,3.1-6.4,7.8
				c0,4.7,2.5,7.8,6.4,7.8C68.9,131.3,70.3,130.7,71.4,129.6z"/>
		</g>
		<g class="st1">
			<path class="st2" d="M85.9,119c-0.6,0-1.2,0-1.7,0.1v-1.6c0.6,0.1,1,0.1,1.7,0.1H87v-2.3c0-1,0-1.6-0.2-2.4h1.8
				c-0.1,0.7-0.2,1.4-0.2,2.4v2.3h0.9c0.6,0,0.9,0,1.4-0.1v1.5c-0.5-0.1-0.9-0.1-1.5-0.1h-0.8v4.7c0.9-0.4,1.3-0.6,2.4-1.2l0,1.4
				c-0.9,0.5-1.1,0.6-2.4,1.2v7.4c0,1.4-0.5,1.7-2.7,1.7c-0.4,0-0.7,0-1.2,0c0-0.6-0.1-0.9-0.3-1.5c0.9,0.1,1.3,0.1,1.9,0.1
				c0.6,0,0.8-0.1,0.8-0.6v-6.5c-1.7,0.7-2.6,1.1-2.8,1.2l-0.4-1.6c0.8-0.2,1.6-0.4,3.2-1.1V119H85.9z M93.8,123.1
				c-0.7,1.2-1.1,1.6-2.1,2.7c-0.5-0.5-0.7-0.6-1.2-0.9c0.9-0.8,1.5-1.5,2.2-2.6c0.6-1,0.9-1.7,1.2-2.9l1.5,0.5
				c-0.4,0.9-0.6,1.3-0.9,1.8h7.1c1.5,0,2.1,0,2.7-0.1v1.6c-0.7-0.1-1.5-0.1-2.7-0.1h-3.1c-0.1,1.6-0.1,2.4-0.3,3.4h4.6
				c1.2,0,2,0,2.6-0.1v1.6c-0.7-0.1-1.6-0.2-2.7-0.2h-4c1.6,2.8,3.8,4.4,7.1,5.3c-0.4,0.4-0.6,0.9-0.9,1.5c-3.4-1.2-5.9-3.1-7.3-6.1
				c-0.7,1.9-1.8,3.2-3.5,4.3c-1.1,0.7-2.2,1.2-4,1.8c-0.3-0.7-0.5-0.9-0.9-1.4c1.9-0.4,3.1-0.9,4.4-1.8c1.2-0.8,2.1-2,2.7-3.6H93
				c-1.2,0-1.8,0-2.6,0.2v-1.6c0.7,0.1,1.3,0.1,2.6,0.1h3.8c0.2-1.1,0.3-1.7,0.3-3.4H93.8z M91.3,117.6c0.6,0.1,0.8,0.1,2.2,0.1
				c1.4-2.1,2-3.4,2.4-4.8l1.7,0.4c-1.1,2.1-1.7,3-2.5,4.3c2.5,0,3.7-0.1,6.4-0.3c-0.9-1.1-1.2-1.4-2.3-2.5l1.2-0.7
				c1.8,1.8,3.1,3.3,4.7,5.4l-1.3,0.9c-0.6-1-0.9-1.3-1.3-1.9c-4.3,0.3-5.5,0.4-9.5,0.5c-0.6,0-1.1,0.1-1.5,0.1L91.3,117.6z"/>
		</g>
		<g class="st1">
			<path class="st2" d="M117.1,115.3c0-1,0-1.7-0.2-2.4h1.8c-0.1,0.7-0.2,1.4-0.2,2.4v2.3h1c0.8,0,1.2,0,1.6-0.1v1.6
				c-0.5-0.1-0.9-0.1-1.6-0.1h-1v5c1.1-0.4,1.6-0.6,3-1.3l0,1.4c-1.5,0.7-2,0.9-3,1.3v7.2c0,1.4-0.5,1.6-2.8,1.6c-0.1,0-0.2,0-1.2,0
				c0-0.6-0.1-0.8-0.3-1.5c0.9,0.1,1.3,0.1,2.2,0.1c0.5,0,0.6-0.1,0.6-0.4V126c-0.2,0.1-0.2,0.1-0.5,0.2c-0.4,0.1-0.8,0.3-1.3,0.5
				c-0.6,0.2-0.7,0.3-1.2,0.5l-0.4-1.6c0.9-0.1,1.5-0.3,3.4-1v-5.5h-1.3c-0.6,0-1.1,0-1.8,0.1v-1.6c0.6,0.1,1.2,0.1,1.8,0.1h1.3
				V115.3z M131.9,123.6c0.9,0,1.3,0,1.6-0.1l0.8,1c-0.2,0.3-0.2,0.4-0.6,1.1c-1.5,2.6-3.4,4.6-5.9,6.4c-1.9,1.3-3.9,2.2-6.4,2.7
				c-0.2-0.5-0.4-0.9-0.9-1.4c3-0.6,5.4-1.7,7.7-3.4c-1.2-1-2.1-1.6-3.6-2.3l0.9-1.1c1.4,0.7,2.4,1.4,3.7,2.4c1.3-1.3,2.3-2.5,3.1-4
				h-6.7c-1.5,1.8-2.8,3-4.6,4.2c-0.3-0.5-0.6-0.8-1.1-1.1c2-1.1,3.4-2.3,4.6-3.9c0.7-0.9,1.2-1.8,1.4-2.6l1.6,0.6
				c-0.2,0.3-0.2,0.3-0.5,0.8c-0.1,0.2-0.3,0.5-0.5,0.7H131.9z M125.8,113.5c-0.2,0.3-0.3,0.5-0.6,0.9c-0.9,1.5-1.3,2.1-2.2,3.2
				c1.4,2,1.8,2.6,2.6,4.1l-1.4,0.7c-1-2.2-1.6-3.3-2.8-4.8c1.3-1.6,2.4-3.5,2.7-4.7L125.8,113.5z M130.2,113.4
				c-0.3,0.4-0.3,0.4-0.9,1.5c-0.4,0.6-0.7,1.2-1.7,2.4c1.1,1.5,1.7,2.3,2.6,4.1l-1.4,0.6c-1.1-2.2-1.8-3.4-2.9-4.7
				c1.3-1.6,2.4-3.4,2.6-4.6L130.2,113.4z M134.9,113.5c-0.1,0.1-0.4,0.6-0.6,0.8c-0.4,0.8-1.2,2-2,3.1c1.4,1.6,1.9,2.4,3,4
				l-1.3,0.8c-1.2-2.1-2.1-3.3-3.3-4.8c1.3-1.7,2.3-3.4,2.6-4.7L134.9,113.5z"/>
		</g>
		<line class="st3" x1="62.4" y1="51" x2="61.8" y2="48.4"/>
		<line class="st3" x1="60.5" y1="41.6" x2="60.8" y2="43.8"/>
		<path class="st3" d="M112.8,85.6c0-2.6-6.6-6.3-16.8-10s-13.3-6.8-13.3-13.5c0-4,3.1-4,4.9-11.1c1,0,4.2-0.4,4.7-4.7
			s-2.8-4.6-2.8-4.6c1-10.5-4-20-14.5-20s-15.5,9.5-14.5,20c0,0-3.3,0.4-2.8,4.6s3.6,4.7,4.7,4.7c1.8,7.2,4.9,7.1,4.9,11.1
			c0,6.7-3.2,9.8-13.4,13.5s-16.8,7.5-16.8,10"/>
		<line class="st3" x1="87.6" y1="51" x2="88.2" y2="48.4"/>
		<line class="st3" x1="89.5" y1="41.6" x2="89.2" y2="43.8"/>
		<circle class="st2" cx="81.3" cy="42.3" r="1"/>
		<circle class="st2" cx="68.7" cy="42.3" r="1"/>
		<path class="st3" d="M78.3,62.9c2.5-0.8,3.9-2.1,5.7-4.5"/>
	</g>
</g>
</svg>
