<svg xmlns="http://www.w3.org/2000/svg" viewBox="0 0 150 150"><defs><style>.cls-1,.cls-3{fill:none;}.cls-2{fill:#fff;}.cls-3{stroke:#fff;}</style></defs><title>アセット 3</title><g id="レイヤー_2" data-name="レイヤー 2"><g id="レイヤー1"><rect class="cls-1" width="150" height="150"/><path class="cls-2" d="M16.23,92.69a6.75,6.75,0,0,0-.74,1.46,39.25,39.25,0,0,1-3.53,7,61.73,61.73,0,0,1,5.52,5.16l-1.34,1.49a34.36,34.36,0,0,0-5.23-5.21A28.66,28.66,0,0,1,1.25,111,4.28,4.28,0,0,0,0,109.52a25.57,25.57,0,0,0,9.55-8A45.48,45.48,0,0,0,3.1,97.15l1.2-1.27a68.88,68.88,0,0,1,6.24,4.18,33,33,0,0,0,2.83-5.59,10.49,10.49,0,0,0,.84-2.54Z" transform="translate(25.24 22.2)"/><path class="cls-2" d="M27.47,108.48a20.89,20.89,0,0,0,7-1.85A18.14,18.14,0,0,0,44.24,96a4.81,4.81,0,0,0,1.46,1.42,21,21,0,0,1-7.32,9.17,24.2,24.2,0,0,1-9,3.58,12.64,12.64,0,0,0-1.44.38ZM29,93.6a31.26,31.26,0,0,1,5.78,4.51L33.54,99.6a26.51,26.51,0,0,0-5.71-4.7Z" transform="translate(25.24 22.2)"/><path class="cls-2" d="M59.89,93.48a8.69,8.69,0,0,0-.31,1.63c-1,6.84-3,11.45-6.34,15a5.26,5.26,0,0,0-1.54-1.25,15.43,15.43,0,0,0,3.48-4.75,27.79,27.79,0,0,0,2.47-8.33,19.08,19.08,0,0,0,.24-2.26,2.63,2.63,0,0,0,0-.38Zm6.65-.36a29,29,0,0,0,1.1,5.76,21.18,21.18,0,0,0,5.45,9.91,5.19,5.19,0,0,0-1.49,1.34c-3.19-3.38-5.59-8.93-6.53-15.07a10.43,10.43,0,0,0-.31-1.58Zm2.54-1.27a17.79,17.79,0,0,1,2.4,3.77l-1.22.7a18.13,18.13,0,0,0-2.38-3.86Zm2.74-1.25a18.39,18.39,0,0,1,2.4,3.79L73,95a18.83,18.83,0,0,0-2.38-3.82Z" transform="translate(25.24 22.2)"/><path class="cls-2" d="M80,100.37a17,17,0,0,0,3,.14H96.93a18.9,18.9,0,0,0,2.9-.12v1.94a27.46,27.46,0,0,0-2.93-.1H83a26.22,26.22,0,0,0-3,.1Z" transform="translate(25.24 22.2)"/><polygon class="cls-3" points="73.17 33.87 66.72 45.05 53.82 45.05 47.37 33.87 53.82 22.7 66.72 22.7 73.17 33.87"/><polygon class="cls-3" points="92.53 45.05 86.08 56.22 73.17 56.22 66.72 45.05 73.17 33.87 86.08 33.87 92.53 45.05"/><polygon class="cls-3" points="73.17 56.22 66.72 67.39 53.82 67.39 47.37 56.22 53.82 45.05 66.72 45.05 73.17 56.22"/><polygon class="cls-3" points="53.82 67.39 47.37 78.57 34.47 78.57 28.02 67.39 34.47 56.22 47.37 56.22 53.82 67.39"/><polygon class="cls-3" points="111.88 33.87 105.43 45.05 92.53 45.05 86.08 33.87 92.53 22.7 105.43 22.7 111.88 33.87"/><polygon class="cls-3" points="92.53 67.39 86.08 78.57 73.17 78.57 66.72 67.39 73.17 56.22 86.08 56.22 92.53 67.39"/><polygon class="cls-3" points="111.88 78.57 105.43 89.75 92.53 89.75 86.08 78.57 92.53 67.39 105.43 67.39 111.88 78.57"/></g></g></svg>