<svg xmlns="http://www.w3.org/2000/svg" xmlns:xlink="http://www.w3.org/1999/xlink" viewBox="0 0 1200.01 1050"><defs><style>.cls-1,.cls-15,.cls-20,.cls-25,.cls-26,.cls-4,.cls-7{fill:none;}.cls-2{isolation:isolate;}.cls-3{fill:#f5f5f7;}.cls-4{stroke:#fff;}.cls-23,.cls-24,.cls-5,.cls-9{fill:#ff4736;}.cls-18,.cls-27,.cls-6,.cls-7,.cls-8{mix-blend-mode:multiply;}.cls-6{fill:url(#linear-gradient);}.cls-7{stroke:#00005a;stroke-width:1.35px;}.cls-20,.cls-25,.cls-26,.cls-7{stroke-linecap:round;}.cls-8{fill:url(#linear-gradient-2);}.cls-9{writing-mode:tb;text-orientation:upright;glyph-orientation-vertical:0deg;}.cls-23,.cls-24,.cls-9{font-size:30px;}.cls-24,.cls-9{font-family:HiraginoSans-W4-83pv-RKSJ-H, Hiragino Sans;}.cls-10{fill:#00005a;}.cls-11{font-size:24px;font-family:HiraginoSans-W5-83pv-RKSJ-H, Hiragino Sans;}.cls-11,.cls-13{fill:#fff;}.cls-12{fill:#f0e1d2;}.cls-14{fill:#efd4c4;}.cls-15,.cls-20,.cls-25,.cls-26{stroke:#ff4736;}.cls-15,.cls-25,.cls-26{stroke-miterlimit:10;}.cls-15{stroke-width:2.66px;}.cls-16{clip-path:url(#clip-path);}.cls-17{fill:#6b95df;}.cls-19{fill:#97b5e9;}.cls-20{stroke-width:2px;}.cls-21{fill:gray;}.cls-22{clip-path:url(#clip-path-2);}.cls-23{font-family:MarkOT, Mark OT;}.cls-25{stroke-width:1.65px;}.cls-26{stroke-width:1.59px;}.cls-27{opacity:0.7;}</style><linearGradient id="linear-gradient" x1="476.78" y1="571" x2="379.95" y2="615.17" gradientUnits="userSpaceOnUse"><stop offset="0" stop-color="#fff"/><stop offset="0.37" stop-color="#b3b3b3"/><stop offset="0.46" stop-color="#c9c9c9"/><stop offset="0.57" stop-color="#e1e1e1"/><stop offset="0.7" stop-color="#f2f2f2"/><stop offset="0.83" stop-color="#fcfcfc"/><stop offset="1" stop-color="#fff"/></linearGradient><linearGradient id="linear-gradient-2" x1="541.37" y1="324.16" x2="464.92" y2="354.74" xlink:href="#linear-gradient"/><clipPath id="clip-path"><circle class="cls-1" cx="682.71" cy="796.3" r="22.24"/></clipPath><clipPath id="clip-path-2"><path class="cls-1" d="M574.65,100.48v14.21a3.27,3.27,0,0,1-6.55,0V100.48Z"/></clipPath></defs><title>アセット 1</title><g class="cls-2"><g id="レイヤー_2" data-name="レイヤー 2"><g id="レイヤー1"><rect class="cls-3" x="0.01" width="1200" height="1050"/><line class="cls-4" y1="180" x2="1200.01" y2="180"/><line class="cls-4" y1="210" x2="1200.01" y2="210"/><line class="cls-4" y1="150" x2="1200.01" y2="150"/><line class="cls-4" y1="120" x2="1200.01" y2="120"/><line class="cls-4" y1="90" x2="1200.01" y2="90"/><line class="cls-4" y1="60" x2="1200.01" y2="60"/><line class="cls-4" y1="30" x2="1200.01" y2="30"/><line class="cls-4" y1="240" x2="1200.01" y2="240"/><line class="cls-4" y1="270" x2="1200.01" y2="270"/><line class="cls-4" y1="300" x2="1200.01" y2="300"/><line class="cls-4" y1="330" x2="1200.01" y2="330"/><line class="cls-4" y1="360" x2="1200.01" y2="360"/><line class="cls-4" y1="390" x2="1200.01" y2="390"/><line class="cls-4" y1="420" x2="1200.01" y2="420"/><line class="cls-4" y1="450" x2="1200.01" y2="450"/><line class="cls-4" y1="480" x2="1200.01" y2="480"/><line class="cls-4" y1="510" x2="1200.01" y2="510"/><line class="cls-4" y1="540" x2="1200.01" y2="540"/><line class="cls-4" y1="570" x2="1200.01" y2="570"/><line class="cls-4" y1="600" x2="1200.01" y2="600"/><line class="cls-4" y1="630" x2="1200.01" y2="630"/><line class="cls-4" y1="660" x2="1200.01" y2="660"/><line class="cls-4" y1="690" x2="1200.01" y2="690"/><line class="cls-4" y1="720" x2="1200.01" y2="720"/><line class="cls-4" y1="750" x2="1200.01" y2="750"/><line class="cls-4" y1="780" x2="1200.01" y2="780"/><line class="cls-4" y1="810" x2="1200.01" y2="810"/><line class="cls-4" y1="840" x2="1200.01" y2="840"/><line class="cls-4" y1="870" x2="1200.01" y2="870"/><line class="cls-4" y1="900" x2="1200.01" y2="900"/><line class="cls-4" y1="930" x2="1200.01" y2="930"/><line class="cls-4" y1="960" x2="1200.01" y2="960"/><line class="cls-4" y1="990" x2="1200.01" y2="990"/><line class="cls-4" y1="1020" x2="1200.01" y2="1020"/><line class="cls-4" x1="1073.7" x2="1073.7" y2="1050"/><line class="cls-4" x1="1042.12" x2="1042.12" y2="1050"/><line class="cls-4" x1="1105.28" x2="1105.28" y2="1050"/><line class="cls-4" x1="1136.86" x2="1136.86" y2="1050"/><line class="cls-4" x1="1168.44" x2="1168.44" y2="1050"/><line class="cls-4" x1="1010.54" x2="1010.54" y2="1050"/><line class="cls-4" x1="978.96" x2="978.96" y2="1050"/><line class="cls-4" x1="947.38" x2="947.38" y2="1050"/><line class="cls-4" x1="915.8" x2="915.8" y2="1050"/><line class="cls-4" x1="884.22" x2="884.22" y2="1050"/><line class="cls-4" x1="852.65" x2="852.65" y2="1050"/><line class="cls-4" x1="821.06" x2="821.06" y2="1050"/><line class="cls-4" x1="789.49" x2="789.49" y2="1050"/><line class="cls-4" x1="757.91" x2="757.91" y2="1050"/><line class="cls-4" x1="726.33" x2="726.33" y2="1050"/><line class="cls-4" x1="694.75" x2="694.75" y2="1050"/><line class="cls-4" x1="663.17" x2="663.17" y2="1050"/><line class="cls-4" x1="631.59" x2="631.59" y2="1050"/><line class="cls-4" x1="600.02" x2="600.02" y2="1050"/><line class="cls-4" x1="568.43" x2="568.43" y2="1050"/><line class="cls-4" x1="536.85" x2="536.85" y2="1050"/><line class="cls-4" x1="505.28" x2="505.28" y2="1050"/><line class="cls-4" x1="473.7" x2="473.7" y2="1050"/><line class="cls-4" x1="442.12" x2="442.12" y2="1050"/><line class="cls-4" x1="410.54" y1="211.33" x2="410.54" y2="1050"/><line class="cls-4" x1="410.54" x2="410.54" y2="211.33"/><line class="cls-4" x1="378.96" x2="378.96" y2="1050"/><line class="cls-4" x1="347.38" x2="347.38" y2="1050"/><line class="cls-4" x1="315.8" x2="315.8" y2="1050"/><line class="cls-4" x1="284.22" x2="284.22" y2="1050"/><line class="cls-4" x1="252.65" x2="252.65" y2="1050"/><line class="cls-4" x1="221.07" x2="221.07" y2="1050"/><line class="cls-4" x1="189.49" x2="189.49" y2="1050"/><line class="cls-4" x1="157.91" x2="157.91" y2="1050"/><line class="cls-4" x1="126.33" x2="126.33" y2="1050"/><line class="cls-4" x1="94.75" x2="94.75" y2="1050"/><line class="cls-4" x1="63.17" x2="63.17" y2="1050"/><line class="cls-4" x1="31.59" x2="31.59" y2="1050"/><path class="cls-5" d="M211.92,719.91a15,15,0,0,1-15-15c0-93.94,53.14-170.48,153.66-221.37,78.9-39.94,187.17-63,297.06-63.41,64.9-.19,125.08,7.68,169.43,22.22,65.5,21.48,79.42,51.41,79.56,72.74a15,15,0,0,1-29.94.2c-.1-15.78-22.14-32.41-58.95-44.48-41.38-13.57-98.22-20.91-160-20.73-105.38.35-208.76,22.28-283.63,60.18-42.87,21.7-76.28,48.3-99.3,79-25.18,33.63-37.94,72.52-37.94,115.61A15,15,0,0,1,211.92,719.91Z"/><path class="cls-6" d="M196.94,704.94c-.06-52.24,16.5-97.24,44.27-134h0C269,534,307.56,505.2,351.75,483h0c88.46-44.35,199.8-62.77,298.49-62.84h0c48.36,0,93.66,4.46,131.92,12.83h0c38.28,8.47,69.52,20.37,90.56,37.62h0c13.89,11.35,23.84,26.65,23.94,44.53h0a15,15,0,0,1-14.88,15.06h0a15,15,0,0,1-15.07-14.87h0c-.07-6.52-3.32-13.43-13.09-21.67h0c-9.64-8-25.21-16-45.07-22.57h0c-39.76-13.22-96.34-21-158.32-21h0c-71.19,0-149.64,10.18-219.13,32.84h0c-69.58,22.62-129.79,57.75-166,106h0c-24.16,32.2-38.2,70-38.26,116h0a15,15,0,0,1-15,15h0a15,15,0,0,1-15-15Z"/><path class="cls-7" d="M211.92,704.94c0-324.78,669-313.15,669.77-189.72"/><path class="cls-5" d="M359.17,448.7a15,15,0,0,1-14.84-13.19c-9.13-76,48.22-136,157.35-164.86,48.36-12.77,102.8-17.85,149.38-13.92,66,5.56,87.88,25.82,94.59,41.83A15,15,0,1,1,718,310.13c-1.88-4.49-9.16-9.54-19.47-13.51-12.68-4.89-30-8.36-50-10-43.3-3.65-94,1.11-139.22,13C466.18,311,431,328.17,407.47,349.27c-26,23.32-37.21,51.14-33.42,82.68A15,15,0,0,1,361,448.59,15.12,15.12,0,0,1,359.17,448.7Z"/><path class="cls-8" d="M344.32,435.52a129.64,129.64,0,0,1-.95-15.55h0c-.07-29.84,11-56.08,28.73-77.15h0c17.73-21.16,41.8-37.61,68.9-50.44h0c54.25-25.55,121-36.89,178.22-36.94h0c29.62,0,56.59,3,78.43,9.32h0c21.51,6.53,39.61,15.35,48,33.8h0a15,15,0,0,1-8,19.59h0a15,15,0,0,1-19.59-8h0c-.81-3.48-10.47-11.63-28.7-16.6h0c-17.9-5.2-42.63-8.17-70.11-8.15h0c-39.88,0-85.66,6.14-126.55,19h0c-41,12.82-76.75,32.54-97.6,57.63h0c-13.94,16.8-21.69,35.41-21.76,58h0a99.13,99.13,0,0,0,.74,12h0A15,15,0,0,1,361,448.6h0a16.81,16.81,0,0,1-1.8.1h0a15,15,0,0,1-14.86-13.18Z"/><path class="cls-7" d="M359.2,433.73c-20.62-171.39,344.94-195.5,372.64-129.38"/><text class="cls-9" transform="translate(1035.42 509.25)">企業価値</text><path class="cls-5" d="M627.48,374c-43.58,0-84.76-9.23-113.66-25.57-36.77-20.79-53.18-52.73-46.22-89.94,6.46-34.57,31.66-61.87,72.86-79a224.91,224.91,0,0,1,58.1-15.12,15,15,0,1,1,2.9,29.8c-.91.09-93.26,10-104.44,69.8-4.61,24.67,5.7,43.77,31.53,58.37,25.16,14.23,63.91,22.31,103.63,21.65,36.43-.61,68.56-8.64,81.85-20.45,6.48-5.76,5.53-9.81,4-13.46a15,15,0,1,1,27.62-11.57c7.18,17.13,2.91,34.42-11.72,47.41-18.89,16.79-56.74,27.25-101.24,28C630.95,374,629.21,374,627.48,374Z"/><path class="cls-5" d="M687,605.38c-70,0-142.68-11.49-200.64-32.21-85.76-30.66-134.87-78.26-142-137.66A15,15,0,1,1,374,431.94c4,33,28.43,79.46,122.37,113,54.83,19.6,123.79,30.47,190.33,30.47,12.38,0,24.67-.38,36.78-1.14,84.5-5.35,143.38-29.6,143.18-59a15,15,0,1,1,29.94-.2c.33,49-63.69,82.26-171.23,89.07C712.78,605,699.93,605.38,687,605.38Z"/><path class="cls-5" d="M600,969.55c-105,0-205.59-28.44-283.16-80.07-76.2-50.73-119.91-118-119.91-184.53a15,15,0,0,1,29.94,0c0,56.35,38.84,114.52,106.56,159.61C406.15,913,500.82,939.61,600,939.61a15,15,0,1,1,0,29.94Z"/><path class="cls-7" d="M731.84,304.35c31.36,74.85-273.28,83.94-249.53-43.08C495.73,189.47,600,179.32,600,179.32"/><path class="cls-7" d="M881.69,515.23c.76,115-500,105.73-522.5-81.49"/><path class="cls-7" d="M600,954.58c-215.51,0-388.09-123.63-388.09-249.63"/><path class="cls-10" d="M936.54,512.35a55,55,0,1,1-55-55A55,55,0,0,1,936.54,512.35Z"/><path class="cls-10" d="M413.57,414.13a55,55,0,1,1-55-55A55,55,0,0,1,413.57,414.13Z"/><text class="cls-11" transform="translate(859.86 522.32)">取材</text><text class="cls-11" transform="translate(334.05 407.32)">決算<tspan x="-12" y="32">説明会</tspan></text><path class="cls-10" d="M267.3,714.88a55,55,0,1,1-55-55A55,55,0,0,1,267.3,714.88Z"/><path id="_パス_" data-name="&lt;パス&gt;" class="cls-12" d="M546.46,795.2v17.46h6.75V795.2a3.37,3.37,0,1,0-6.75,0Z"/><path id="_パス_2" data-name="&lt;パス&gt;" class="cls-12" d="M553.2,812.66a19.17,19.17,0,0,0-5.59-13.55l-13.55,13.54Z"/><path id="_パス_3" data-name="&lt;パス&gt;" class="cls-12" d="M526.78,805.37l7.29,7.29,13.55-13.55-7.29-7.29a9.58,9.58,0,1,0-13.55,13.55Z"/><path class="cls-5" d="M543.62,860.64a9.58,9.58,0,1,1,0-19.16h46.8a9.58,9.58,0,1,1,0,19.16Z"/><path class="cls-5" d="M560.95,841.48h29.48a9.58,9.58,0,1,1,0,19.16H560.95Z"/><path class="cls-5" d="M553.2,815.69v35.37a9.58,9.58,0,1,1-19.16,0V815.69Z"/><path class="cls-5" d="M609.58,860.63a9.58,9.58,0,1,0,0-19.16H590.42a9.58,9.58,0,1,0,0,19.16Z"/><rect class="cls-5" x="580.84" y="851.05" width="38.32" height="60.34"/><circle class="cls-5" cx="600" cy="911.39" r="30.45"/><rect class="cls-13" x="534.06" y="812.65" width="19.14" height="3.05"/><path class="cls-5" d="M629.51,857.45l-13.16-13.16a9.58,9.58,0,1,0-13.55,13.55L616,871Z"/><path class="cls-10" d="M577.45,796.59a4.24,4.24,0,0,1,.21,3.35,4.32,4.32,0,0,1-5.53,2.7,4.39,4.39,0,0,1-2.72-5.57,4.32,4.32,0,0,1,5.53-2.7A4.24,4.24,0,0,1,577.45,796.59Zm-14.72-28.88,7.46,20.91q.65,1.5-.46,2t-1.91-.88L555.93,771a4.3,4.3,0,0,1-.46-3.07,3.94,3.94,0,0,1,5.1-2.49A4.23,4.23,0,0,1,562.73,767.71Z"/><circle class="cls-10" cx="600" cy="894.48" r="2.01"/><circle class="cls-10" cx="600" cy="902.53" r="2.01"/><rect class="cls-12" x="592.39" y="828.4" width="15.23" height="9.1"/><circle class="cls-14" cx="612.01" cy="816.01" r="5.51"/><circle class="cls-12" cx="586.2" cy="816.01" r="5.51"/><circle class="cls-12" cx="600" cy="818.3" r="14.57"/><path class="cls-12" d="M614.57,818.3v-7.7a14.57,14.57,0,1,0-29.13,0v7.7Z"/><path class="cls-5" d="M612,802.4V798a9.59,9.59,0,1,0-19.17,0v4.37Z"/><path class="cls-5" d="M601.07,802.4v-3.1a6.53,6.53,0,1,0-13.05,0v3.1Z"/><rect class="cls-13" x="592.39" y="837.5" width="15.23" height="4.17"/><polygon class="cls-13" points="600 882.12 607.61 841.67 592.39 841.67 600 882.12"/><polygon id="_パス_4" data-name="&lt;パス&gt;" class="cls-10" points="600 882.12 603.46 863.74 601.37 845.96 602.82 842.41 600 837.5 597.18 842.41 598.63 845.96 596.54 863.74 600 882.12"/><ellipse id="_パス_5" data-name="&lt;パス&gt;" class="cls-10" cx="598.86" cy="814.9" rx="1.54" ry="1.62"/><ellipse id="_パス_6" data-name="&lt;パス&gt;" class="cls-10" cx="609.4" cy="814.9" rx="1.54" ry="1.62"/><path class="cls-5" d="M615.3,870.34l20.56,20.56a9.58,9.58,0,1,0,13.55-13.55l-20.56-20.56Z"/><path class="cls-5" d="M660.9,852.37l-25,25a9.58,9.58,0,1,0,13.55,13.55l25-25Z"/><rect class="cls-13" x="667.22" y="848.49" width="3.05" height="19.14" transform="translate(-410.87 724.19) rotate(-45)"/><path id="_パス_7" data-name="&lt;パス&gt;" class="cls-12" d="M663.05,850.22a19.17,19.17,0,0,1,13.53-5.63v19.15Z"/><path id="_パス_8" data-name="&lt;パス&gt;" class="cls-12" d="M686.89,863.75H676.59V844.59h10.31a9.58,9.58,0,1,1,0,19.16Z"/><line class="cls-15" x1="682.71" y1="821.3" x2="682.71" y2="833.87"/><polygon class="cls-10" points="687.35 867.77 678.06 867.77 678.06 832.16 687.34 832.16 687.35 867.77"/><path class="cls-15" d="M682.71,833.87"/><polyline class="cls-5" points="685.88 867.77 685.89 870.96 679.52 870.94 679.52 867.77"/><circle class="cls-15" cx="682.71" cy="796.3" r="25"/><path id="_パス_9" data-name="&lt;パス&gt;" class="cls-12" d="M680.17,842.65,667.83,855l-4.77-4.77,12.34-12.34a3.37,3.37,0,1,1,4.77,4.77Z"/><g class="cls-16"><rect class="cls-17" x="667.43" y="786.89" width="30.57" height="71.92"/><rect class="cls-17" x="671.02" y="781.49" width="23.37" height="7.03"/><g class="cls-18"><rect class="cls-19" x="669.23" y="786.89" width="1.8" height="71.92"/><rect class="cls-19" x="672.82" y="786.89" width="1.8" height="71.92"/><rect class="cls-19" x="676.42" y="786.89" width="1.8" height="71.92"/><rect class="cls-19" x="680.01" y="786.89" width="1.8" height="71.92"/><rect class="cls-19" x="683.61" y="786.89" width="1.8" height="71.92"/><rect class="cls-19" x="687.21" y="786.89" width="1.8" height="71.92"/><rect class="cls-19" x="690.8" y="786.89" width="1.8" height="71.92"/><rect class="cls-19" x="694.4" y="786.89" width="1.8" height="71.92"/></g></g><path class="cls-10" d="M655,954.58a55,55,0,1,1-55-55A55,55,0,0,1,655,954.58Z"/><path class="cls-10" d="M655,179.32a55,55,0,1,1-55-55A55,55,0,0,1,655,179.32Z"/><path class="cls-10" d="M788.42,309.43a55,55,0,1,1-55-55A55,55,0,0,1,788.42,309.43Z"/><text class="cls-11" transform="translate(710.39 318.45)">取材</text><text class="cls-11" transform="translate(187.77 703.19)">決算<tspan x="-12" y="32">説明会</tspan></text><polyline class="cls-20" points="995.76 194.9 1010.66 180 1025.55 194.9"/><line class="cls-20" x1="1010.54" y1="180" x2="1010.54" y2="960.74"/><path class="cls-5" d="M1015.53,960.74a5,5,0,1,1-5-5A5,5,0,0,1,1015.53,960.74Z"/><text class="cls-11" transform="translate(576 963.87)">発見</text><polygon class="cls-5" points="588.83 64.2 571.64 47.02 571.64 34.86 576.62 29.89 583.83 29.89 591.16 37.2 598.48 29.89 605.7 29.89 610.67 34.86 610.67 47.02 593.49 64.2 588.83 64.2"/><path id="_パス_10" data-name="&lt;パス&gt;" class="cls-12" d="M618.18,105.57h-4.59V97h4.59a4.27,4.27,0,1,1,0,8.53Z"/><path id="_パス_11" data-name="&lt;パス&gt;" class="cls-12" d="M625.35,100.05h-7.77V97h7.77a1.5,1.5,0,1,1,0,3Z"/><path class="cls-5" d="M596.49,105.58a4.27,4.27,0,1,0,0-8.53H575.64a4.27,4.27,0,1,0,0,8.53Z"/><path class="cls-5" d="M588.77,97H575.64a4.27,4.27,0,1,0,0,8.53h13.13Z"/><path class="cls-5" d="M612.24,97H596.49a4.27,4.27,0,1,0,0,8.53h15.75Z"/><rect class="cls-13" x="612.24" y="97.05" width="1.36" height="8.52"/><path class="cls-5" d="M579.83,149.72v8.82a4.27,4.27,0,1,1-8.53,0v-8.82Z"/><path class="cls-5" d="M571.29,151.53V135a4.27,4.27,0,1,1,8.53,0v16.51Z"/><path class="cls-5" d="M571.29,185.41a4.27,4.27,0,1,0,8.53,0h0V158.54a4.27,4.27,0,1,0-8.53,0Z"/><path class="cls-21" d="M588.53,190a7,7,0,0,0-14,0Z"/><rect class="cls-5" x="571.38" y="189.99" width="17.15" height="1.67"/><rect class="cls-21" x="571.38" y="185.41" width="7.01" height="4.58"/><path class="cls-5" d="M558.46,149.71,570.13,138a4.27,4.27,0,1,0-6-6l-11.67,11.67Z"/><path class="cls-5" d="M553.7,142.4l-6.23,6.23a4.27,4.27,0,1,0,6,6l6.23-6.23Z"/><path class="cls-5" d="M528.47,135.67a4.27,4.27,0,1,1,6-6h0l19,19a4.27,4.27,0,1,1-6,6Z"/><rect class="cls-5" x="516.03" y="131.03" width="17.15" height="1.67" transform="translate(60.41 409.57) rotate(-45)"/><rect class="cls-21" x="525.6" y="128.74" width="8.53" height="4.58" transform="translate(62.54 413.05) rotate(-45)"/><path id="_パス_12" data-name="&lt;パス&gt;" class="cls-12" d="M547.53,76.43v7.77h3V76.43a1.5,1.5,0,1,0-3,0Z"/><path id="_パス_13" data-name="&lt;パス&gt;" class="cls-12" d="M550.54,84.21a8.54,8.54,0,0,0-2.49-6l-6,6Z"/><path id="_パス_14" data-name="&lt;パス&gt;" class="cls-12" d="M538.77,81,542,84.21l6-6-3.25-3.25a4.27,4.27,0,1,0-6,6Z"/><path class="cls-5" d="M546.27,105.58a4.27,4.27,0,1,1,0-8.53h20.84a4.27,4.27,0,1,1,0,8.53Z"/><path class="cls-5" d="M554,97h13.13a4.27,4.27,0,1,1,0,8.53H554Z"/><path class="cls-5" d="M550.54,85.56v15.75a4.27,4.27,0,1,1-8.53,0V85.56Z"/><path class="cls-5" d="M575.65,105.58a4.27,4.27,0,1,0,0-8.53h-8.53a4.27,4.27,0,1,0,0,8.53Z"/><rect class="cls-5" x="562.85" y="101.31" width="17.07" height="26.87"/><circle class="cls-5" cx="571.38" cy="128.18" r="13.56"/><circle class="cls-10" cx="571.38" cy="120.65" r="0.9"/><circle class="cls-10" cx="571.38" cy="124.24" r="0.9"/><path class="cls-12" d="M568,91.22h6.78v7.26a3.39,3.39,0,1,1-6.78,0Z"/><rect class="cls-13" x="542.01" y="84.2" width="8.52" height="1.36"/><path class="cls-13" d="M574.65,100.48v14.21a3.27,3.27,0,0,1-6.55,0V100.48Z"/><g class="cls-22"><rect class="cls-10" x="570.23" y="100.48" width="2.18" height="19.06"/></g><polygon class="cls-13" points="574.65 97.2 571.38 100.48 574.65 103.75 574.65 97.2"/><polygon class="cls-13" points="568.11 97.2 571.38 100.48 568.11 103.75 568.11 97.2"/><circle class="cls-14" cx="576.73" cy="85.7" r="2.45"/><circle class="cls-12" cx="565.23" cy="85.7" r="2.45"/><circle class="cls-12" cx="571.38" cy="86.72" r="6.49"/><path class="cls-12" d="M577.87,86.72V83.29a6.49,6.49,0,1,0-13,0v3.43Z"/><ellipse id="_パス_15" data-name="&lt;パス&gt;" class="cls-10" cx="570.87" cy="85.2" rx="0.69" ry="0.72"/><ellipse id="_パス_16" data-name="&lt;パス&gt;" class="cls-10" cx="575.56" cy="85.2" rx="0.69" ry="0.72"/><path class="cls-5" d="M576.71,79.64V77.69a4.27,4.27,0,1,0-8.54,0v1.95Z"/><path class="cls-5" d="M571.86,79.64V78.26a2.91,2.91,0,1,0-5.81,0v1.38Z"/><path class="cls-21" d="M519.13,138.52A7,7,0,0,0,529,128.6Z"/><rect class="cls-17" x="593.68" y="80.25" width="47.35" height="111.42"/><rect class="cls-17" x="599.25" y="71.89" width="36.21" height="10.9"/><g class="cls-18"><rect class="cls-19" x="596.47" y="80.25" width="2.79" height="111.42"/><rect class="cls-19" x="602.04" y="80.25" width="2.79" height="111.42"/><rect class="cls-19" x="607.61" y="80.25" width="2.79" height="111.42"/><rect class="cls-19" x="613.18" y="80.25" width="2.79" height="111.42"/><rect class="cls-19" x="618.75" y="80.25" width="2.79" height="111.42"/><rect class="cls-19" x="624.32" y="80.25" width="2.79" height="111.42"/><rect class="cls-19" x="629.89" y="80.25" width="2.79" height="111.42"/><rect class="cls-19" x="635.46" y="80.25" width="2.79" height="111.42"/></g><polygon class="cls-5" points="679.75 963.4 667.02 954.58 679.75 945.75 679.75 963.4"/><text class="cls-23" transform="translate(690.73 965.12)">START</text><text class="cls-24" transform="translate(38.11 110.74)">みんせつが目指すのは<tspan x="45" y="43.77">企業と投資家の</tspan><tspan x="75" y="87.54">対話による</tspan><tspan x="0" y="131.31">持続的な企業価値創造</tspan></text><polyline class="cls-25" points="31.59 270 209.6 270 232.16 292.56 232.16 270 347.38 270"/><line class="cls-26" x1="31.59" y1="60" x2="347.38" y2="60"/><rect class="cls-17" x="800.79" y="814.51" width="16.4" height="6.31"/><rect class="cls-17" x="800.79" y="819.55" width="21.44" height="50.45"/><rect class="cls-19" x="802.05" y="866.22" width="1.26" height="2.52"/><rect class="cls-19" x="804.57" y="866.22" width="1.26" height="2.52"/><rect class="cls-19" x="807.09" y="866.22" width="1.26" height="2.52"/><rect class="cls-19" x="809.62" y="866.22" width="1.26" height="2.52"/><rect class="cls-19" x="812.14" y="866.22" width="1.26" height="2.52"/><rect class="cls-19" x="814.66" y="866.22" width="1.26" height="2.52"/><rect class="cls-19" x="817.18" y="866.22" width="1.26" height="2.52"/><rect class="cls-19" x="819.71" y="866.22" width="1.26" height="2.52"/><rect class="cls-19" x="802.05" y="862.43" width="1.26" height="2.52"/><rect class="cls-19" x="804.57" y="862.43" width="1.26" height="2.52"/><rect class="cls-19" x="807.09" y="862.43" width="1.26" height="2.52"/><rect class="cls-19" x="809.62" y="862.43" width="1.26" height="2.52"/><rect class="cls-19" x="812.14" y="862.43" width="1.26" height="2.52"/><rect class="cls-19" x="814.66" y="862.43" width="1.26" height="2.52"/><rect class="cls-19" x="817.18" y="862.43" width="1.26" height="2.52"/><rect class="cls-19" x="819.71" y="862.43" width="1.26" height="2.52"/><rect class="cls-19" x="802.05" y="858.65" width="1.26" height="2.52"/><rect class="cls-19" x="804.57" y="858.65" width="1.26" height="2.52"/><rect class="cls-19" x="807.09" y="858.65" width="1.26" height="2.52"/><rect class="cls-19" x="809.62" y="858.65" width="1.26" height="2.52"/><rect class="cls-19" x="812.14" y="858.65" width="1.26" height="2.52"/><rect class="cls-19" x="814.66" y="858.65" width="1.26" height="2.52"/><rect class="cls-19" x="817.18" y="858.65" width="1.26" height="2.52"/><rect class="cls-19" x="819.71" y="858.65" width="1.26" height="2.52"/><rect class="cls-19" x="802.05" y="854.87" width="1.26" height="2.52"/><rect class="cls-19" x="804.57" y="854.87" width="1.26" height="2.52"/><rect class="cls-19" x="807.09" y="854.87" width="1.26" height="2.52"/><rect class="cls-19" x="809.62" y="854.87" width="1.26" height="2.52"/><rect class="cls-19" x="812.14" y="854.87" width="1.26" height="2.52"/><rect class="cls-19" x="814.66" y="854.87" width="1.26" height="2.52"/><rect class="cls-19" x="817.18" y="854.87" width="1.26" height="2.52"/><rect class="cls-19" x="819.71" y="854.87" width="1.26" height="2.52"/><rect class="cls-19" x="802.05" y="851.08" width="1.26" height="2.52"/><rect class="cls-19" x="804.57" y="851.08" width="1.26" height="2.52"/><rect class="cls-19" x="807.09" y="851.08" width="1.26" height="2.52"/><rect class="cls-19" x="809.62" y="851.08" width="1.26" height="2.52"/><rect class="cls-19" x="812.14" y="851.08" width="1.26" height="2.52"/><rect class="cls-19" x="814.66" y="851.08" width="1.26" height="2.52"/><rect class="cls-19" x="817.18" y="851.08" width="1.26" height="2.52"/><rect class="cls-19" x="819.71" y="851.08" width="1.26" height="2.52"/><rect class="cls-19" x="802.05" y="847.3" width="1.26" height="2.52"/><rect class="cls-19" x="804.57" y="847.3" width="1.26" height="2.52"/><rect class="cls-19" x="807.09" y="847.3" width="1.26" height="2.52"/><rect class="cls-19" x="809.62" y="847.3" width="1.26" height="2.52"/><rect class="cls-19" x="812.14" y="847.3" width="1.26" height="2.52"/><rect class="cls-19" x="814.66" y="847.3" width="1.26" height="2.52"/><rect class="cls-19" x="817.18" y="847.3" width="1.26" height="2.52"/><rect class="cls-19" x="819.71" y="847.3" width="1.26" height="2.52"/><rect class="cls-19" x="802.05" y="843.51" width="1.26" height="2.52"/><rect class="cls-19" x="804.57" y="843.51" width="1.26" height="2.52"/><rect class="cls-19" x="807.09" y="843.51" width="1.26" height="2.52"/><rect class="cls-19" x="809.62" y="843.51" width="1.26" height="2.52"/><rect class="cls-19" x="812.14" y="843.51" width="1.26" height="2.52"/><rect class="cls-19" x="814.66" y="843.51" width="1.26" height="2.52"/><rect class="cls-19" x="817.18" y="843.51" width="1.26" height="2.52"/><rect class="cls-19" x="819.71" y="843.51" width="1.26" height="2.52"/><rect class="cls-19" x="802.05" y="839.73" width="1.26" height="2.52"/><rect class="cls-19" x="804.57" y="839.73" width="1.26" height="2.52"/><rect class="cls-19" x="807.09" y="839.73" width="1.26" height="2.52"/><rect class="cls-19" x="809.62" y="839.73" width="1.26" height="2.52"/><rect class="cls-19" x="812.14" y="839.73" width="1.26" height="2.52"/><rect class="cls-19" x="814.66" y="839.73" width="1.26" height="2.52"/><rect class="cls-19" x="817.18" y="839.73" width="1.26" height="2.52"/><rect class="cls-19" x="819.71" y="839.73" width="1.26" height="2.52"/><rect class="cls-19" x="802.05" y="835.95" width="1.26" height="2.52"/><rect class="cls-19" x="804.57" y="835.95" width="1.26" height="2.52"/><rect class="cls-19" x="807.09" y="835.95" width="1.26" height="2.52"/><rect class="cls-19" x="809.62" y="835.95" width="1.26" height="2.52"/><rect class="cls-19" x="812.14" y="835.95" width="1.26" height="2.52"/><rect class="cls-19" x="814.66" y="835.95" width="1.26" height="2.52"/><rect class="cls-19" x="817.18" y="835.95" width="1.26" height="2.52"/><rect class="cls-19" x="819.71" y="835.95" width="1.26" height="2.52"/><rect class="cls-19" x="802.05" y="832.16" width="1.26" height="2.52"/><rect class="cls-19" x="804.57" y="832.16" width="1.26" height="2.52"/><rect class="cls-19" x="807.09" y="832.16" width="1.26" height="2.52"/><rect class="cls-19" x="809.62" y="832.16" width="1.26" height="2.52"/><rect class="cls-19" x="812.14" y="832.16" width="1.26" height="2.52"/><rect class="cls-19" x="814.66" y="832.16" width="1.26" height="2.52"/><rect class="cls-19" x="817.18" y="832.16" width="1.26" height="2.52"/><rect class="cls-19" x="819.71" y="832.16" width="1.26" height="2.52"/><rect class="cls-19" x="802.05" y="828.38" width="1.26" height="2.52"/><rect class="cls-19" x="804.57" y="828.38" width="1.26" height="2.52"/><rect class="cls-19" x="807.09" y="828.38" width="1.26" height="2.52"/><rect class="cls-19" x="809.62" y="828.38" width="1.26" height="2.52"/><rect class="cls-19" x="812.14" y="828.38" width="1.26" height="2.52"/><rect class="cls-19" x="814.66" y="828.38" width="1.26" height="2.52"/><rect class="cls-19" x="817.18" y="828.38" width="1.26" height="2.52"/><rect class="cls-19" x="819.71" y="828.38" width="1.26" height="2.52"/><rect class="cls-19" x="802.05" y="824.6" width="1.26" height="2.52"/><rect class="cls-19" x="804.57" y="824.6" width="1.26" height="2.52"/><rect class="cls-19" x="807.09" y="824.6" width="1.26" height="2.52"/><rect class="cls-19" x="809.62" y="824.6" width="1.26" height="2.52"/><rect class="cls-19" x="812.14" y="824.6" width="1.26" height="2.52"/><rect class="cls-19" x="814.66" y="824.6" width="1.26" height="2.52"/><rect class="cls-19" x="817.18" y="824.6" width="1.26" height="2.52"/><rect class="cls-19" x="819.71" y="824.6" width="1.26" height="2.52"/><rect class="cls-19" x="802.05" y="820.81" width="1.26" height="2.52"/><rect class="cls-19" x="804.57" y="820.81" width="1.26" height="2.52"/><rect class="cls-19" x="807.09" y="820.81" width="1.26" height="2.52"/><rect class="cls-19" x="809.62" y="820.81" width="1.26" height="2.52"/><rect class="cls-19" x="812.14" y="820.81" width="1.26" height="2.52"/><rect class="cls-19" x="814.66" y="820.81" width="1.26" height="2.52"/><rect class="cls-19" x="817.18" y="820.81" width="1.26" height="2.52"/><rect class="cls-19" x="819.71" y="820.81" width="1.26" height="2.52"/><rect class="cls-19" x="742.32" y="813.25" width="23.96" height="56.75"/><rect class="cls-17" x="762.5" y="867.48" width="2.52" height="1.26"/><rect class="cls-17" x="758.71" y="867.48" width="2.52" height="1.26"/><rect class="cls-17" x="754.93" y="867.48" width="2.52" height="1.26"/><rect class="cls-17" x="751.15" y="867.48" width="2.52" height="1.26"/><rect class="cls-17" x="747.36" y="867.48" width="2.52" height="1.26"/><rect class="cls-17" x="743.58" y="867.48" width="2.52" height="1.26"/><rect class="cls-17" x="762.5" y="864.96" width="2.52" height="1.26"/><rect class="cls-17" x="758.71" y="864.96" width="2.52" height="1.26"/><rect class="cls-17" x="754.93" y="864.96" width="2.52" height="1.26"/><rect class="cls-17" x="751.15" y="864.96" width="2.52" height="1.26"/><rect class="cls-17" x="747.36" y="864.96" width="2.52" height="1.26"/><rect class="cls-17" x="743.58" y="864.96" width="2.52" height="1.26"/><rect class="cls-17" x="762.5" y="862.43" width="2.52" height="1.26"/><rect class="cls-17" x="758.71" y="862.43" width="2.52" height="1.26"/><rect class="cls-17" x="754.93" y="862.43" width="2.52" height="1.26"/><rect class="cls-17" x="751.15" y="862.43" width="2.52" height="1.26"/><rect class="cls-17" x="747.36" y="862.43" width="2.52" height="1.26"/><rect class="cls-17" x="743.58" y="862.43" width="2.52" height="1.26"/><rect class="cls-17" x="762.5" y="859.91" width="2.52" height="1.26"/><rect class="cls-17" x="758.71" y="859.91" width="2.52" height="1.26"/><rect class="cls-17" x="754.93" y="859.91" width="2.52" height="1.26"/><rect class="cls-17" x="751.15" y="859.91" width="2.52" height="1.26"/><rect class="cls-17" x="747.36" y="859.91" width="2.52" height="1.26"/><rect class="cls-17" x="743.58" y="859.91" width="2.52" height="1.26"/><rect class="cls-17" x="762.5" y="857.39" width="2.52" height="1.26"/><rect class="cls-17" x="758.71" y="857.39" width="2.52" height="1.26"/><rect class="cls-17" x="754.93" y="857.39" width="2.52" height="1.26"/><rect class="cls-17" x="751.15" y="857.39" width="2.52" height="1.26"/><rect class="cls-17" x="747.36" y="857.39" width="2.52" height="1.26"/><rect class="cls-17" x="743.58" y="857.39" width="2.52" height="1.26"/><rect class="cls-17" x="762.5" y="854.87" width="2.52" height="1.26"/><rect class="cls-17" x="758.71" y="854.87" width="2.52" height="1.26"/><rect class="cls-17" x="754.93" y="854.87" width="2.52" height="1.26"/><rect class="cls-17" x="751.15" y="854.87" width="2.52" height="1.26"/><rect class="cls-17" x="747.36" y="854.87" width="2.52" height="1.26"/><rect class="cls-17" x="743.58" y="854.87" width="2.52" height="1.26"/><rect class="cls-17" x="762.5" y="852.34" width="2.52" height="1.26"/><rect class="cls-17" x="758.71" y="852.34" width="2.52" height="1.26"/><rect class="cls-17" x="754.93" y="852.34" width="2.52" height="1.26"/><rect class="cls-17" x="751.15" y="852.34" width="2.52" height="1.26"/><rect class="cls-17" x="747.36" y="852.34" width="2.52" height="1.26"/><rect class="cls-17" x="743.58" y="852.34" width="2.52" height="1.26"/><rect class="cls-17" x="762.5" y="849.82" width="2.52" height="1.26"/><rect class="cls-17" x="758.71" y="849.82" width="2.52" height="1.26"/><rect class="cls-17" x="754.93" y="849.82" width="2.52" height="1.26"/><rect class="cls-17" x="751.15" y="849.82" width="2.52" height="1.26"/><rect class="cls-17" x="747.36" y="849.82" width="2.52" height="1.26"/><rect class="cls-17" x="743.58" y="849.82" width="2.52" height="1.26"/><rect class="cls-17" x="762.5" y="847.3" width="2.52" height="1.26"/><rect class="cls-17" x="758.71" y="847.3" width="2.52" height="1.26"/><rect class="cls-17" x="754.93" y="847.3" width="2.52" height="1.26"/><rect class="cls-17" x="751.15" y="847.3" width="2.52" height="1.26"/><rect class="cls-17" x="747.36" y="847.3" width="2.52" height="1.26"/><rect class="cls-17" x="743.58" y="847.3" width="2.52" height="1.26"/><rect class="cls-17" x="762.5" y="844.78" width="2.52" height="1.26"/><rect class="cls-17" x="758.71" y="844.78" width="2.52" height="1.26"/><rect class="cls-17" x="754.93" y="844.78" width="2.52" height="1.26"/><rect class="cls-17" x="751.15" y="844.78" width="2.52" height="1.26"/><rect class="cls-17" x="747.36" y="844.78" width="2.52" height="1.26"/><rect class="cls-17" x="743.58" y="844.78" width="2.52" height="1.26"/><rect class="cls-17" x="762.5" y="842.25" width="2.52" height="1.26"/><rect class="cls-17" x="758.71" y="842.25" width="2.52" height="1.26"/><rect class="cls-17" x="754.93" y="842.25" width="2.52" height="1.26"/><rect class="cls-17" x="751.15" y="842.25" width="2.52" height="1.26"/><rect class="cls-17" x="747.36" y="842.25" width="2.52" height="1.26"/><rect class="cls-17" x="743.58" y="842.25" width="2.52" height="1.26"/><rect class="cls-17" x="762.5" y="839.73" width="2.52" height="1.26"/><rect class="cls-17" x="758.71" y="839.73" width="2.52" height="1.26"/><rect class="cls-17" x="754.93" y="839.73" width="2.52" height="1.26"/><rect class="cls-17" x="751.15" y="839.73" width="2.52" height="1.26"/><rect class="cls-17" x="747.36" y="839.73" width="2.52" height="1.26"/><rect class="cls-17" x="743.58" y="839.73" width="2.52" height="1.26"/><rect class="cls-17" x="762.5" y="837.21" width="2.52" height="1.26"/><rect class="cls-17" x="758.71" y="837.21" width="2.52" height="1.26"/><rect class="cls-17" x="754.93" y="837.21" width="2.52" height="1.26"/><rect class="cls-17" x="751.15" y="837.21" width="2.52" height="1.26"/><rect class="cls-17" x="747.36" y="837.21" width="2.52" height="1.26"/><rect class="cls-17" x="743.58" y="837.21" width="2.52" height="1.26"/><rect class="cls-17" x="762.5" y="834.69" width="2.52" height="1.26"/><rect class="cls-17" x="758.71" y="834.69" width="2.52" height="1.26"/><rect class="cls-17" x="754.93" y="834.69" width="2.52" height="1.26"/><rect class="cls-17" x="751.15" y="834.69" width="2.52" height="1.26"/><rect class="cls-17" x="747.36" y="834.69" width="2.52" height="1.26"/><rect class="cls-17" x="743.58" y="834.69" width="2.52" height="1.26"/><rect class="cls-17" x="762.5" y="832.16" width="2.52" height="1.26"/><rect class="cls-17" x="758.71" y="832.16" width="2.52" height="1.26"/><rect class="cls-17" x="754.93" y="832.16" width="2.52" height="1.26"/><rect class="cls-17" x="751.15" y="832.16" width="2.52" height="1.26"/><rect class="cls-17" x="747.36" y="832.16" width="2.52" height="1.26"/><rect class="cls-17" x="743.58" y="832.16" width="2.52" height="1.26"/><rect class="cls-17" x="762.5" y="829.64" width="2.52" height="1.26"/><rect class="cls-17" x="758.71" y="829.64" width="2.52" height="1.26"/><rect class="cls-17" x="754.93" y="829.64" width="2.52" height="1.26"/><rect class="cls-17" x="751.15" y="829.64" width="2.52" height="1.26"/><rect class="cls-17" x="747.36" y="829.64" width="2.52" height="1.26"/><rect class="cls-17" x="743.58" y="829.64" width="2.52" height="1.26"/><rect class="cls-17" x="762.5" y="827.12" width="2.52" height="1.26"/><rect class="cls-17" x="758.71" y="827.12" width="2.52" height="1.26"/><rect class="cls-17" x="754.93" y="827.12" width="2.52" height="1.26"/><rect class="cls-17" x="751.15" y="827.12" width="2.52" height="1.26"/><rect class="cls-17" x="747.36" y="827.12" width="2.52" height="1.26"/><rect class="cls-17" x="743.58" y="827.12" width="2.52" height="1.26"/><rect class="cls-17" x="762.5" y="824.6" width="2.52" height="1.26"/><rect class="cls-17" x="758.71" y="824.6" width="2.52" height="1.26"/><rect class="cls-17" x="754.93" y="824.6" width="2.52" height="1.26"/><rect class="cls-17" x="751.15" y="824.6" width="2.52" height="1.26"/><rect class="cls-17" x="747.36" y="824.6" width="2.52" height="1.26"/><rect class="cls-17" x="743.58" y="824.6" width="2.52" height="1.26"/><rect class="cls-17" x="762.5" y="822.07" width="2.52" height="1.26"/><rect class="cls-17" x="758.71" y="822.07" width="2.52" height="1.26"/><rect class="cls-17" x="754.93" y="822.07" width="2.52" height="1.26"/><rect class="cls-17" x="751.15" y="822.07" width="2.52" height="1.26"/><rect class="cls-17" x="747.36" y="822.07" width="2.52" height="1.26"/><rect class="cls-17" x="743.58" y="822.07" width="2.52" height="1.26"/><rect class="cls-17" x="762.5" y="819.55" width="2.52" height="1.26"/><rect class="cls-17" x="758.71" y="819.55" width="2.52" height="1.26"/><rect class="cls-17" x="754.93" y="819.55" width="2.52" height="1.26"/><rect class="cls-17" x="751.15" y="819.55" width="2.52" height="1.26"/><rect class="cls-17" x="747.36" y="819.55" width="2.52" height="1.26"/><rect class="cls-17" x="743.58" y="819.55" width="2.52" height="1.26"/><rect class="cls-17" x="762.5" y="817.03" width="2.52" height="1.26"/><rect class="cls-17" x="758.71" y="817.03" width="2.52" height="1.26"/><rect class="cls-17" x="754.93" y="817.03" width="2.52" height="1.26"/><rect class="cls-17" x="751.15" y="817.03" width="2.52" height="1.26"/><rect class="cls-17" x="747.36" y="817.03" width="2.52" height="1.26"/><rect class="cls-17" x="743.58" y="817.03" width="2.52" height="1.26"/><rect class="cls-17" x="762.5" y="814.51" width="2.52" height="1.26"/><rect class="cls-17" x="758.71" y="814.51" width="2.52" height="1.26"/><rect class="cls-17" x="754.93" y="814.51" width="2.52" height="1.26"/><rect class="cls-17" x="751.15" y="814.51" width="2.52" height="1.26"/><rect class="cls-17" x="747.36" y="814.51" width="2.52" height="1.26"/><rect class="cls-17" x="743.58" y="814.51" width="2.52" height="1.26"/><rect class="cls-17" x="770.92" y="828.38" width="25.22" height="41.62"/><g class="cls-18"><rect class="cls-19" x="773.45" y="867.48" width="22.7" height="1.26"/><rect class="cls-19" x="773.45" y="864.96" width="22.7" height="1.26"/><rect class="cls-19" x="773.45" y="862.43" width="22.7" height="1.26"/><rect class="cls-19" x="773.45" y="859.91" width="22.7" height="1.26"/><rect class="cls-19" x="773.45" y="857.39" width="22.7" height="1.26"/><rect class="cls-19" x="773.45" y="854.87" width="22.7" height="1.26"/><rect class="cls-19" x="773.45" y="852.34" width="22.7" height="1.26"/><rect class="cls-19" x="773.45" y="849.82" width="22.7" height="1.26"/><rect class="cls-19" x="773.45" y="847.3" width="22.7" height="1.26"/><rect class="cls-19" x="773.45" y="844.78" width="22.7" height="1.26"/><rect class="cls-19" x="773.45" y="842.25" width="22.7" height="1.26"/><rect class="cls-19" x="773.45" y="839.73" width="22.7" height="1.26"/><rect class="cls-19" x="773.45" y="837.21" width="22.7" height="1.26"/><rect class="cls-19" x="773.45" y="834.69" width="22.7" height="1.26"/><rect class="cls-19" x="773.45" y="832.16" width="22.7" height="1.26"/><rect class="cls-19" x="773.45" y="829.64" width="22.7" height="1.26"/></g><rect class="cls-17" x="777.23" y="823.34" width="16.4" height="5.04"/><rect class="cls-17" x="826.87" y="809.46" width="16.4" height="60.54"/><g class="cls-27"><rect class="cls-17" x="828.13" y="809.46" width="1.26" height="60.54"/><rect class="cls-17" x="830.65" y="809.46" width="1.26" height="60.54"/><rect class="cls-17" x="833.18" y="809.46" width="1.26" height="60.54"/><rect class="cls-17" x="835.7" y="809.46" width="1.26" height="60.54"/><rect class="cls-17" x="838.22" y="809.46" width="1.26" height="60.54"/><rect class="cls-17" x="840.74" y="809.46" width="1.26" height="60.54"/></g><rect class="cls-17" x="716.24" y="819.55" width="21.44" height="50.45"/><rect class="cls-17" x="718.76" y="815.77" width="16.4" height="4.93"/><g class="cls-18"><rect class="cls-19" x="717.5" y="819.55" width="1.26" height="50.45"/><rect class="cls-19" x="720.02" y="819.55" width="1.26" height="50.45"/><rect class="cls-19" x="722.54" y="819.55" width="1.26" height="50.45"/><rect class="cls-19" x="725.07" y="819.55" width="1.26" height="50.45"/><rect class="cls-19" x="727.59" y="819.55" width="1.26" height="50.45"/><rect class="cls-19" x="730.11" y="819.55" width="1.26" height="50.45"/><rect class="cls-19" x="732.63" y="819.55" width="1.26" height="50.45"/><rect class="cls-19" x="735.15" y="819.55" width="1.26" height="50.45"/></g></g></g></g></svg>